<svg id="e17sr2dYa0q1" xmlns="http://www.w3.org/2000/svg" xmlns:xlink="http://www.w3.org/1999/xlink" viewBox="0 0 512 512" shape-rendering="geometricPrecision" text-rendering="geometricPrecision"><style><![CDATA[#e17sr2dYa0q5_to {animation: e17sr2dYa0q5_to__to 3000ms linear infinite normal forwards}@keyframes e17sr2dYa0q5_to__to { 0% {transform: translate(256.000092px,268.505264px)} 46.666667% {transform: translate(266.337438px,288.866209px);animation-timing-function: cubic-bezier(0.635,-0.015,0.34,0.975)} 100% {transform: translate(256.000092px,268.505264px)}} #e17sr2dYa0q5_tr {animation: e17sr2dYa0q5_tr__tr 3000ms linear infinite normal forwards}@keyframes e17sr2dYa0q5_tr__tr { 0% {transform: rotate(359.999997deg)} 46.666667% {transform: rotate(387.382298deg);animation-timing-function: cubic-bezier(0.635,-0.015,0.34,0.975)} 100% {transform: rotate(359.999997deg)}} #e17sr2dYa0q5_ts {animation: e17sr2dYa0q5_ts__ts 3000ms linear infinite normal forwards}@keyframes e17sr2dYa0q5_ts__ts { 0% {transform: scale(1,1)} 46.666667% {transform: scale(0.844415,1.087806);animation-timing-function: cubic-bezier(0.635,-0.015,0.34,0.975)} 100% {transform: scale(1,1)}} #e17sr2dYa0q13_ts {animation: e17sr2dYa0q13_ts__ts 3000ms linear infinite normal forwards}@keyframes e17sr2dYa0q13_ts__ts { 0% {transform: translate(169.481px,212.904px) scale(1,1)} 16.666667% {transform: translate(169.481px,212.904px) scale(0.43993,1);animation-timing-function: cubic-bezier(0.64,-0.03,0.37,0.985)} 100% {transform: translate(169.481px,212.904px) scale(1,1)}} #e17sr2dYa0q18_ts {animation: e17sr2dYa0q18_ts__ts 3000ms linear infinite normal forwards}@keyframes e17sr2dYa0q18_ts__ts { 0% {transform: translate(169.481px,258.312px) scale(1,1)} 50% {transform: translate(169.481px,258.312px) scale(0.43993,1);animation-timing-function: cubic-bezier(0.64,-0.03,0.37,0.985)} 100% {transform: translate(169.481px,258.312px) scale(1,1)}} #e17sr2dYa0q23_ts {animation: e17sr2dYa0q23_ts__ts 3000ms linear infinite normal forwards}@keyframes e17sr2dYa0q23_ts__ts { 0% {transform: translate(169.48px,303.719px) scale(1,1)} 26.666667% {transform: translate(169.48px,303.719px) scale(0.43993,1);animation-timing-function: cubic-bezier(0.64,-0.03,0.37,0.985)} 100% {transform: translate(169.48px,303.719px) scale(1,1)}} #e17sr2dYa0q28_ts {animation: e17sr2dYa0q28_ts__ts 3000ms linear infinite normal forwards}@keyframes e17sr2dYa0q28_ts__ts { 0% {transform: translate(169.48px,349.127px) scale(1,1)} 66.666667% {transform: translate(169.48px,349.127px) scale(0.43993,1);animation-timing-function: cubic-bezier(0.64,-0.03,0.37,0.985)} 100% {transform: translate(169.48px,349.127px) scale(1,1)}} #e17sr2dYa0q66_ts {animation: e17sr2dYa0q66_ts__ts 3000ms linear infinite normal forwards}@keyframes e17sr2dYa0q66_ts__ts { 0% {transform: translate(230.24px,153.719px) scale(1,1)} 33.333333% {transform: translate(230.24px,153.719px) scale(0.43993,1);animation-timing-function: cubic-bezier(0.64,-0.03,0.37,0.985)} 100% {transform: translate(230.24px,153.719px) scale(1,1)}} #e17sr2dYa0q68_ts {animation: e17sr2dYa0q68_ts__ts 3000ms linear infinite normal forwards}@keyframes e17sr2dYa0q68_ts__ts { 0% {transform: translate(202.74px,116.774px) scale(1,1)} 63.333333% {transform: translate(202.74px,116.774px) scale(0.43993,1);animation-timing-function: cubic-bezier(0.64,-0.03,0.37,0.985)} 100% {transform: translate(202.74px,116.774px) scale(1,1)}} #e17sr2dYa0q70_ts {animation: e17sr2dYa0q70_ts__ts 3000ms linear infinite normal forwards}@keyframes e17sr2dYa0q70_ts__ts { 0% {transform: translate(176.795335px,94.828px) scale(1,1)} 20% {transform: translate(176.795335px,94.828px) scale(0.43993,1);animation-timing-function: cubic-bezier(0.64,-0.03,0.37,0.985)} 100% {transform: translate(176.795335px,94.828px) scale(1,1)}} #e17sr2dYa0q74_to {animation: e17sr2dYa0q74_to__to 3000ms linear infinite normal forwards}@keyframes e17sr2dYa0q74_to__to { 0% {transform: translate(411.180008px,67.882751px)} 36.666667% {transform: translate(411.180008px,28.996749px);animation-timing-function: cubic-bezier(0,0,0.27,0.975)} 99.333333% {transform: translate(411.180008px,67.882751px)} 100% {transform: translate(411.180008px,67.882751px)}} #e17sr2dYa0q75_to {animation: e17sr2dYa0q75_to__to 3000ms linear infinite normal forwards}@keyframes e17sr2dYa0q75_to__to { 0% {transform: translate(436.321503px,116.773937px)} 20% {transform: translate(436.321505px,148.718999px);animation-timing-function: cubic-bezier(0,0,0.27,0.975)} 99% {transform: translate(436.321503px,116.773937px)} 100% {transform: translate(436.321503px,116.773937px)}} #e17sr2dYa0q76_to {animation: e17sr2dYa0q76_to__to 3000ms linear infinite normal forwards}@keyframes e17sr2dYa0q76_to__to { 0% {transform: translate(105.378998px,222.266312px)} 50% {transform: translate(105.378998px,144.226312px);animation-timing-function: cubic-bezier(0,0,0.27,0.975)} 99% {transform: translate(105.378998px,222.266312px)} 100% {transform: translate(105.378998px,222.266312px)}} #e17sr2dYa0q77_to {animation: e17sr2dYa0q77_to__to 3000ms linear infinite normal forwards}@keyframes e17sr2dYa0q77_to__to { 0% {transform: translate(89.433502px,271.950516px)} 99.333333% {transform: translate(89.433502px,17.428006px)} 100% {transform: translate(89.433502px,17.428006px)}} #e17sr2dYa0q77 {animation: e17sr2dYa0q77_c_o 3000ms linear infinite normal forwards}@keyframes e17sr2dYa0q77_c_o { 0% {opacity: 1} 99.333333% {opacity: 0} 100% {opacity: 0}} #e17sr2dYa0q78_to {animation: e17sr2dYa0q78_to__to 3000ms linear infinite normal forwards}@keyframes e17sr2dYa0q78_to__to { 0% {transform: translate(417.322495px,416.750504px)} 100% {transform: translate(417.322495px,163.073585px)}} #e17sr2dYa0q78 {animation: e17sr2dYa0q78_c_o 3000ms linear infinite normal forwards}@keyframes e17sr2dYa0q78_c_o { 0% {opacity: 1} 99.666667% {opacity: 0} 100% {opacity: 0}}]]></style><defs><linearGradient id="e17sr2dYa0q5-fill" x1="-9.013" y1="152.996" x2="466.018" y2="381.285" spreadMethod="pad" gradientUnits="userSpaceOnUse" gradientTransform="matrix(1 0 0 1 0 0)"><stop id="e17sr2dYa0q5-fill-0" offset="0%" stop-color="rgba(210,222,255,0)"/><stop id="e17sr2dYa0q5-fill-1" offset="100%" stop-color="rgb(183,197,255)"/></linearGradient></defs><g id="e17sr2dYa0q2"><path id="e17sr2dYa0q3" d="M373.553,146.774C373.552,146.774,373.551,146.774,373.55,146.774L373.55,68.34C373.55,62.82,369.08,58.34,363.55,58.34L148.45,58.34C142.92,58.34,138.45,62.82,138.45,68.34L138.45,476.11C138.45,479.84,142.39,482.26,145.72,480.56L159.69,473.43C161.12,472.7,162.81,472.7,164.24,473.43L183.2,483.11C184.63,483.84,186.32,483.84,187.75,483.11L206.72,473.43C208.14,472.7,209.84,472.7,211.26,473.43L230.23,483.11C231.66,483.84,233.35,483.84,234.77,483.11L253.74,473.43C255.17,472.7,256.86,472.7,258.29,473.43L277.25,483.11C278.68,483.84,280.37,483.84,281.8,483.11L300.76,473.43C302.19,472.7,303.88,472.7,305.3,473.43L324.27,483.11C325.69,483.84,327.38,483.84,328.81,483.11L347.77,473.43C349.2,472.7,350.89,472.7,352.32,473.43L366.28,480.56C369.61,482.26,373.55,479.84,373.55,476.1L373.55,253.312L373.553,253.312C402.973,253.312,426.822,229.462,426.822,200.043C426.822,170.623,402.973,146.774,373.553,146.774Z" opacity="0.1" fill="rgb(38,38,188)" stroke="none" stroke-width="1"/><g id="e17sr2dYa0q4"><g id="e17sr2dYa0q5_to" transform="translate(256.000092,268.505264)"><g id="e17sr2dYa0q5_tr" transform="rotate(359.999997)"><g id="e17sr2dYa0q5_ts" transform="scale(1,1)"><path id="e17sr2dYa0q5" d="M471.476,133.315C406.059,83.022,342.609,124.01,271.836,109.518C200.552,94.921,172.151,46.318,90.96,68.753C19.038,88.626,-24.602,168.304,14.936,235.011C26.203,254.02,45.397,268.361,53.241,289.63C65.894,323.941,46.634,350.283,50.391,384.002C66.003,524.103,279.965,469.836,358.694,426.247C482.164,357.887,565.692,205.75,471.476,133.315Z" transform="translate(-256.000092,-268.505264)" fill="url(#e17sr2dYa0q5-fill)" stroke="none" stroke-width="1"/></g></g></g><g id="e17sr2dYa0q6"><g id="e17sr2dYa0q7"><path id="e17sr2dYa0q8" d="M373.55,43.34L373.55,451.1C373.55,454.84,369.61,457.26,366.28,455.56L352.32,448.43C350.89,447.7,349.2,447.7,347.77,448.43L328.81,458.11C327.38,458.84,325.69,458.84,324.27,458.11L305.3,448.43C303.88,447.7,302.19,447.7,300.76,448.43L281.8,458.11C280.37,458.84,278.68,458.84,277.25,458.11L258.29,448.43C256.86,447.7,255.17,447.7,253.74,448.43L234.77,458.11C233.35,458.84,231.66,458.84,230.23,458.11L211.26,448.43C209.84,447.7,208.14,447.7,206.72,448.43L187.75,458.11C186.32,458.84,184.63,458.84,183.2,458.11L164.24,448.43C162.81,447.7,161.12,447.7,159.69,448.43L145.72,455.56C142.39,457.26,138.45,454.84,138.45,451.11L138.45,43.34C138.45,37.82,142.92,33.34,148.45,33.34L363.55,33.34C369.08,33.34,373.55,37.82,373.55,43.34Z" fill="rgb(255,255,255)" stroke="none" stroke-width="1"/><path id="e17sr2dYa0q9" d="M279.523,463.653C277.962,463.653,276.401,463.29,274.978,462.564L256.013,452.884L237.048,462.564C234.2,464.016,230.801,464.015,227.957,462.564L208.991,452.884L190.025,462.564C187.178,464.016,183.78,464.016,180.934,462.564L161.964,452.884L147.994,460.013C144.869,461.608,141.218,461.466,138.226,459.634C135.234,457.802,133.448,454.614,133.448,451.106L133.448,43.343C133.448,35.072,140.177,28.343,148.448,28.343L197.421,28.343C200.182,28.343,202.421,30.582,202.421,33.343C202.421,36.104,200.182,38.343,197.421,38.343L148.448,38.343C145.691,38.343,143.448,40.586,143.448,43.343L143.448,451.105L157.417,443.976C160.264,442.524,163.663,442.524,166.508,443.976L185.478,453.656L204.444,443.976C207.29,442.523,210.689,442.522,213.537,443.976L232.501,453.655L251.466,443.975C254.312,442.522,257.711,442.521,260.559,443.975L279.523,453.654L298.485,443.975C301.334,442.522,304.732,442.522,307.578,443.975L326.54,453.655L345.498,443.976C348.346,442.523,351.744,442.523,354.59,443.975L368.553,451.102L368.553,257.906C368.553,255.145,370.792,252.906,373.553,252.906C376.314,252.906,378.553,255.145,378.553,257.906L378.553,451.104C378.553,454.612,376.767,457.8,373.775,459.632C370.784,461.464,367.131,461.606,364.007,460.01L350.045,452.883L331.086,462.562C328.24,464.016,324.84,464.017,321.992,462.562L303.031,452.883L284.07,462.562C282.647,463.29,281.085,463.653,279.523,463.653Z" fill="rgb(38,38,188)" stroke="none" stroke-width="1"/></g><g id="e17sr2dYa0q10"><g id="e17sr2dYa0q11"><g id="e17sr2dYa0q12"><g id="e17sr2dYa0q13_ts" transform="translate(169.481,212.904) scale(1,1)"><path id="e17sr2dYa0q13" d="M261,217.904L174.48,217.904C171.718,217.904,169.48,215.665,169.48,212.904C169.48,210.143,171.718,207.904,174.48,207.904L261,207.904C263.762,207.904,266,210.143,266,212.904C266,215.666,263.762,217.904,261,217.904Z" transform="translate(-169.481,-212.904)" fill="rgb(38,38,188)" stroke="none" stroke-width="1"/></g></g><g id="e17sr2dYa0q14"><path id="e17sr2dYa0q15" d="M186,197.873L174.48,197.873C171.718,197.873,169.48,195.634,169.48,192.873C169.48,190.112,171.718,187.873,174.48,187.873L186,187.873C188.762,187.873,191,190.112,191,192.873C191,195.634,188.762,197.873,186,197.873Z" fill="rgb(38,38,188)" stroke="none" stroke-width="1"/></g></g><g id="e17sr2dYa0q16"><g id="e17sr2dYa0q17"><g id="e17sr2dYa0q18_ts" transform="translate(169.481,258.312) scale(1,1)"><path id="e17sr2dYa0q18" d="M281,263.312L174.48,263.312C171.718,263.312,169.48,261.073,169.48,258.312C169.48,255.551,171.718,253.312,174.48,253.312L281,253.312C283.762,253.312,286,255.551,286,258.312C286,261.073,283.762,263.312,281,263.312Z" transform="translate(-169.481,-258.312)" fill="rgb(38,38,188)" stroke="none" stroke-width="1"/></g></g><g id="e17sr2dYa0q19"><path id="e17sr2dYa0q20" d="M186,243.28L174.48,243.28C171.718,243.28,169.48,241.041,169.48,238.28C169.48,235.519,171.718,233.28,174.48,233.28L186,233.28C188.762,233.28,191,235.519,191,238.28C191,241.041,188.762,243.28,186,243.28Z" fill="rgb(38,38,188)" stroke="none" stroke-width="1"/></g></g><g id="e17sr2dYa0q21"><g id="e17sr2dYa0q22"><g id="e17sr2dYa0q23_ts" transform="translate(169.48,303.719) scale(1,1)"><path id="e17sr2dYa0q23" d="M271,308.719L174.48,308.719C171.718,308.719,169.48,306.48,169.48,303.719C169.48,300.958,171.718,298.719,174.48,298.719L271,298.719C273.762,298.719,276,300.958,276,303.719C276,306.48,273.762,308.719,271,308.719Z" transform="translate(-169.48,-303.719)" fill="rgb(38,38,188)" stroke="none" stroke-width="1"/></g></g><g id="e17sr2dYa0q24"><path id="e17sr2dYa0q25" d="M186,288.687L174.48,288.687C171.718,288.687,169.48,286.448,169.48,283.687C169.48,280.926,171.718,278.687,174.48,278.687L186,278.687C188.762,278.687,191,280.926,191,283.687C191,286.449,188.762,288.687,186,288.687Z" fill="rgb(38,38,188)" stroke="none" stroke-width="1"/></g></g><g id="e17sr2dYa0q26"><g id="e17sr2dYa0q27"><g id="e17sr2dYa0q28_ts" transform="translate(169.48,349.127) scale(1,1)"><path id="e17sr2dYa0q28" d="M231,354.127L174.48,354.127C171.718,354.127,169.48,351.888,169.48,349.127C169.48,346.366,171.718,344.127,174.48,344.127L231,344.127C233.762,344.127,236,346.366,236,349.127C236,351.888,233.762,354.127,231,354.127Z" transform="translate(-169.48,-349.127)" fill="rgb(38,38,188)" stroke="none" stroke-width="1"/></g></g><g id="e17sr2dYa0q29"><path id="e17sr2dYa0q30" d="M276.76,354.127L255.24,354.127C252.478,354.127,250.24,351.888,250.24,349.127C250.24,346.366,252.478,344.127,255.24,344.127L276.76,344.127C279.522,344.127,281.76,346.366,281.76,349.127C281.76,351.888,279.522,354.127,276.76,354.127Z" fill="rgb(38,38,188)" stroke="none" stroke-width="1"/></g><g id="e17sr2dYa0q31"><path id="e17sr2dYa0q32" d="M186,334.095L174.48,334.095C171.718,334.095,169.48,331.856,169.48,329.095C169.48,326.334,171.718,324.095,174.48,324.095L186,324.095C188.762,324.095,191,326.334,191,329.095C191,331.856,188.762,334.095,186,334.095Z" fill="rgb(38,38,188)" stroke="none" stroke-width="1"/></g></g><g id="e17sr2dYa0q33"><g id="e17sr2dYa0q34"><g id="e17sr2dYa0q35"><path id="e17sr2dYa0q36" d="M334.616,217.904L318.096,217.904C315.334,217.904,313.096,215.665,313.096,212.904C313.096,210.143,315.334,207.904,318.096,207.904L334.616,207.904C337.378,207.904,339.616,210.143,339.616,212.904C339.616,215.666,337.377,217.904,334.616,217.904Z" fill="rgb(38,38,188)" stroke="none" stroke-width="1"/></g></g><g id="e17sr2dYa0q37"><g id="e17sr2dYa0q38"><path id="e17sr2dYa0q39" d="M334.616,263.312L318.096,263.312C315.334,263.312,313.096,261.073,313.096,258.312C313.096,255.551,315.334,253.312,318.096,253.312L334.616,253.312C337.378,253.312,339.616,255.551,339.616,258.312C339.616,261.073,337.377,263.312,334.616,263.312Z" fill="rgb(38,38,188)" stroke="none" stroke-width="1"/></g></g><g id="e17sr2dYa0q40"><g id="e17sr2dYa0q41"><path id="e17sr2dYa0q42" d="M334.616,308.719L318.096,308.719C315.334,308.719,313.096,306.48,313.096,303.719C313.096,300.958,315.334,298.719,318.096,298.719L334.616,298.719C337.378,298.719,339.616,300.958,339.616,303.719C339.616,306.48,337.377,308.719,334.616,308.719Z" fill="rgb(38,38,188)" stroke="none" stroke-width="1"/></g></g><g id="e17sr2dYa0q43"><g id="e17sr2dYa0q44"><path id="e17sr2dYa0q45" d="M334.616,354.127L318.096,354.127C315.334,354.127,313.096,351.888,313.096,349.127C313.096,346.366,315.334,344.127,318.096,344.127L334.616,344.127C337.378,344.127,339.616,346.366,339.616,349.127C339.616,351.888,337.377,354.127,334.616,354.127Z" fill="rgb(38,38,188)" stroke="none" stroke-width="1"/></g></g></g><g id="e17sr2dYa0q46"><path id="e17sr2dYa0q47" d="M332.961,334.152C330.2,334.152,327.961,331.913,327.961,329.152L327.961,329.037C327.961,326.276,330.2,324.037,332.961,324.037C335.722,324.037,337.961,326.276,337.961,329.037L337.961,329.152C337.961,331.914,335.723,334.152,332.961,334.152Z" fill="rgb(38,38,188)" stroke="none" stroke-width="1"/></g><g id="e17sr2dYa0q48"><g id="e17sr2dYa0q49"><path id="e17sr2dYa0q50" d="M334.616,412L310.476,412C307.714,412,305.476,409.761,305.476,407C305.476,404.239,307.714,402,310.476,402L334.616,402C337.378,402,339.616,404.239,339.616,407C339.616,409.761,337.377,412,334.616,412Z" fill="rgb(38,38,188)" stroke="none" stroke-width="1"/></g></g><g id="e17sr2dYa0q51"><g id="e17sr2dYa0q52"><path id="e17sr2dYa0q53" d="M208.621,412L174.481,412C171.719,412,169.481,409.761,169.481,407C169.481,404.239,171.719,402,174.481,402L208.621,402C211.383,402,213.621,404.239,213.621,407C213.621,409.761,211.382,412,208.621,412Z" fill="rgb(38,38,188)" stroke="none" stroke-width="1"/></g></g><g id="e17sr2dYa0q54"><path id="e17sr2dYa0q55" d="M332.961,288.745C330.2,288.745,327.961,286.506,327.961,283.745L327.961,283.63C327.961,280.869,330.2,278.63,332.961,278.63C335.722,278.63,337.961,280.869,337.961,283.63L337.961,283.745C337.961,286.506,335.723,288.745,332.961,288.745Z" fill="rgb(38,38,188)" stroke="none" stroke-width="1"/></g><g id="e17sr2dYa0q56"><path id="e17sr2dYa0q57" d="M332.961,243.338C330.2,243.338,327.961,241.099,327.961,238.338L327.961,238.223C327.961,235.462,330.2,233.223,332.961,233.223C335.722,233.223,337.961,235.462,337.961,238.223L337.961,238.338C337.961,241.099,335.723,243.338,332.961,243.338Z" fill="rgb(38,38,188)" stroke="none" stroke-width="1"/></g><g id="e17sr2dYa0q58"><path id="e17sr2dYa0q59" d="M332.961,197.93C330.2,197.93,327.961,195.691,327.961,192.93L327.961,192.815C327.961,190.054,330.2,187.815,332.961,187.815C335.722,187.815,337.961,190.054,337.961,192.815L337.961,192.93C337.961,195.691,335.723,197.93,332.961,197.93Z" fill="rgb(1,236,165)" stroke="none" stroke-width="1"/></g></g><g id="e17sr2dYa0q60"><g id="e17sr2dYa0q61"><circle id="e17sr2dYa0q62" r="53.269" transform="matrix(1 0 0 1 373.553 175.043)" fill="rgb(101,131,254)" stroke="none" stroke-width="1"/><path id="e17sr2dYa0q63" d="M378.553,117.002L378.553,43.342C378.553,35.071,371.824,28.342,363.553,28.342L226.673,28.342C223.912,28.342,221.673,30.581,221.673,33.342C221.673,36.103,223.912,38.342,226.673,38.342L363.553,38.342C366.31,38.342,368.553,40.585,368.553,43.342L368.553,117.002C338.757,119.549,315.284,144.599,315.284,175.043C315.284,207.173,341.424,233.312,373.554,233.312C405.684,233.312,431.823,207.173,431.823,175.043C431.822,144.599,408.349,119.548,378.553,117.002ZM373.553,223.312C346.937,223.312,325.283,201.659,325.283,175.043C325.283,148.427,346.937,126.773,373.553,126.773C400.169,126.773,421.822,148.427,421.822,175.043C421.822,201.659,400.169,223.312,373.553,223.312Z" fill="rgb(38,38,188)" stroke="none" stroke-width="1"/></g><path id="e17sr2dYa0q64" d="M380.069,170.043L378.553,170.043L378.553,159.863L388.007,159.863C390.768,159.863,393.007,157.624,393.007,154.863C393.007,152.102,390.768,149.863,388.007,149.863L378.553,149.863L378.553,147.349C378.553,144.588,376.314,142.349,373.553,142.349C370.792,142.349,368.553,144.588,368.553,147.349L368.553,149.863L367.037,149.863C358.716,149.863,351.947,156.632,351.947,164.953C351.947,173.274,358.716,180.043,367.037,180.043L368.553,180.043L368.553,190.223L359.1,190.223C356.339,190.223,354.1,192.462,354.1,195.223C354.1,197.984,356.339,200.223,359.1,200.223L368.553,200.223L368.553,202.737C368.553,205.498,370.792,207.737,373.553,207.737C376.314,207.737,378.553,205.498,378.553,202.737L378.553,200.223L380.069,200.223C388.389,200.223,395.158,193.454,395.158,185.133C395.158,176.812,388.389,170.043,380.069,170.043ZM367.037,170.043C364.23,170.043,361.947,167.76,361.947,164.953C361.947,162.146,364.23,159.863,367.037,159.863L368.553,159.863L368.553,170.043ZM380.069,190.223L378.553,190.223L378.553,180.043L380.069,180.043C382.875,180.043,385.158,182.326,385.158,185.133C385.159,187.939,382.875,190.223,380.069,190.223Z" fill="rgb(38,38,188)" stroke="none" stroke-width="1"/></g><g id="e17sr2dYa0q65"><g id="e17sr2dYa0q66_ts" transform="translate(230.24,153.719) scale(1,1)"><path id="e17sr2dYa0q66" d="M276.76,158.719L235.24,158.719C232.478,158.719,230.24,156.48,230.24,153.719C230.24,150.958,232.478,148.719,235.24,148.719L276.76,148.719C279.522,148.719,281.76,150.958,281.76,153.719C281.76,156.48,279.522,158.719,276.76,158.719Z" transform="translate(-230.24,-153.719)" fill="rgb(38,38,188)" stroke="none" stroke-width="1"/></g></g><g id="e17sr2dYa0q67"><g id="e17sr2dYa0q68_ts" transform="translate(202.74,116.774) scale(1,1)"><path id="e17sr2dYa0q68" d="M304.26,121.774L207.74,121.774C204.978,121.774,202.74,119.535,202.74,116.774C202.74,114.013,204.978,111.774,207.74,111.774L304.26,111.774C307.022,111.774,309.26,114.013,309.26,116.774C309.26,119.535,307.022,121.774,304.26,121.774Z" transform="translate(-202.74,-116.774)" fill="rgb(38,38,188)" stroke="none" stroke-width="1"/></g></g><g id="e17sr2dYa0q69"><g id="e17sr2dYa0q70_ts" transform="translate(176.795335,94.828) scale(1,1)"><path id="e17sr2dYa0q70" d="M329.26,99.828L182.74,99.828C179.978,99.828,177.74,97.589,177.74,94.828C177.74,92.067,179.978,89.828,182.74,89.828L329.26,89.828C332.022,89.828,334.26,92.067,334.26,94.828C334.26,97.589,332.022,99.828,329.26,99.828Z" transform="translate(-176.795335,-94.828)" fill="rgb(38,38,188)" stroke="none" stroke-width="1"/></g></g><g id="e17sr2dYa0q71"><path id="e17sr2dYa0q72" d="M186,77.883L174.48,77.883C171.718,77.883,169.48,75.644,169.48,72.883C169.48,70.122,171.718,67.883,174.48,67.883L186,67.883C188.762,67.883,191,70.122,191,72.883C191,75.644,188.762,77.883,186,77.883Z" fill="rgb(38,38,188)" stroke="none" stroke-width="1"/></g></g><g id="e17sr2dYa0q73"><g id="e17sr2dYa0q74_to" transform="translate(411.180008,67.882751)"><path id="e17sr2dYa0q74" d="M411.18,82.376C407.467,82.376,403.754,80.962,400.927,78.136C395.274,72.483,395.274,63.284,400.927,57.63C406.58,51.976,415.78,51.976,421.433,57.63C427.086,63.284,427.086,72.482,421.433,78.136C418.607,80.962,414.894,82.376,411.18,82.376ZM411.181,63.385C410.028,63.385,408.876,63.823,407.999,64.701C406.245,66.455,406.245,69.31,407.999,71.065C409.753,72.819,412.608,72.82,414.363,71.065C416.117,69.311,416.117,66.456,414.363,64.701C413.485,63.823,412.333,63.385,411.181,63.385Z" transform="translate(-411.180008,-67.882751)" fill="rgb(101,131,254)" stroke="none" stroke-width="1"/></g><g id="e17sr2dYa0q75_to" transform="translate(436.321503,116.773937)"><path id="e17sr2dYa0q75" d="M436.322,131.267C432.609,131.268,428.896,129.854,426.069,127.027C423.33,124.288,421.822,120.647,421.822,116.774C421.822,112.901,423.33,109.26,426.069,106.521C431.721,100.868,440.92,100.867,446.574,106.521C449.313,109.26,450.821,112.901,450.821,116.774C450.821,120.648,449.313,124.289,446.573,127.027C443.749,129.853,440.035,131.267,436.322,131.267ZM436.322,112.276C435.17,112.276,434.017,112.714,433.14,113.592C432.289,114.442,431.822,115.572,431.822,116.774C431.822,117.976,432.29,119.106,433.14,119.956C434.895,121.711,437.75,121.711,439.504,119.956C440.355,119.106,440.822,117.976,440.822,116.774C440.822,115.572,440.354,114.443,439.504,113.592C438.627,112.714,437.475,112.276,436.322,112.276Z" transform="translate(-436.321503,-116.773937)" fill="rgb(101,131,254)" stroke="none" stroke-width="1"/></g><g id="e17sr2dYa0q76_to" transform="translate(105.378998,222.266312)"><path id="e17sr2dYa0q76" d="M105.379,236.759C101.666,236.759,97.952,235.345,95.126,232.519C89.473,226.865,89.473,217.666,95.126,212.013C100.779,206.361,109.979,206.36,115.632,212.013C121.285,217.667,121.285,226.865,115.632,232.519C112.806,235.345,109.092,236.759,105.379,236.759ZM105.379,217.768C104.227,217.768,103.074,218.206,102.197,219.084C100.442,220.838,100.442,223.693,102.197,225.448C103.951,227.203,106.807,227.202,108.561,225.448C110.316,223.694,110.316,220.839,108.561,219.084C107.684,218.206,106.532,217.768,105.379,217.768Z" transform="translate(-105.378998,-222.266312)" fill="rgb(101,131,254)" stroke="none" stroke-width="1"/></g><g id="e17sr2dYa0q77_to" transform="translate(89.433502,271.950516)"><path id="e17sr2dYa0q77" d="M98.933,281.7C97.653,281.7,96.374,281.212,95.397,280.236L89.433,274.272L83.469,280.236C81.516,282.188,78.351,282.188,76.398,280.236C74.445,278.283,74.445,275.117,76.398,273.165L85.898,263.665C87.851,261.713,91.016,261.713,92.969,263.665L102.469,273.165C104.422,275.118,104.422,278.284,102.469,280.236C101.492,281.211,100.213,281.7,98.933,281.7Z" transform="translate(-89.433502,-271.950516)" fill="rgb(101,131,254)" stroke="none" stroke-width="1"/></g><g id="e17sr2dYa0q78_to" transform="translate(417.322495,416.750504)"><path id="e17sr2dYa0q78" d="M426.822,426.5C425.542,426.5,424.263,426.012,423.286,425.036L417.322,419.072L411.358,425.036C409.405,426.988,406.24,426.988,404.287,425.036C402.334,423.083,402.334,419.917,404.287,417.965L413.787,408.465C415.74,406.513,418.905,406.513,420.858,408.465L430.358,417.965C432.311,419.918,432.311,423.084,430.358,425.036C429.381,426.011,428.102,426.5,426.822,426.5Z" transform="translate(-417.322495,-416.750504)" fill="rgb(101,131,254)" stroke="none" stroke-width="1"/></g></g></g></g></svg>