<svg xmlns="http://www.w3.org/2000/svg" version="1.1" id="Layer_1" x="0" y="0" xml:space="preserve" viewBox="-0.01 0.03 33.12 33"><g transform="translate(4.139 4.138)"><circle id="Ellipse_120" fill="#f7931a" cx="12.4" cy="12.4" r="12.5"/><path id="Path_1145" d="M16.7 10.7c.2-1.5-.7-2.9-2.1-3.4l.4-2.6-1.1-.4-.4 2.4-.9-.3L13 4l-1-.3-.4 2.5c-.2-.1-.5-.1-.7-.2l-1.5-.6L9.2 7l.8.3c.4.1.6.5.5.9L9.9 11h.1-.1l-.7 3.9c-.1.2-.2.5-.5.4L8 15l-.5 1.7 1.4.5c.3.1.5.2.8.3L9.3 20l1.1.4.4-2.5c.3.1.6.2.8.3l-.4 2.5 1.1.4.4-2.5c1.8.5 3.2.3 3.8-2 .5-1.9 0-2.9-1-3.6.5-.4 1.1-1 1.2-2.3zm-2.4 4.8c-.3 1.9-2.6.9-3.3.6l.6-3.3c.7.2 3 .7 2.7 2.7zm.3-4.9c-.3 1.7-2.2.8-2.8.6l.5-3c.7.3 2.6.7 2.3 2.4z" fill="#fff"/></g><g transform="translate(-131.193 -261.967)"><path id="Path_1148" fill="#f7931a" d="M158.7 290.4c-.6 0-1-.4-1-1 0-.3.1-.5.3-.7 3.4-3.5 4.9-8.4 4-13.2-.2-.9-.5-1.8-.8-2.7-3.1-7.4-11.6-10.8-19-7.7-.5.2-1.1 0-1.3-.5s0-1.1.5-1.3c1-.4 2-.7 3.1-1 2.2-.4 4.5-.4 6.6 0 2.1.4 4.1 1.3 5.9 2.5 2.7 1.8 4.7 4.3 6 7.3.4 1 .7 2 1 3.1.4 2.2.4 4.5 0 6.6-.4 2.1-1.3 4.1-2.5 5.9-.6.9-1.3 1.7-2 2.4-.3.2-.6.3-.8.3z"/><path id="Path_1149" fill="#f7931a" d="M147.7 295c-1.1 0-2.2-.1-3.3-.3-2.1-.4-4.1-1.3-5.9-2.5-2.7-1.8-4.7-4.3-6-7.3-2.2-5.1-1.6-11 1.5-15.6.6-.9 1.3-1.7 2-2.4.4-.4 1-.4 1.4 0 .4.4.4 1 0 1.4-5.7 5.7-5.7 14.9 0 20.5 1.3 1.3 2.9 2.4 4.6 3.1.9.4 1.8.7 2.7.8 1.9.4 3.9.4 5.8 0 .9-.2 1.8-.5 2.7-.8.5-.2 1.1 0 1.3.5.2.5 0 1.1-.5 1.3-1 .4-2 .7-3.1 1-1 .2-2.1.3-3.2.3z"/></g></svg>