<svg xmlns="http://www.w3.org/2000/svg" xml:space="preserve" viewBox="-0.02 0 33.02 33"><circle fill="#627EEA" cx="12.1" cy="12.1" r="12.5" transform="translate(4.443 4.443)"/><g fill="#627EEA"><path d="M27.5 28.5c-.6 0-1-.4-1-1 0-.3.1-.5.3-.7 3.4-3.5 4.9-8.4 4-13.2-.2-.9-.5-1.8-.8-2.7C26.7 3.5 18.2 0 10.9 3.1c-.5.2-1.1 0-1.3-.5s0-1.1.5-1.3c1-.4 2-.7 3.1-1 2.2-.4 4.5-.4 6.6 0 2.1.4 4.1 1.3 5.9 2.5 2.7 1.8 4.7 4.3 6 7.3.4 1 .7 2 1 3.1.4 2.2.4 4.5 0 6.6-.4 2.1-1.3 4.1-2.5 5.9-.6.9-1.3 1.7-2 2.4-.2.3-.5.4-.7.4zM16.5 33c-1.1 0-2.2-.1-3.3-.3-2.1-.4-4.1-1.3-5.9-2.5-2.7-1.8-4.7-4.3-6-7.3-2.2-5.1-1.6-11 1.5-15.6.6-.9 1.3-1.7 2-2.4.4-.4 1-.4 1.4 0 .4.4.4 1 0 1.4C.5 12 .5 21.2 6.2 26.8c1.3 1.3 2.9 2.4 4.6 3.1.9.4 1.8.7 2.7.8 1.9.4 3.9.4 5.8 0 .9-.2 1.8-.5 2.7-.8.5-.2 1.1 0 1.3.5.2.5 0 1.1-.5 1.3-1 .4-2 .7-3.1 1-1 .2-2.1.3-3.2.3z"/></g><g fill="#FFF"><path fill-opacity=".602" d="M16.6 7.6v6.9l5.8 2.6-5.8-9.5z"/><path d="m16.6 7.6-5.8 9.5 5.8-2.6V7.6z"/><path fill-opacity=".602" d="M16.6 21.6v4.7l5.8-8.1-5.8 3.4z"/><path d="M16.6 26.3v-4.7l-5.8-3.4 5.8 8.1z"/><path fill-opacity=".2" d="m16.6 20.5 5.8-3.4-5.8-2.6v6z"/><path fill-opacity=".602" d="m10.8 17.1 5.8 3.4v-6l-5.8 2.6z"/></g></svg>