<svg xmlns="http://www.w3.org/2000/svg" xml:space="preserve" viewBox="-0.02 0 33.02 33"><g transform="translate(3.726 3.725)"><circle fill="#26A17B" cx="12.8" cy="12.8" r="12.5"/><path fill-rule="evenodd" clip-rule="evenodd" fill="#FFF" d="M14.5 13.8h-3.6c-3.5-.2-6.1-.8-6.1-1.5s2.6-1.4 6.1-1.5v2.4c.2 0 .9.1 1.8.1 1.1 0 1.6 0 1.7-.1v-2.4c3.5.2 6.1.8 6.1 1.5s-2.5 1.4-6 1.5m0-3.3V8.4h4.9V5H6.1v3.3H11v2.2c-4 .2-6.9 1-6.9 2s3 1.8 6.9 2v7h3.5v-7c4-.2 6.9-1 6.9-2s-2.9-1.8-6.9-2"/></g><g fill="#26A17B"><path d="M27.5 28.5c-.6 0-1-.4-1-1 0-.3.1-.5.3-.7 3.4-3.5 4.9-8.4 4-13.2-.2-.9-.5-1.8-.8-2.7C26.7 3.5 18.2 0 10.9 3.1c-.5.2-1.1 0-1.3-.5s0-1.1.5-1.3c1-.4 2-.7 3.1-1 2.2-.4 4.5-.4 6.6 0 2.1.4 4.1 1.3 5.9 2.5 2.7 1.8 4.7 4.3 6 7.3.4 1 .7 2 1 3.1.4 2.2.4 4.5 0 6.6-.4 2.1-1.3 4.1-2.5 5.9-.6.9-1.3 1.7-2 2.4-.2.3-.5.4-.7.4zM16.5 33c-1.1 0-2.2-.1-3.3-.3-2.1-.4-4.1-1.3-5.9-2.5-2.7-1.8-4.7-4.3-6-7.3-2.2-5.1-1.6-11 1.5-15.6.6-.9 1.3-1.7 2-2.4.4-.4 1-.4 1.4 0 .4.4.4 1 0 1.4C.5 12 .5 21.2 6.2 26.8c1.3 1.3 2.9 2.4 4.6 3.1.9.4 1.8.7 2.7.8 1.9.4 3.9.4 5.8 0 .9-.2 1.8-.5 2.7-.8.5-.2 1.1 0 1.3.5.2.5 0 1.1-.5 1.3-1 .4-2 .7-3.1 1-1 .2-2.1.3-3.2.3z"/></g></svg>