<svg xmlns="http://www.w3.org/2000/svg" xml:space="preserve" viewBox="-0.02 0 33.02 33"><g transform="translate(4 4)"><circle fill="#2775C9" cx="12.5" cy="12.5" r="12.5"/><path fill="#FFF" d="M12.3 22.2c-5.4 0-9.8-4.4-9.8-9.8s4.4-9.8 9.8-9.8 9.8 4.4 9.8 9.8c.1 5.4-4.3 9.8-9.8 9.8zm-.5-13.5c-1.1.1-2 1-2.1 2.1 0 1 .6 1.7 1.9 2l.9.2c.9.2 1.3.5 1.3 1s-.6 1-1.5 1c-.6.1-1.2-.2-1.5-.8-.1-.2-.3-.3-.5-.3h-.5c-.2 0-.3.2-.2.3.2 1 1.1 1.7 2.2 1.7v.7c0 .3.2.6.6.6.3 0 .6-.2.6-.6V16c1.2 0 2.2-1 2.2-2.2 0-1.1-.6-1.7-2.1-2l-.8-.2c-.8-.2-1.2-.5-1.2-1s.5-1 1.3-1c.5-.1 1.1.2 1.3.7.1.2.3.4.6.4h.4c.2 0 .3-.2.3-.4-.2-.9-1-1.6-2-1.7v-.5c0-.3-.3-.6-.6-.6s-.6.3-.6.6v.6zM5 12.3c0 3.2 2 6 5 7h.1c.2 0 .4-.2.4-.4v-.2c0-.3-.2-.6-.5-.7-3.2-1.3-4.7-4.9-3.4-8 .6-1.5 1.8-2.8 3.4-3.4.3-.1.5-.4.5-.7v-.2c0-.2-.2-.4-.3-.4h-.1C7 6.4 5 9.2 5 12.3zm14.7 0c0-3.2-2-6-5-7h-.1c-.2 0-.4.2-.4.4v.1c0 .3.2.6.5.8 3.2 1.3 4.7 4.9 3.4 8-.6 1.5-1.9 2.8-3.4 3.4-.3.1-.5.4-.5.7v.3c0 .2.2.4.4.4h.1c3-1.1 5-3.9 5-7.1z"/></g><g fill="#2775C9"><path d="M27.5 28.5c-.6 0-1-.4-1-1 0-.3.1-.5.3-.7 3.4-3.5 4.9-8.4 4-13.2-.2-.9-.5-1.8-.8-2.7C26.7 3.5 18.2 0 10.9 3.1c-.5.2-1.1 0-1.3-.5s0-1.1.5-1.3c1-.4 2-.7 3.1-1 2.2-.4 4.5-.4 6.6 0 2.1.4 4.1 1.3 5.9 2.5 2.7 1.8 4.7 4.3 6 7.3.4 1 .7 2 1 3.1.4 2.2.4 4.5 0 6.6-.4 2.1-1.3 4.1-2.5 5.9-.6.9-1.3 1.7-2 2.4-.2.3-.5.4-.7.4zM16.5 33c-1.1 0-2.2-.1-3.3-.3-2.1-.4-4.1-1.3-5.9-2.5-2.7-1.8-4.7-4.3-6-7.3-2.2-5.1-1.6-11 1.5-15.6.6-.9 1.3-1.7 2-2.4.4-.4 1-.4 1.4 0 .4.4.4 1 0 1.4C.5 12 .5 21.2 6.2 26.8c1.3 1.3 2.9 2.4 4.6 3.1.9.4 1.8.7 2.7.8 1.9.4 3.9.4 5.8 0 .9-.2 1.8-.5 2.7-.8.5-.2 1.1 0 1.3.5.2.5 0 1.1-.5 1.3-1 .4-2 .7-3.1 1-1 .2-2.1.3-3.2.3z"/></g></svg>