<svg xmlns="http://www.w3.org/2000/svg" xml:space="preserve" viewBox="1.1 1.1 397.8 397.8"><circle fill="#1044B6" cx="200" cy="200" r="198.9"/><path fill="#FFF" d="M200 81.1c-68 0-123.3 53.3-123.3 118.8 0 71.2 49.6 119 123.3 119 73.8 0 123.3-47.8 123.3-119C323.4 134.4 268 81.1 200 81.1zm50.7 208.7c-12.8 5.1-28.9 5.8-49.1 5.8-20.5 0-36.9-.8-50.1-6-38.9-15.4-52.8-49.8-52.8-81.9 0-32.7 1.9-62.6 44.9-74.1 13.6-3.6 33-3.7 56.5-3.7 22.9 0 41.8 0 55.2 3.5 44 11.4 46.1 41.4 46.1 74.3-.1 32.2-12.3 66.8-50.7 82.1zm96.4-100.6c0-12.3-13.4-18.9-17.8-20.7 2.7 10.3 4 20.8 4 31.4 0 14.2-1.9 27.8-5.6 40.5 11.2-1.1 17.6-9.6 19.4-15.7 1.9-6.5 0-20.7 0-35.5zM66.7 199.9c0-10.6 1.4-21.2 4-31.4-4.5 1.8-17.8 8.3-17.8 20.7 0 14.8-1.9 29 0 35.5 1.8 6.1 8.2 14.6 19.4 15.7-3.7-12.7-5.6-26.3-5.6-40.5z"/><path fill="#FFF" d="M237.7 138.7c-16.9 0-31.4 10.4-37.7 25.2-6.2-14.8-20.8-25.2-37.7-25.2-22.6 0-40.9 18.5-40.9 41.3 0 22.8 18.3 41.3 40.9 41.3.5 0 .9-.1 1.4-.1-3.4 9.8-5.3 19.6-5.3 27 0 22.8 18.3 41.3 40.9 41.3 22.6 0 40.9-18.5 40.9-41.3 0-7.4-2-17.3-5.4-27.1.9.1 1.8.3 2.8.3 22.6 0 40.9-18.5 40.9-41.3.1-22.9-18.2-41.4-40.8-41.4zm-30.8 82.7c2.3 0 4.1 1.9 4.1 4.1s-1.8 4.1-4.1 4.1-4.1-1.9-4.1-4.1 1.9-4.1 4.1-4.1zm-14.5 0c2.3 0 4.1 1.9 4.1 4.1s-1.8 4.1-4.1 4.1-4.1-1.9-4.1-4.1 1.8-4.1 4.1-4.1zm-29.6-22.7c-10.1 0-18.2-8.3-18.2-18.4 0-10.2 8.2-18.4 18.2-18.4 10.1 0 18.2 8.3 18.2 18.4s-8.1 18.4-18.2 18.4zm36.5 75c-15.2 0-27.5-11.1-27.5-26.4 0 0 13.8 6.1 27.5 6.1s27.5-6.1 27.5-6.1c.1 15.3-12.3 26.4-27.5 26.4zm39.4-75c-10.1 0-18.2-8.3-18.2-18.4 0-10.2 8.2-18.4 18.2-18.4 10.1 0 18.2 8.3 18.2 18.4s-8.1 18.4-18.2 18.4z"/></svg>