<?xml version="1.0" encoding="utf-8"?>
<!-- Generator: Adobe Illustrator 28.2.0, SVG Export Plug-In . SVG Version: 6.00 Build 0)  -->
<svg version="1.1" id="Layer_1" xmlns="http://www.w3.org/2000/svg" xmlns:xlink="http://www.w3.org/1999/xlink" x="0px" y="0px"
	 viewBox="0 0 586 586" style="enable-background:new 0 0 586 586;" xml:space="preserve">
<style type="text/css">
	.st0{fill:#0070E0;}
	.st1{fill:#FFFFFF;}
</style>
<circle class="st0" cx="293" cy="293" r="293"/>
<path class="st1" d="M338.91,128H228.5c-12.23,0-19.25,10.19-19.82,17.55l-6.79,45.86h-34.54c-7.36,0-14.72,7.25-14.72,15.85
	c0,8.61,7.36,16.42,14.72,16.42h28.88l-4.53,32.84h-35.11c-7.93,0-13.59,6.68-13.59,15.29c0,8.61,6.23,15.85,13.59,15.85h30.01
	c-7.36,44.17-20.31,135.9-22.08,148.92c-1.7,12.46,10.19,20.84,16.99,20.95c16.66,0.28,46.14,0.15,65.46,0.06h0h0.02
	c6.72-0.03,12.2-0.06,15.48-0.06c10.76,0,18.12-10.19,19.25-15.85l14.72-90.59h47c24.35,0,99.09-31.82,99.09-111.54
	C442.53,159.82,369.49,128,338.91,128z M229.63,224.82h100.22c6.23,0,15.29,3.62,15.29,15.85c0,12.23-9.63,16.42-15.29,16.42H225.1
	L229.63,224.82z M410.25,240.11c-1.36,55.26-48.13,79.84-71.34,79.84h-53.22c-6.23,0-16.99,3.96-19.25,15.29
	c-2.26,11.32-11.14,65.49-15.29,91.16h-52.09l20.95-137.02h109.85c16.99,0,45.52-13.48,46.43-47c0.91-33.52-29.44-50.39-46.43-50.39
	h-94.56l3.96-30.58h99.65C357.6,160.84,411.61,184.85,410.25,240.11z"/>
</svg>
