<svg xmlns="http://www.w3.org/2000/svg" xml:space="preserve" viewBox="0 0 24.88 24.88"><path d="M24.88 12.44c0 6.87-5.57 12.44-12.44 12.44S0 19.31 0 12.44C0 5.57 5.57 0 12.44 0c6.87 0 12.44 5.57 12.44 12.44" fill="#020100"/><path d="M20.23 9.2c-.7-.49-1.45-1.02-2.19-1.54a.219.219 0 0 1-.05-.03c-.09-.07-.19-.13-.29-.17h-.01c-1.97-.47-3.96-.96-5.9-1.43-1.75-.43-3.5-.86-5.26-1.28l-.13-.04c-.16-.04-.35-.09-.54-.07-.05.01-.11.03-.15.06l-.05.04c-.06.06-.11.14-.14.22l-.01.03v.19l.01.03c1.11 3.11 2.25 6.26 3.34 9.31.85 2.35 1.72 4.78 2.58 7.17.05.16.2.27.39.28h.04c.17 0 .32-.08.41-.22l3.22-4.69 2.35-3.43.96-1.4c.53-.77 1.07-1.57 1.61-2.34l.03-.04v-.06c.01-.14.01-.44-.22-.59m-3.77 1.71c-.76.39-1.53.8-2.3 1.2l1.36-1.45c.56-.61 1.15-1.24 1.73-1.86l.01-.01c.05-.06.11-.13.17-.19l.14-.14c.3.21.6.42.9.62.21.15.43.3.65.45-.9.46-1.8.92-2.66 1.38m-1.94-.2c-.58.63-1.18 1.27-1.78 1.91-1.16-1.4-2.34-2.83-3.48-4.21L7.69 6.54c-.12-.14-.24-.29-.35-.42-.07-.1-.15-.19-.23-.28.47.12.94.24 1.41.35.41.1.84.2 1.26.3l7.07 1.72c-.78.84-1.57 1.69-2.33 2.5m-2.05 7.92c.05-.43.09-.86.13-1.3.04-.34.07-.7.11-1.03.06-.54.12-1.1.17-1.65l.01-.1c.04-.35.08-.71.1-1.07.05-.03.1-.05.15-.07.06-.03.12-.05.18-.09l2.82-1.47c.94-.49 1.9-.99 2.85-1.49-.87 1.25-1.73 2.51-2.59 3.77-.73 1.06-1.47 2.15-2.22 3.23-.29.43-.6.87-.89 1.29-.32.47-.66.95-.98 1.44.06-.49.11-.98.16-1.46M6.81 6.8c-.05-.15-.11-.3-.16-.44 1.1 1.32 2.2 2.66 3.28 3.95.56.67 1.11 1.34 1.67 2.01.11.13.22.26.32.39.14.17.28.34.43.51-.05.42-.09.84-.13 1.25l-.09.86c-.01.18-.04.36-.06.54l-.09.81v.03c-.07.82-.16 1.65-.25 2.45-.04.33-.07.67-.11 1.01l-.06-.18c-.06-.16-.12-.33-.18-.5l-.44-1.21C9.57 14.46 8.19 10.63 6.81 6.8" fill="#fff"/></svg>