<?xml version="1.0" encoding="utf-8"?>
<!-- Generator: Adobe Illustrator 27.0.0, SVG Export Plug-In . SVG Version: 6.00 Build 0)  -->
<svg version="1.1" id="Layer_1" xmlns="http://www.w3.org/2000/svg" xmlns:xlink="http://www.w3.org/1999/xlink" x="0px" y="0px"
	 viewBox="0 0 32 32" enable-background="new 0 0 32 32" xml:space="preserve">
<g>
	<path fill="#009A3F" d="M17.2,17.1v4.2c1.6-0.1,2.4-0.9,2.4-2C19.6,18.3,19.1,17.6,17.2,17.1z"/>
	<path fill="#009A3F" d="M13,11.7c0,1,0.5,1.6,2.3,2.1V9.7C13.8,9.8,13,10.6,13,11.7z"/>
	<path fill="#009A3F" d="M16,0C7.2,0,0,7.2,0,16s7.2,16,16,16s16-7.2,16-16S24.8,0,16,0z M17.3,23.7V26h-2.1v-2.3
		c-2.1-0.2-4.1-1-5.7-2.3l1.6-2.1c1.4,1.1,2.7,1.8,4.3,2v-4.6c-3.5-0.9-5.2-2.2-5.2-4.8c0-2.5,2.1-4.3,5.1-4.5V6h2.1v1.4
		C19,7.6,20.6,8.2,22,9.2l-1.4,2.2c-1.1-0.8-2.2-1.3-3.3-1.5v4.4c3.6,0.9,5.2,2.3,5.2,4.9S20.4,23.5,17.3,23.7z"/>
</g>
</svg>
