<svg xmlns="http://www.w3.org/2000/svg" xml:space="preserve" viewBox="0 0 32 32"><circle fill="#2775C9" cx="16" cy="16" r="16"/><path fill="#FFF" d="M15.8 27.5C9.3 27.5 4 22.2 4 15.8S9.3 4 15.8 4s11.8 5.3 11.8 11.8c-.1 6.4-5.4 11.7-11.8 11.7zm-.7-16.1c-1.3.1-2.4 1.1-2.4 2.5 0 1.2.7 2 2.3 2.3l1.1.3c1.1.2 1.5.6 1.5 1.2s-.8 1.2-1.8 1.2c-.7.1-1.4-.3-1.8-.9-.1-.2-.3-.4-.6-.4h-.6c-.2 0-.3.2-.3.4.3 1.2 1.4 2.1 2.6 2.1v.8c0 .4.3.7.7.7.4 0 .7-.3.7-.7V20c1.4 0 2.6-1.2 2.6-2.6 0-1.3-.7-2-2.5-2.4l-1-.2c-1-.2-1.5-.6-1.5-1.1s.6-1.2 1.6-1.2c.6-.1 1.3.3 1.6.8.1.3.4.5.7.5h.5c.2-.1.4-.3.3-.5-.3-1.1-1.2-1.9-2.4-2v-.7c0-.4-.3-.7-.7-.7-.4 0-.7.3-.7.7 0 0 0 .8.1.8zm-8.2 4.4c0 3.8 2.4 7.1 6 8.3h.1c.2 0 .4-.2.4-.5v-.2c0-.4-.2-.7-.6-.9C9.2 21 7.4 16.7 8.9 13c.7-1.9 2.2-3.3 4.1-4.1.4-.1.6-.5.6-.9v-.2c0-.2-.2-.4-.4-.4h-.1C9.4 8.6 6.9 12 6.9 15.8zm17.7 0c0-3.8-2.4-7.1-6-8.3h-.1c-.3 0-.5.2-.5.5v.2c0 .4.2.7.6.9 3.8 1.5 5.6 5.8 4.1 9.6-.7 1.8-2.2 3.3-4.1 4.1-.4.2-.6.5-.6.9v.2c0 .3.2.5.5.5h.1c3.6-1.5 6-4.9 6-8.6z"/></svg>