<svg xmlns="http://www.w3.org/2000/svg" xml:space="preserve" viewBox="0 0 32 32"><g fill-rule="evenodd" clip-rule="evenodd" fill="#F7931A"><path d="m16.2 11.3-.9 3.5c1 .2 4 1.2 4.5-.7.5-2.1-2.7-2.6-3.6-2.8zm-1.3 5.1-1 3.8c1.2.3 4.8 1.5 5.3-.7.6-2.2-3.2-2.8-4.3-3.1z"/><path d="M16 0C7.2 0 0 7.2 0 16s7.2 16 16 16 16-7.2 16-16S24.8 0 16 0zm7.2 14c-.2 1.5-1.1 2.3-2.2 2.5 1.6.8 2.3 2 1.6 4.2-.9 2.7-3.1 2.9-6.1 2.3l-.7 2.9-1.8-.4.7-2.8c-.4-.1-.9-.2-1.4-.4l-.7 2.8-1.7-.4.7-2.9-1.2-.3-2.2-.5.8-2 1.3.3c.5.1.7-.2.8-.4l1.1-4.5h.2c-.1 0-.1 0-.2-.1l.8-3.2c0-.4-.1-.8-.8-1l-1.3-.3.5-1.8 2.4.6c.4.1.7.2 1.1.3l.7-2.9 1.7.4-.7 2.8c.5.1.9.2 1.4.3l.7-2.8 1.7.4-.7 2.9c2.2.8 3.8 1.9 3.5 4z"/></g></svg>