<svg xmlns="http://www.w3.org/2000/svg" xml:space="preserve" viewBox="0 66 512 380"><path d="M0 248v14c0 36 67 67 148 67 14 0 28 0 42-3V183c-14-3-28-3-42-3-81 0-148 31-148 68zm3 61c-3 6-3 9-3 14v14c0 37 67 67 148 67 14 0 28 0 42-3v-41c-14 2-28 2-42 2-70 0-131-22-145-53zM364 66c-81 0-149 31-149 67v14c0 36 68 67 149 67s148-31 148-67v-14c0-36-64-67-148-67zm0 182c-73 0-132-23-146-54-3 6-3 9-3 14v14c0 37 68 68 149 68s148-31 148-68v-14c0-5 0-8-3-14-14 31-73 54-145 54zm0 75c-73 0-132-22-146-53-3 6-3 8-3 14v14c0 36 68 67 149 67s148-31 148-67v-14c0-6 0-8-3-14-14 31-73 53-145 53zm0 81c-73 0-132-22-146-53-3 6-3 9-3 14v14c0 36 68 67 149 67s148-31 148-67v-14c0-5 0-8-3-14-14 31-73 53-145 53z"/></svg>