<svg xmlns="http://www.w3.org/2000/svg" xml:space="preserve" viewBox="8 0 496.09 512"><path d="M443 422c3-1 5-2 8-1 2 0 3 2 3 5s-2 6-5 9c-2 3-6 8-12 13s-15 12-27 19c-13 8-26 15-41 21-14 7-32 12-53 17-22 5-44 7-66 7-23 0-45-3-68-9s-43-13-60-22c-17-8-33-18-49-29-16-12-28-22-38-30-9-9-17-18-24-25-1-2-2-4-3-5 0-2 0-3 1-4l2-2h3c1 0 2 0 3 1 37 22 66 38 86 48 74 33 150 42 228 25 37-7 74-20 112-38zm59-33c2 3 3 10 1 20s-4 20-8 29c-7 16-15 28-24 35-4 3-6 4-8 3s-2-3 0-7c4-8 8-20 13-35 4-14 5-24 2-28-1-1-3-2-5-3s-4-1-7-2h-9c-2-1-6-1-10 0h-9c-2 0-5 1-9 1s-6 1-6 1h-7c-1 0-2 0-2 1-1 0-2 0-2-1h-5v-1c-1-3 3-7 13-11 10-5 20-8 30-9 8-1 19-1 31 0 11 1 19 3 21 7zM390 262c0 6 1 12 4 19 2 6 5 11 9 16 3 5 7 9 10 13 4 4 7 7 10 9l4 4-65 64c-8-7-15-15-23-22-7-7-13-13-16-17l-6-5c-2-3-4-6-7-10-7 11-17 21-28 29-11 9-23 15-36 19-13 3-27 6-40 6-14 1-27-1-40-6-12-4-23-11-33-19-10-7-18-18-24-32-6-13-9-29-9-46 0-16 3-31 8-44 6-14 12-25 21-34 8-8 18-16 30-23s24-13 35-17c12-3 24-7 37-9 14-3 25-5 35-6 9-1 18-1 28-2v-36c0-12-2-21-6-28-6-10-18-15-35-15-1 0-2 0-4 1-2 0-6 1-12 3s-11 5-16 8c-5 4-10 10-16 17-6 8-10 17-14 28l-84-8c0-11 3-23 7-34s10-22 19-32c8-10 19-19 31-27s26-14 43-19 35-7 54-7 37 2 52 7c16 5 28 11 37 18s17 15 23 23c6 9 11 17 13 25 3 8 4 15 4 21zm-192 6c0 17 6 29 20 38 12 9 26 11 39 7 16-5 27-17 33-36 3-8 4-18 4-28v-47c-11 1-22 2-32 4s-20 5-30 9c-11 5-19 12-25 21s-9 20-9 32z"/></svg>