<svg xmlns="http://www.w3.org/2000/svg" xml:space="preserve" viewBox="40 28 432 456"><path d="m418 385-7 5c-17 13-34 24-50 31-29 13-61 20-95 20-49 0-91-14-126-44-39-33-58-78-58-135 0-51 16-95 50-131 36-41 85-61 146-61 33 0 63 8 89 22 42 24 63 62 63 115 0 36-7 65-23 87-15 22-31 33-46 33-8 0-14-3-18-8-3-5-5-10-5-16 0-4 1-8 2-13s3-13 5-23l35-126h-51l-9 37c-3-12-8-22-16-30-11-12-25-17-44-17-32 0-59 15-81 46-22 30-33 63-33 98 0 31 8 54 22 71 15 17 32 25 54 25 21 0 39-7 55-22 8-8 16-20 22-34v10c0 11 4 22 13 32s22 15 38 15c32 0 60-16 85-47 24-32 37-70 37-114 0-56-20-101-59-135-37-32-83-48-139-48-70 0-126 24-171 71-42 44-63 98-63 162 0 57 17 106 51 147 41 51 98 76 172 76 32 0 63-6 92-17 30-11 57-28 83-49 0 0 12-11 5-27s-21-9-25-6zM286 281c-12 32-28 47-47 47-11 0-19-4-25-13-6-8-9-20-9-34 0-24 7-48 20-73s29-38 48-38c10 0 17 4 23 11 5 7 8 15 8 26 0 18-6 43-18 74z"/></svg>