<svg xmlns="http://www.w3.org/2000/svg" viewBox="0 0 33.01 33"><g data-name="BB confirmed" fill="#3265ee"><path data-name="Path 1148" d="M27.46 28.459a1 1 0 0 1-.707-1.707 14.527 14.527 0 0 0 3.952-13.177 14.4 14.4 0 0 0-.843-2.721 14.512 14.512 0 0 0-19-7.717 1 1 0 1 1-.779-1.842 16.355 16.355 0 0 1 3.1-.961 16.687 16.687 0 0 1 6.649 0 16.383 16.383 0 0 1 5.9 2.483 16.547 16.547 0 0 1 5.977 7.258 16.348 16.348 0 0 1 .961 3.1 16.615 16.615 0 0 1 0 6.649 16.382 16.382 0 0 1-2.483 5.9 16.566 16.566 0 0 1-2.014 2.442 1 1 0 0 1-.713.293Z"/><path data-name="Path 1149" d="M16.5 32.998a16.579 16.579 0 0 1-3.324-.335 16.425 16.425 0 0 1-5.9-2.483 16.569 16.569 0 0 1-5.977-7.258 16.476 16.476 0 0 1 1.522-15.65 16.733 16.733 0 0 1 2.013-2.441 1 1 0 1 1 1.415 1.414 14.509 14.509 0 0 0 4.609 23.614 14.464 14.464 0 0 0 2.721.845 14.72 14.72 0 0 0 5.847 0 14.432 14.432 0 0 0 2.72-.845 1 1 0 0 1 .779 1.842 16.3 16.3 0 0 1-3.1.962 16.6 16.6 0 0 1-3.325.335Z"/><path data-name="Path 1154" d="M25.444 10.294a1.126 1.126 0 0 0-1.592 0L13.829 20.317l-4.672-4.672a1.126 1.126 0 1 0-1.592 1.592l5.468 5.468a1.126 1.126 0 0 0 1.592 0l10.819-10.819a1.126 1.126 0 0 0 0-1.592Z"/></g></svg>