<svg xmlns="http://www.w3.org/2000/svg" xml:space="preserve" viewBox="-0.18 118 512.18 276.13"><path d="M512 255c-1-35-15-64-42-86-25-21-55-32-86-39-42-10-85-12-128-12-13 0-26 0-38 1-25 1-50 3-75 8-33 6-64 16-92 35-27 19-43 43-49 75-5 27-1 52 8 77 12 33 35 56 68 68 22 9 46 12 70 12s45-7 64-22c10-8 18-17 28-24 11-8 20-8 31-1 7 5 13 11 20 17 16 15 33 26 55 29 29 3 56 0 83-9 33-11 56-31 70-62 10-22 13-44 13-67zm-374 49c-36 0-65-35-65-35s29-35 65-35 66 35 66 35-30 35-66 35zm247 0c-36 0-65-35-65-35s29-35 65-35 66 35 66 35-30 35-66 35z"/></svg>