<svg xmlns="http://www.w3.org/2000/svg" xml:space="preserve" viewBox="18 37 475 402"><path d="M421 266v91c0 22-8 42-25 58-16 16-35 24-58 24H101c-23 0-42-8-59-24-16-16-24-36-24-58V119c0-23 8-42 24-58 17-16 36-24 59-24h237c12 0 23 2 34 7 3 1 4 3 5 6 0 4 0 6-3 9l-14 14c-2 1-4 2-6 2h-3c-4-1-9-2-13-2H101c-13 0-24 5-33 14s-13 19-13 32v238c0 12 4 23 13 32s20 13 33 13h237c13 0 24-4 33-13s13-20 13-32v-73c0-2 1-5 3-6l18-19c2-1 4-2 6-2h4c4 2 6 5 6 9zm66-140L254 359c-5 4-10 6-16 6-7 0-12-2-17-6L99 236c-5-5-7-10-7-17 0-6 2-11 7-16l31-31c5-5 10-7 16-7 7 0 12 2 17 7l75 75L423 62c4-5 10-7 16-7s12 2 16 7l32 31c4 5 6 10 6 17 0 6-2 11-6 16z"/></svg>