<svg xmlns="http://www.w3.org/2000/svg" xml:space="preserve" viewBox="37 37 438 438"><path d="M256 73c-25 0-48 5-71 15-23 9-42 22-58 39-17 16-30 35-39 58-10 23-15 46-15 71s5 48 15 71c9 23 22 42 39 58 16 17 35 30 58 39 23 10 46 15 71 15s48-5 71-15c23-9 42-22 58-39 17-16 30-35 39-58 10-23 15-46 15-71s-5-48-15-71c-9-23-22-42-39-58-16-17-35-30-58-39-23-10-46-15-71-15zm219 183c0 40-9 77-29 110-20 34-46 60-80 80-33 20-70 29-110 29s-77-9-110-29c-34-20-60-46-80-80-20-33-29-70-29-110s9-77 29-110c20-34 46-60 80-80 33-20 70-29 110-29s77 9 110 29c34 20 60 46 80 80 20 33 29 70 29 110z"/></svg>