<svg xmlns="http://www.w3.org/2000/svg" xml:space="preserve" viewBox="0 0 512 512"><path d="M475 466V155c0-2 0-4-2-6s-4-3-7-3H155c-2 0-4 1-6 3s-3 4-3 6v311c0 3 1 5 3 7s4 2 6 2h311c3 0 5 0 7-2s2-4 2-7zm37-311v311c0 13-4 24-13 33s-20 13-33 13H155c-12 0-23-4-32-13s-13-20-13-33V155c0-12 4-23 13-32s20-13 32-13h311c13 0 24 4 33 13s13 20 13 32zM402 46v45h-36V46c0-3-1-5-3-7s-4-2-6-2H46c-3 0-5 0-7 2s-2 4-2 7v311c0 2 0 4 2 6s4 3 7 3h45v36H46c-13 0-24-4-33-13S0 369 0 357V46c0-13 4-24 13-33S33 0 46 0h311c12 0 23 4 32 13s13 20 13 33z"/></svg>