<svg xmlns="http://www.w3.org/2000/svg" xml:space="preserve" viewBox="48 48 416 416"><path d="M256 48C141 48 48 141 48 256s93 208 208 208 208-93 208-208S371 48 256 48zm0 17c105 0 191 86 191 191 0 47-17 89-45 122-20-8-66-24-93-32-2-1-2-1-2-11 0-8 3-16 6-23 4-7 8-20 10-31 4-5 10-15 13-33 3-17 2-22 0-28 0-1-1-1-1-2-1-3 0-23 3-38 2-11 0-33-15-52-9-11-26-26-58-28h-18c-31 2-48 17-58 28-14 19-17 41-15 52 3 15 4 35 3 38v2c-2 6-4 12-1 28 4 18 10 28 14 33 2 11 6 24 9 31 3 6 4 13 4 24 0 10 0 10-3 11-28 8-72 24-90 32-28-34-45-76-45-123 0-105 86-191 191-191z"/></svg>