<?xml version="1.0" encoding="utf-8"?>
<!-- Generator: Adobe Illustrator 24.1.2, SVG Export Plug-In . SVG Version: 6.00 Build 0)  -->
<svg version="1.1" id="Layer_1" xmlns="http://www.w3.org/2000/svg" xmlns:xlink="http://www.w3.org/1999/xlink" x="0px" y="0px"
	 viewBox="0 0 49.4 49.9" style="enable-background:new 0 0 49.4 49.9;" xml:space="preserve">
<g>
	<path fill="none" stroke="#204EE9" stroke-width="2" stroke-linecap="round" stroke-linejoin="round" stroke-miterlimit="10" d="M40.1,18.3l8.2,5.6v21.5c0,1.7-1.4,3.1-3.1,3.1H4.3c-1.7,0-3.1-1.4-3.1-3.1V23.9l8.2-5.6"/>
	<polyline fill="none" stroke="#204EE9" stroke-width="2" stroke-linecap="round" stroke-linejoin="round" stroke-miterlimit="10" points="7.3,42.3 17.6,34.1 31.9,34.1 42.1,42.3 	"/>
	<line fill="none" stroke="#204EE9" stroke-width="2" stroke-linecap="round" stroke-linejoin="round" stroke-miterlimit="10" x1="48.3" y1="23.9" x2="36" y2="32.1"/>
	<line fill="none" stroke="#204EE9" stroke-width="2" stroke-linecap="round" stroke-linejoin="round" stroke-miterlimit="10" x1="1.2" y1="23.9" x2="13.5" y2="32.1"/>
	<polyline fill="none" stroke="#204EE9" stroke-width="2" stroke-linecap="round" stroke-linejoin="round" stroke-miterlimit="10" points="40.1,29.4 40.1,1.4 9.4,1.4 9.4,29.4 	"/>
	<g>
		<path fill="#204EE9" d="M16.3,10.6v2l1.9-0.7l0.5,1.4L16.8,14l1.2,1.6l-1.2,0.9l-1.2-1.7l-1.2,1.7l-1.2-0.9l1.2-1.6l-1.9-0.7l0.5-1.4
			l1.9,0.7v-2H16.3z"/>
		<path fill="#204EE9" d="M25.5,10.6v2l1.9-0.7l0.5,1.4L25.9,14l1.2,1.6l-1.2,0.9l-1.2-1.7l-1.2,1.7l-1.2-0.9l1.2-1.6l-1.9-0.7l0.5-1.4
			l1.9,0.7v-2H25.5z"/>
		<path fill="#204EE9" d="M34.7,10.6v2l1.9-0.7l0.5,1.4L35.1,14l1.2,1.6l-1.2,0.9l-1.2-1.7l-1.2,1.7l-1.2-0.9l1.2-1.6l-1.9-0.7l0.5-1.4
			l1.9,0.7v-2H34.7z"/>
	</g>
</g>
</svg>
