<svg xmlns="http://www.w3.org/2000/svg" xml:space="preserve" viewBox="-0.25 0 512.5 475"><path d="M293 393v-54c0-3-1-5-3-7s-4-3-7-3h-54c-3 0-5 1-7 3s-3 4-3 7v54c0 3 1 5 3 7 2 1 4 2 7 2h54c3 0 5-1 7-2 2-2 3-4 3-7zm-1-107 5-131c0-2-1-4-3-6s-4-3-7-3h-62c-3 0-5 1-7 3s-3 4-3 6l5 131c0 2 1 3 3 5 1 1 4 2 6 2h53c3 0 5-1 7-2 2-2 3-3 3-5zm-4-267 219 402c7 12 7 24 0 36-3 6-8 10-13 14-6 3-12 4-19 4H37c-7 0-13-1-19-4-5-4-10-8-13-14-7-12-7-24 0-36L224 19c3-6 8-10 13-14 6-3 12-5 19-5s13 2 19 5c5 4 10 8 13 14z"/></svg>