<svg xmlns="http://www.w3.org/2000/svg" xml:space="preserve" viewBox="0 0 512 512"><path d="M485 110c7 0 14 2 19 8 5 5 8 12 8 19v348c0 7-3 14-8 19s-12 8-19 8H210c-7 0-14-3-19-8s-8-12-8-19v-83H27c-7 0-14-2-19-8-5-5-8-12-8-19V183c0-8 2-16 6-25s8-17 13-22L136 19c5-5 13-9 22-13s17-6 25-6h119c7 0 14 3 19 8s8 12 8 19v94c13-7 25-11 37-11zm-156 61-85 85h85zM146 61l-85 85h85zm56 185 91-91V37H183v118c0 8-3 15-8 20s-12 8-20 8H37v183h146v-73c0-8 2-16 6-26 3-9 8-16 13-21zm273 229V146H366v119c0 8-3 14-8 20-6 5-12 8-20 8H219v182z"/></svg>