<svg xmlns="http://www.w3.org/2000/svg" xml:space="preserve" viewBox="18 -0.35 476 515.35"><path d="M234 294H63c-6 0-8 3-8 8v137c0 39 33 73 72 73h107c2 0 5-3 5-6V297c-3-3-3-3-5-3zm204-165h-48s-3 0-3-3c23-39 12-90-27-112-34-22-79-14-104 17-28-37-81-42-115-11-33 25-42 70-19 106v3H74c-31 0-56 25-56 56v19c0 31 25 56 56 56h160c2 0 5-3 5-5V129h-47c-26 0-45-20-48-45 0-25 20-48 45-48 25-2 47 17 47 42v48h37V81c0-25 19-45 45-45 25 0 44 20 44 45s-19 45-44 45h-42v126c0 3 2 5 5 5h157c31 0 56-25 56-56v-19c0-28-25-53-56-53zm11 165H278c-2 0-5 3-5 5v210c0 3 3 6 5 6h107c39 0 72-34 72-73V305c0-8-2-11-8-11z"/></svg>