<svg xmlns="http://www.w3.org/2000/svg" xml:space="preserve" viewBox="0 98 506 319"><path d="M451 98H55c-30 1-55 25-55 55v209c0 30 25 55 55 55h396c30 0 55-25 55-55V153c0-30-25-54-55-55zM55 125h396c16 0 29 13 29 28v26H26v-26c0-15 13-28 29-28zm396 266H55c-16-1-29-13-29-29V205h454v157c0 16-13 28-29 29zm-21-147h-52c-7 0-13 6-13 14 0 7 6 13 13 13h52c8 0 13-6 13-13 0-8-5-14-13-14zm-184 0H76c-7 0-13 6-13 14 0 7 6 13 13 13h170c8 0 14-6 14-13 0-8-6-14-14-14zm-118 40H76c-7 0-13 6-13 13s6 13 13 13h52c8 0 13-6 13-13s-5-13-13-13z"/></svg>