<svg xmlns="http://www.w3.org/2000/svg" xml:space="preserve" viewBox="0 37 512 438"><path d="M475 170c0-15-2-29-6-41-4-11-9-21-15-28-7-7-15-12-24-17-9-4-18-7-27-9-8-1-18-2-28-2-9 0-20 3-32 7-11 5-22 11-31 19-10 7-18 14-25 20-7 7-12 13-17 18-3 4-8 6-14 6s-11-2-14-6c-5-5-10-11-17-18-7-6-15-13-25-20-9-8-20-14-31-19-12-4-23-7-32-7-10 0-20 1-28 2-9 2-18 5-27 9-9 5-17 10-24 17-6 7-11 17-15 28-4 12-6 26-6 41 0 32 17 66 53 102l166 160 166-160c36-36 53-70 53-102zm37 0c0 42-22 85-65 129L269 470c-4 4-8 5-13 5s-9-1-13-5L65 298c-2-1-4-4-8-7-3-4-8-10-16-19-7-9-13-18-19-28-6-9-11-21-15-34-5-14-7-27-7-40 0-42 12-74 36-98s58-35 101-35c11 0 23 2 36 6 12 4 23 9 34 16s20 14 27 20c8 6 15 12 22 19 7-7 14-13 22-19 7-6 16-13 27-20s22-12 34-16c13-4 25-6 36-6 43 0 77 11 101 35s36 56 36 98z"/></svg>