<svg xmlns="http://www.w3.org/2000/svg" xml:space="preserve" viewBox="108 26 296 459.15"><path d="M360 56c30 21 44 53 44 95 0 21-7 43-21 63-4 7-19 20-45 41l-24 15c-13 12-21 22-24 31-2 6-4 13-4 23 0 4-3 7-8 7h-66c-5 0-8-2-8-6 1-34 6-55 14-64 6-7 14-16 25-24 11-9 20-16 28-22l13-7c7-6 13-11 17-18 10-15 14-26 14-35 0-14-4-27-13-40s-25-19-47-19c-23 0-39 8-48 23-10 14-14 30-14 47h-85c2-55 21-95 58-119 24-14 52-21 85-21 44 0 81 10 109 30M250 382c15 0 27 5 37 15 10 11 15 23 14 38-1 16-6 28-16 38-11 9-23 13-38 12-15 0-28-5-38-14-9-10-14-23-13-39 0-16 6-28 16-37s23-14 38-13"/></svg>