<svg xmlns="http://www.w3.org/2000/svg" style="display: none;">
  
    <symbol id="icon-pencil-square-o" viewBox="0 0 512 512">
      <path d="m254 338l33-33-44-43-33 33 0 16 28 0 0 27z m125-205c-3-3-6-3-9 0l-100 100c-3 3-3 6 0 9 3 3 6 3 9 0l100-100c3-3 3-6 0-9z m23 169l0 55c0 22-8 42-24 58-16 16-35 24-58 24l-238 0c-22 0-42-8-58-24-16-16-24-36-24-58l0-238c0-23 8-42 24-58 16-16 36-24 58-24l238 0c12 0 23 2 33 7 3 1 5 3 6 6 0 4-1 6-3 9l-14 14c-3 2-6 3-9 2-5-1-9-2-13-2l-238 0c-12 0-23 5-32 14-9 9-13 19-13 32l0 238c0 12 4 23 13 32 9 9 20 13 32 13l238 0c13 0 23-4 32-13 9-9 14-20 14-32l0-36c0-3 1-5 2-7l19-18c2-3 6-4 10-2 3 2 5 4 5 8z m-27-211l82 83-192 192-82 0 0-83z m127 38l-27 26-82-82 26-26c6-5 12-8 20-8 7 0 14 3 19 8l44 43c5 6 8 12 8 20 0 7-3 14-8 19z"/>
    </symbol>
  
    <symbol id="icon-paperclip" viewBox="0 0 512 512">
      <path d="m456 396c0 22-8 41-23 56-15 15-33 22-56 22-25 0-48-9-67-28l-222-222c-21-22-32-48-32-77 0-31 10-56 31-78 21-21 47-31 77-31 30 0 56 10 78 32l173 173c2 2 3 4 3 6 0 3-3 8-9 14-6 6-10 8-13 8-2 0-5-1-7-2l-173-174c-15-15-32-22-51-22-21 0-38 7-52 22-13 14-20 31-20 51 0 20 7 38 21 52l222 222c12 12 26 18 41 18 13 0 23-4 31-12 8-8 12-18 12-30 0-16-6-30-18-42l-166-166c-5-4-11-7-17-7-6 0-11 2-14 6-4 3-6 8-6 14 0 6 3 11 8 16l117 118c2 1 3 4 3 6 0 3-3 7-9 13-6 6-11 9-14 9-2 0-4-1-6-3l-117-117c-12-11-18-26-18-42 0-16 5-29 16-40 11-11 24-16 40-16 17 0 31 6 42 18l166 166c19 18 29 41 29 67z"/>
    </symbol>
  
    <symbol id="icon-paper-plane" viewBox="0 0 512 512">
      <path d="m504 3c6 5 9 11 8 18l-73 439c-1 6-4 10-10 13-2 2-5 2-8 2-3 0-5 0-7-1l-130-53-69 84c-3 5-8 7-14 7-2 0-4 0-6-1-4-1-7-4-9-7-2-3-3-6-3-10l0-100 247-303-306 265-113-47c-7-2-10-7-11-15 0-8 3-14 9-17l476-274c2-2 5-3 9-3 4 0 7 1 10 3z"/>
    </symbol>
  
    <symbol id="icon-angle-double-down" viewBox="0 0 512 512">
      <path d="m399 247c0 2-1 5-3 6l-133 134c-2 1-5 2-7 2-2 0-5-1-7-2l-133-134c-2-1-3-4-3-6 0-3 1-5 3-7l15-14c1-2 4-3 6-3 3 0 5 1 7 3l112 112 112-112c2-2 4-3 7-3 2 0 5 1 6 3l15 14c2 2 3 4 3 7z m0-110c0 3-1 5-3 7l-133 133c-2 2-5 3-7 3-2 0-5-1-7-3l-133-133c-2-2-3-4-3-7 0-2 1-5 3-6l15-15c1-2 4-3 6-3 3 0 5 1 7 3l112 113 112-113c2-2 4-3 7-3 2 0 5 1 6 3l15 15c2 1 3 4 3 6z"/>
    </symbol>
  
    <symbol id="icon-angle-down" viewBox="0 0 512 512">
      <path d="m399 210c0 3-1 5-3 7l-133 133c-2 2-5 3-7 3-2 0-5-1-7-3l-133-133c-2-2-3-4-3-7 0-2 1-4 3-6l15-15c1-1 4-2 6-2 3 0 5 1 7 2l112 113 112-113c2-1 4-2 7-2 2 0 5 1 6 2l15 15c2 2 3 4 3 6z"/>
    </symbol>
  
    <symbol id="icon-caret-down" viewBox="0 0 512 512">
      <path d="m402 201c0 5-2 9-5 13l-128 128c-4 4-8 5-13 5-5 0-9-1-13-5l-128-128c-3-4-5-8-5-13 0-5 2-9 5-13 4-3 8-5 13-5l256 0c5 0 9 2 13 5 3 4 5 8 5 13z"/>
    </symbol>
  
    <symbol id="icon-bell-o" viewBox="0 0 512 512">
      <path d="m261 485c0-3-2-5-5-5-11 0-21-4-29-12-8-8-12-18-12-29 0-3-2-5-5-5-3 0-4 2-4 5 0 14 5 26 14 35 10 10 22 15 36 15 3 0 5-1 5-4z m-191-83l372 0c-51-57-76-136-76-237 0-10-3-20-7-30-5-11-11-21-20-30-8-9-20-17-35-23-14-6-30-9-48-9-18 0-34 3-48 9-15 6-27 14-35 23-9 9-15 19-20 30-4 10-7 20-7 30 0 101-25 180-76 237z m424 0c0 10-4 19-11 26-7 7-16 11-26 11l-128 0c0 20-7 37-21 52-15 14-32 21-52 21-20 0-37-7-52-21-14-15-21-32-21-52l-128 0c-10 0-19-4-26-11-7-7-11-16-11-26 10-8 18-16 26-25 8-9 16-20 25-34 8-14 15-29 21-45 6-16 10-36 14-59 4-23 6-48 6-74 0-29 11-56 33-81 22-25 52-40 88-45-2-4-2-8-2-12 0-7 2-14 8-19 5-5 11-8 19-8 8 0 14 3 19 8 6 5 8 12 8 19 0 4 0 8-2 12 36 5 66 20 88 45 22 25 33 52 33 81 0 26 2 51 6 74 4 23 8 43 14 59 6 16 13 31 21 45 9 14 17 25 25 34 8 9 16 17 26 25z"/>
    </symbol>
  
    <symbol id="icon-commenting-o" viewBox="0 0 512 512">
      <path d="m183 256c0 10-4 19-11 26-7 7-16 11-26 11-10 0-18-4-26-11-7-7-10-16-10-26 0-10 3-19 10-26 8-7 16-11 26-11 10 0 19 4 26 11 7 7 11 16 11 26z m110 0c0 10-4 19-11 26-7 7-16 11-26 11-10 0-19-4-26-11-7-7-11-16-11-26 0-10 4-19 11-26 7-7 16-11 26-11 10 0 19 4 26 11 7 7 11 16 11 26z m109 0c0 10-3 19-10 26-8 7-16 11-26 11-10 0-19-4-26-11-7-7-11-16-11-26 0-10 4-19 11-26 7-7 16-11 26-11 10 0 18 4 26 11 7 7 10 16 10 26z m-146-146c-39 0-75 6-109 20-34 13-61 31-81 53-19 23-29 47-29 73 0 21 6 42 20 61 14 19 33 36 58 50l24 14-7 28c-5 17-12 34-20 49 29-12 55-28 78-49l13-11 16 2c13 2 25 2 37 2 39 0 75-6 109-20 34-13 61-31 81-53 19-23 29-47 29-73 0-26-10-50-29-73-20-22-47-40-81-53-34-14-70-20-109-20z m256 146c0 33-11 64-34 92-23 28-54 50-93 66-40 17-83 25-129 25-13 0-27-1-41-2-38 33-82 56-132 69-9 2-20 4-32 6l-2 0c-3 0-5-1-8-3-2-2-3-5-4-8l0 0c-1-1-1-2 0-4 0-1 0-2 0-2 0-1 1-2 2-3l1-3 2-2 3-3c1-1 4-5 8-10 5-5 8-8 10-10 2-3 5-6 9-12 4-5 7-10 9-14 3-5 5-10 8-17 3-7 5-14 8-22-30-17-54-38-71-63-17-25-26-51-26-80 0-25 7-48 20-71 14-23 32-42 55-58 23-17 50-30 82-39 31-10 64-15 99-15 35 0 68 5 99 15 32 9 59 22 82 39 23 16 41 35 55 58 13 23 20 46 20 71z"/>
    </symbol>
  
    <symbol id="icon-file-o" viewBox="0 0 512 512">
      <path d="m456 109c5 5 10 12 14 21 4 9 5 18 5 25l0 330c0 7-2 14-8 19-5 5-11 8-19 8l-384 0c-8 0-14-3-19-8-6-5-8-12-8-19l0-458c0-7 2-14 8-19 5-5 11-8 19-8l256 0c8 0 16 2 25 6 9 4 17 8 22 13z m-127-70l0 107 108 0c-2-5-4-9-7-11l-89-90c-2-2-6-4-12-6z m110 436l0-292-119 0c-8 0-14-3-19-8-6-5-8-12-8-20l0-118-220 0 0 438z"/>
    </symbol>
  
    <symbol id="icon-envelope-o" viewBox="0 0 512 512">
      <path d="m475 430l0-220c-6 7-12 13-19 19-51 39-92 72-122 97-10 8-18 14-24 19-6 4-14 9-24 14-11 4-21 7-30 7l0 0c-9 0-19-3-30-7-10-5-18-10-24-14-6-5-14-11-24-19-30-25-71-58-122-97-7-6-13-12-19-19l0 220c0 2 0 4 2 6 2 2 4 3 7 3l420 0c3 0 5-1 7-3 2-2 2-4 2-6z m0-301l0-7 0-3-1-4-1-2-3-3-4 0-420 0c-3 0-5 1-7 2-2 2-2 4-2 7 0 32 14 59 42 81 36 29 75 59 114 91 1 1 5 3 10 8 6 5 10 8 13 11 4 2 8 5 13 9 5 3 10 6 14 8 5 1 9 2 13 2l0 0c4 0 8-1 13-2 4-2 9-5 14-8 5-4 9-7 13-9 3-3 7-6 13-11 5-5 9-7 10-8 39-32 78-62 114-91 11-8 20-19 29-33 9-14 13-26 13-38z m37-10l0 311c0 12-4 23-13 32-9 9-20 13-33 13l-420 0c-13 0-24-4-33-13-9-9-13-20-13-32l0-311c0-13 4-23 13-32 9-9 20-14 33-14l420 0c13 0 24 5 33 14 9 9 13 19 13 32z"/>
    </symbol>
  
    <symbol id="icon-folder-o" viewBox="0 0 512 512">
      <path d="m457 375l0-201c0-8-3-14-8-20-5-5-12-8-19-8l-201 0c-8 0-15-2-20-8-5-5-8-12-8-19l0-18c0-8-3-15-8-20-5-5-12-8-19-8l-92 0c-7 0-14 3-19 8-5 5-8 12-8 20l0 274c0 7 3 14 8 19 5 6 12 8 19 8l348 0c7 0 14-2 19-8 5-5 8-12 8-19z m37-201l0 201c0 17-7 32-19 45-13 13-28 19-45 19l-348 0c-17 0-32-6-45-19-12-13-19-28-19-45l0-274c0-18 7-33 19-46 13-12 28-18 45-18l92 0c17 0 32 6 45 18 12 13 19 28 19 46l0 9 192 0c17 0 32 6 45 19 12 12 19 27 19 45z"/>
    </symbol>
  
    <symbol id="icon-heart-o" viewBox="0 0 512 512">
      <path d="m475 170c0-15-2-29-6-41-4-11-9-21-15-28-7-7-15-12-24-17-9-4-18-7-27-9-8-1-18-2-28-2-9 0-20 3-32 7-11 5-22 11-31 19-10 7-18 14-25 20-7 7-12 13-17 18-3 4-8 6-14 6-6 0-11-2-14-6-5-5-10-11-17-18-7-6-15-13-25-20-9-8-20-14-31-19-12-4-23-7-32-7-10 0-20 1-28 2-9 2-18 5-27 9-9 5-17 10-24 17-6 7-11 17-15 28-4 12-6 26-6 41 0 32 17 66 53 102l166 160 166-160c36-36 53-70 53-102z m37 0c0 42-22 85-65 129l-178 171c-4 4-8 5-13 5-5 0-9-1-13-5l-178-172c-2-1-4-4-8-7-3-4-8-10-16-19-7-9-13-18-19-28-6-9-11-21-15-34-5-14-7-27-7-40 0-42 12-74 36-98 24-24 58-35 101-35 11 0 23 2 36 6 12 4 23 9 34 16 11 7 20 14 27 20 8 6 15 12 22 19 7-7 14-13 22-19 7-6 16-13 27-20 11-7 22-12 34-16 13-4 25-6 36-6 43 0 77 11 101 35 24 24 36 56 36 98z"/>
    </symbol>
  
    <symbol id="icon-heart" viewBox="0 0 512 512">
      <path d="m256 475c-5 0-9-1-13-5l-178-172c-2-1-4-4-8-7-3-4-8-10-16-19-7-9-13-18-19-28-6-9-11-21-15-34-5-14-7-27-7-40 0-42 12-74 36-98 24-24 58-35 101-35 11 0 23 2 36 6 12 4 23 9 34 16 11 7 20 14 27 20 8 6 15 12 22 19 7-7 14-13 22-19 7-6 16-13 27-20 11-7 22-12 34-16 13-4 25-6 36-6 43 0 77 11 101 35 24 24 36 56 36 98 0 42-22 85-65 129l-178 171c-4 4-8 5-13 5z"/>
    </symbol>
  
    <symbol id="icon-circle-thin" viewBox="0 0 512 512">
      <path d="m256 73c-25 0-48 5-71 15-23 9-42 22-58 39-17 16-30 35-39 58-10 23-15 46-15 71 0 25 5 48 15 71 9 23 22 42 39 58 16 17 35 30 58 39 23 10 46 15 71 15 25 0 48-5 71-15 23-9 42-22 58-39 17-16 30-35 39-58 10-23 15-46 15-71 0-25-5-48-15-71-9-23-22-42-39-58-16-17-35-30-58-39-23-10-46-15-71-15z m219 183c0 40-9 77-29 110-20 34-46 60-80 80-33 20-70 29-110 29-40 0-77-9-110-29-34-20-60-46-80-80-20-33-29-70-29-110 0-40 9-77 29-110 20-34 46-60 80-80 33-20 70-29 110-29 40 0 77 9 110 29 34 20 60 46 80 80 20 33 29 70 29 110z"/>
    </symbol>
  
    <symbol id="icon-circle" viewBox="0 0 512 512">
      <path d="m475 256c0 40-9 77-29 110-20 34-46 60-80 80-33 20-70 29-110 29-40 0-77-9-110-29-34-20-60-46-80-80-20-33-29-70-29-110 0-40 9-77 29-110 20-34 46-60 80-80 33-20 70-29 110-29 40 0 77 9 110 29 34 20 60 46 80 80 20 33 29 70 29 110z"/>
    </symbol>
  
    <symbol id="icon-thumbs-o-up" viewBox="0 0 512 512">
      <path d="m110 384c0-5-2-9-6-13-3-3-8-5-13-5-5 0-9 2-12 5-4 4-6 8-6 13 0 5 2 9 6 13 3 3 7 5 12 5 5 0 10-2 13-5 4-4 6-8 6-13z m329-165c0-9-4-18-11-25-8-7-16-11-26-11l-100 0c0-11 4-26 13-46 10-19 14-34 14-46 0-18-3-32-9-41-6-9-18-13-37-13-5 5-8 13-10 24-3 11-6 23-9 36-4 12-9 23-17 31-4 4-12 13-22 26-1 1-3 4-7 9-3 4-6 8-9 11-2 3-5 7-10 12-4 5-8 10-11 13-3 3-7 7-11 10-4 4-8 6-11 8-4 2-8 2-11 2l-9 0 0 183 9 0c3 0 6 1 9 1 4 1 7 1 10 2 3 1 6 2 11 3 4 2 8 3 10 3 2 1 5 2 10 4 4 2 7 3 8 3 40 14 73 21 98 21l34 0c37 0 55-16 55-48 0-5 0-10-1-16 6-3 10-8 13-15 4-7 5-14 5-21 0-7-1-13-5-20 10-9 15-20 15-34 0-4-1-10-2-15-2-6-5-11-8-14 7 0 12-5 16-13 4-9 6-17 6-24z m36 0c0 17-4 33-14 47 2 6 3 13 3 19 0 15-4 29-11 42 1 4 1 8 1 12 0 19-6 36-17 51 0 26-8 47-24 62-17 16-38 23-65 23l-37 0c-18 0-36-2-54-6-18-4-39-11-62-19-22-7-35-11-40-11l-82 0c-10 0-19-4-26-11-7-7-10-16-10-26l0-183c0-10 3-18 10-25 7-8 16-11 26-11l78 0c7-5 20-19 40-44 11-15 21-27 30-37 5-5 8-13 10-24 2-12 5-24 9-37 4-12 10-22 18-30 7-7 16-11 25-11 16 0 31 3 44 9 12 6 22 16 29 29 6 13 10 31 10 53 0 18-5 36-14 55l50 0c20 0 37 8 52 22 14 14 21 32 21 51z"/>
    </symbol>
  
    <symbol id="icon-thumbs-o-down" viewBox="0 0 512 512">
      <path d="m110 128c0-5-2-9-6-13-3-3-8-5-13-5-5 0-9 2-12 5-4 4-6 8-6 13 0 5 2 9 6 13 3 3 7 5 12 5 5 0 10-2 13-5 4-4 6-8 6-13z m329 165c0-7-2-15-6-24-4-8-9-13-16-13 3-3 6-8 8-14 1-5 2-11 2-15 0-14-5-25-15-34 4-7 5-13 5-20 0-7-1-14-5-21-3-7-7-12-13-15 1-6 1-11 1-16 0-16-4-28-14-36-9-8-22-12-39-12l-36 0c-25 0-58 7-98 21-1 0-4 1-8 3-5 2-8 3-10 4-2 0-6 1-10 3-5 1-8 2-11 3-3 1-6 1-10 2-3 0-6 1-9 1l-9 0 0 183 9 0c3 0 7 0 11 2 3 2 7 4 11 8 4 3 8 7 11 10 3 3 7 8 11 13 5 5 8 9 10 12 3 3 6 7 9 11 4 5 6 8 7 9 10 13 18 22 22 26 8 8 13 19 17 31 3 13 6 25 9 36 2 11 5 19 10 24 19 0 31-4 37-13 6-9 9-23 9-41 0-12-4-27-14-46-9-20-13-35-13-46l100 0c10 0 18-4 26-11 7-7 11-16 11-25z m36 0c0 19-7 37-21 51-15 14-32 22-52 22l-50 0c9 19 14 37 14 55 0 22-4 40-10 53-7 13-17 23-29 29-13 6-28 9-44 9-9 0-18-4-25-11-7-6-12-14-16-23-4-9-6-18-7-26-1-8-3-16-5-24-2-8-5-14-9-18-9-10-19-22-30-37-20-25-33-39-40-44l-78 0c-10 0-19-3-26-11-7-7-10-15-10-25l0-183c0-10 3-19 10-26 7-7 16-11 26-11l82 0c5 0 18-4 40-11 24-9 45-15 64-19 18-4 37-6 57-6l32 0c26 0 48 7 64 22 17 15 25 36 25 62l0 1c11 15 17 32 17 51 0 4 0 8-1 12 7 13 11 27 11 42 0 6-1 13-3 19 10 14 14 30 14 47z"/>
    </symbol>
  
    <symbol id="icon-sort-amount-asc" viewBox="0 0 512 512">
      <path d="m210 411c0 3-1 5-3 7l-91 91c-2 2-4 3-6 3-3 0-5-1-7-3l-91-91c-3-3-4-6-2-10 1-4 4-6 8-6l55 0 0-393c0-3 1-5 3-6 1-2 4-3 6-3l55 0c3 0 5 1 7 3 1 1 2 3 2 6l0 393 55 0c3 0 5 1 7 3 1 2 2 4 2 6z m302 37l0 55c0 3-1 5-3 6-1 2-3 3-6 3l-238 0c-3 0-5-1-6-3-2-1-3-3-3-6l0-55c0-3 1-5 3-7 1-1 3-2 6-2l238 0c3 0 5 1 6 2 2 2 3 4 3 7z m-55-146l0 55c0 2-1 4-2 6-2 2-4 3-7 3l-183 0c-3 0-5-1-6-3-2-2-3-4-3-6l0-55c0-3 1-5 3-7 1-2 3-2 6-2l183 0c3 0 5 0 7 2 1 2 2 4 2 7z m-55-147l0 55c0 3-1 5-2 7-2 2-4 2-7 2l-128 0c-3 0-5 0-6-2-2-2-3-4-3-7l0-55c0-2 1-4 3-6 1-2 3-3 6-3l128 0c3 0 5 1 7 3 1 2 2 4 2 6z m-55-146l0 55c0 3 0 5-2 7-2 1-4 2-7 2l-73 0c-3 0-5-1-6-2-2-2-3-4-3-7l0-55c0-3 1-5 3-6 1-2 3-3 6-3l73 0c3 0 5 1 7 3 2 1 2 3 2 6z"/>
    </symbol>
  
    <symbol id="icon-sort-amount-desc" viewBox="0 0 512 512">
      <path d="m347 448l0 55c0 3 0 5-2 6-2 2-4 3-7 3l-73 0c-3 0-5-1-6-3-2-1-3-3-3-6l0-55c0-3 1-5 3-7 1-1 3-2 6-2l73 0c3 0 5 1 7 2 2 2 2 4 2 7z m-137-37c0 3-1 5-3 7l-91 91c-2 2-4 3-6 3-3 0-5-1-7-3l-91-91c-3-3-4-6-2-10 1-4 4-6 8-6l55 0 0-393c0-3 1-5 3-6 1-2 4-3 6-3l55 0c3 0 5 1 7 3 1 1 2 3 2 6l0 393 55 0c3 0 5 1 7 3 1 2 2 4 2 6z m192-109l0 55c0 2-1 4-2 6-2 2-4 3-7 3l-128 0c-3 0-5-1-6-3-2-2-3-4-3-6l0-55c0-3 1-5 3-7 1-2 3-2 6-2l128 0c3 0 5 0 7 2 1 2 2 4 2 7z m55-147l0 55c0 3-1 5-2 7-2 2-4 2-7 2l-183 0c-3 0-5 0-6-2-2-2-3-4-3-7l0-55c0-2 1-4 3-6 1-2 3-3 6-3l183 0c3 0 5 1 7 3 1 2 2 4 2 6z m55-146l0 55c0 3-1 5-3 7-1 1-3 2-6 2l-238 0c-3 0-5-1-6-2-2-2-3-4-3-7l0-55c0-3 1-5 3-6 1-2 3-3 6-3l238 0c3 0 5 1 6 3 2 1 3 3 3 6z"/>
    </symbol>
  
    <symbol id="icon-trash-o" viewBox="0 0 512 512">
      <path d="m201 210l0 165c0 3-1 5-2 6-2 2-4 3-7 3l-18 0c-3 0-5-1-7-3-2-1-2-3-2-6l0-165c0-2 0-5 2-6 2-2 4-3 7-3l18 0c3 0 5 1 7 3 1 1 2 4 2 6z m73 0l0 165c0 3-1 5-2 6-2 2-4 3-7 3l-18 0c-3 0-5-1-7-3-1-1-2-3-2-6l0-165c0-2 1-5 2-6 2-2 4-3 7-3l18 0c3 0 5 1 7 3 1 1 2 4 2 6z m73 0l0 165c0 3 0 5-2 6-2 2-4 3-7 3l-18 0c-3 0-5-1-7-3-1-1-2-3-2-6l0-165c0-2 1-5 2-6 2-2 4-3 7-3l18 0c3 0 5 1 7 3 2 1 2 4 2 6z m37 207l0-271-256 0 0 271c0 4 1 8 2 12 1 3 3 6 4 7 2 2 3 3 3 3l238 0c0 0 1-1 3-3 1-1 3-4 4-7 1-4 2-8 2-12z m-192-307l128 0-14-34c-1-1-3-2-5-3l-90 0c-2 1-4 2-5 3z m265 9l0 18c0 3-1 5-2 7-2 1-4 2-7 2l-27 0 0 271c0 16-5 30-14 41-9 12-20 17-32 17l-238 0c-12 0-23-5-32-16-9-11-14-25-14-41l0-272-27 0c-3 0-5-1-7-2-1-2-2-4-2-7l0-18c0-3 1-5 2-7 2-1 4-2 7-2l88 0 20-48c3-7 8-13 16-18 7-5 15-7 22-7l92 0c7 0 15 2 22 7 8 5 13 11 16 18l20 48 88 0c3 0 5 1 7 2 1 2 2 4 2 7z"/>
    </symbol>
  
    <symbol id="icon-checkmark-round" viewBox="0 0 512 512">
      <path d="m448 72c-17-13-41-9-54 9l-180 263-99-107c-15-17-39-17-55-2-15 16-16 42-1 58 0 0 120 134 137 147 18 14 42 10 54-9l207-302c12-18 8-44-9-57z"/>
    </symbol>
  
    <symbol id="icon-ios-circle-filled" viewBox="0 0 512 512">
      <path d="m256 48c-115 0-208 93-208 208 0 115 93 208 208 208 115 0 208-93 208-208 0-115-93-208-208-208z m0 399c-105 0-191-86-191-191 0-105 86-191 191-191 105 0 191 86 191 191 0 105-86 191-191 191z m0-351c-88 0-160 72-160 160 0 88 72 160 160 160 88 0 160-72 160-160 0-88-72-160-160-160z"/>
    </symbol>
  
    <symbol id="icon-ios-circle-outline" viewBox="0 0 512 512">
      <path d="m256 48c-115 0-208 93-208 208 0 115 93 208 208 208 115 0 208-93 208-208 0-115-93-208-208-208z m0 399c-105 0-191-86-191-191 0-105 86-191 191-191 105 0 191 86 191 191 0 105-86 191-191 191z"/>
    </symbol>
  
    <symbol id="icon-cross-mark" viewBox="0 0 512 512">
      <path d="m414 353l-97-97l97-97c17-17 17-44 0-61c-17-17-44-17-61 0l-97 97l-97-97c-17-17-44-17-61 0c-17 17-17 44 0 61l97 97l-97 97c-17 17-17 44 0 61c8 8 19 13 30 13c11 0 23-5 31-13l97-97l97 97c9 8 20 13 31 13c11 0 22-5 30-13c17-17 17-44 0-61z"/>
    </symbol>
  
    <symbol id="icon-ccw" viewBox="0 0 512 512">
      <path d="m288 58c58 0 107 21 148 62c40 41 61 90 61 148c0 58-21 108-61 149c-41 41-90 61-148 61c-49 0-92-15-129-45c0 0 36-38 36-38c28 21 59 31 93 31c43 0 80-15 110-46c31-31 46-68 46-112c0-43-15-81-46-111c-30-31-67-46-110-46c-43 0-79 14-110 44c-31 30-46 66-47 108c0 0 73 0 73 0c0 0-94 105-94 105c0 0-95-105-95-105c0 0 64 0 64 0c1-56 21-105 62-145c41-40 90-60 147-60"/>
    </symbol>
  
    <symbol id="icon-cw" viewBox="0 0 512 512">
      <path d="m224 46c58 0 107 20 147 59c41 40 62 88 63 145c0 0 63 0 63 0c0 0-95 105-95 105c0 0-94-105-94-105c0 0 74 0 74 0c-1-42-17-78-48-108c-31-29-67-44-110-44c-43 0-80 16-110 46c-31 31-46 68-46 112c0 43 15 80 46 111c30 30 67 46 110 46c36 0 67-11 93-31c0 0 36 39 36 39c-37 30-80 45-129 45c-57 0-106-21-147-62c-41-40-62-90-62-148c0-58 21-108 62-148c41-41 90-62 147-62"/>
    </symbol>
  
    <symbol id="icon-dot-3" viewBox="0 0 512 512">
      <path d="m77 200c16 0 29 5 40 16c11 11 16 24 16 40c0 15-5 28-16 39c-11 12-24 17-40 17c-16 0-29-5-40-17c-11-11-17-24-17-39c0-16 6-29 17-40c11-11 24-16 40-16m179 0c16 0 29 5 40 16c11 11 16 24 16 40c0 15-5 28-17 39c-11 12-24 17-39 17c-15 0-28-5-39-17c-12-11-17-24-17-39c0-16 5-29 16-40c11-11 24-16 40-16m179 0c16 0 29 5 40 16c11 11 17 24 17 40c0 15-6 28-17 39c-11 12-24 17-40 17c-15 0-29-5-40-17c-11-11-16-24-16-39c0-16 5-29 16-40c11-11 25-16 40-16"/>
    </symbol>
  
    <symbol id="icon-external-link" viewBox="0 0 512 512">
      <path d="m402 265l0 92c0 22-8 42-24 58c-16 16-35 24-58 24l-238 0c-22 0-42-8-58-24c-16-16-24-36-24-58l0-238c0-23 8-42 24-58c16-16 36-24 58-24l201 0c3 0 5 0 7 2c2 2 3 4 3 7l0 18c0 3-1 5-3 7c-2 1-4 2-7 2l-201 0c-12 0-23 5-32 14c-9 9-13 19-13 32l0 238c0 12 4 23 13 32c9 9 20 13 32 13l238 0c13 0 23-4 32-13c9-9 14-20 14-32l0-92c0-3 1-5 2-6c2-2 4-3 7-3l18 0c3 0 5 1 7 3c1 1 2 3 2 6z m110-247l0 147c0 5-2 9-5 12c-4 4-8 6-13 6c-5 0-10-2-13-6l-50-50l-187 186c-2 2-4 3-6 3c-3 0-5-1-7-3l-32-32c-2-2-3-4-3-7c0-2 1-4 3-6l186-187l-50-50c-4-3-6-8-6-13c0-5 2-9 6-13c3-3 7-5 12-5l147 0c5 0 9 2 13 5c3 4 5 8 5 13z"/>
    </symbol>
  
    <symbol id="icon-link" viewBox="0 0 512 512">
      <path d="m434 347c0-7-2-14-8-19l-59-59c-5-6-12-8-20-8c-8 0-14 3-20 9c0 0 2 2 5 5c3 3 5 5 6 6c1 1 3 3 5 6c2 2 3 4 3 7c1 2 1 5 1 8c0 7-2 14-8 19c-5 5-11 8-19 8c-3 0-5 0-8-1c-2-1-5-2-7-4c-3-1-4-3-6-4c-1-1-3-3-6-6c-3-3-4-5-5-5c-6 5-9 12-9 20c0 8 2 15 8 20l58 59c6 5 12 8 20 8c7 0 14-3 19-8l42-41c6-6 8-12 8-20z m-201-201c0-8-2-14-8-19l-58-60c-6-5-12-8-20-8c-7 0-14 3-19 8l-42 42c-6 5-8 12-8 19c0 8 2 14 8 19l59 60c5 5 12 8 20 8c8 0 14-3 20-9c0-1-2-3-5-6c-3-3-5-5-6-6c-1-1-3-3-5-5c-2-3-3-5-3-7c-1-3-1-5-1-8c0-8 2-14 8-20c5-5 11-8 19-8c3 0 5 1 8 1c2 1 5 2 7 4c3 2 4 3 6 4c1 1 3 3 6 6c3 3 4 5 5 6c6-6 9-13 9-21z m256 201c0 23-8 43-24 58l-42 42c-16 16-35 24-58 24c-23 0-43-8-58-24l-59-60c-16-15-24-35-24-58c0-23 8-43 25-59l-25-25c-16 16-36 25-59 25c-23 0-43-8-59-24l-59-60c-16-16-24-35-24-58c0-23 8-42 24-58l42-42c16-16 35-23 58-23c23 0 43 8 58 24l59 59c16 16 24 35 24 58c0 23-8 43-25 60l25 25c16-17 36-25 59-25c23 0 43 8 59 24l59 59c16 16 24 36 24 58z"/>
    </symbol>
  
    <symbol id="icon-paperclip-1" viewBox="0 0 512 512">
      <path d="m155 453c-14 0-32-5-50-23c-24-24-27-47-25-62c2-17 11-34 27-50l150-151c43-42 71-26 83-13c16 15 26 42-14 82l-138 139l-27-27l138-139c22-21 17-26 14-28c-1-2-7-8-29 13l-150 151c-7 7-15 17-16 28c-1 9 4 19 14 30c13 13 23 12 26 11c9-1 19-7 30-18c13-12 167-166 178-178c15-15 24-29 28-42c5-20-1-38-20-57c-19-19-51-40-98 8l-165 165c-8 7-20 7-27 0c-8-8-8-20 0-27l165-165c51-51 106-54 152-8c36 36 36 71 30 94c-6 20-18 39-38 59c-11 12-166 166-178 178c-17 17-34 26-51 29c-3 0-6 1-9 1z"/>
    </symbol>
  
    <symbol id="icon-paper-airplane" viewBox="0 0 512 512">
      <path d="m32 272l128 48 16 160 80-112 112 112 112-448z m319 145l-95-97 128-176-192 154-83-31 322-173z"/>
    </symbol>
  
    <symbol id="icon-print" viewBox="0 0 512 512">
      <path d="m463 180c0-5-4-9-9-9l-67 0l0-110c0-5-5-10-10-10l-242 0c-5 0-10 5-10 10l0 110l-67 0c0 0 0 0 0 0c-5 0-9 4-9 9l0 0l0 188c0 5 4 10 9 10l67 0l0-79l262 0l0 79l67 0c5 0 9-5 9-10l0-188z m-102 33l-210 0l0-127c0-5 4-9 9-9l192 0c5 0 9 4 9 9l0 127z m-209 238c0 5 4 10 9 10l190 0c5 0 9-5 9-10l0-126l-208 0z"/>
    </symbol>
  
    <symbol id="icon-files" viewBox="0 0 512 512">
      <path d="m485 110c7 0 14 2 19 8c5 5 8 12 8 19l0 348c0 7-3 14-8 19c-5 5-12 8-19 8l-275 0c-7 0-14-3-19-8c-5-5-8-12-8-19l0-83l-156 0c-7 0-14-2-19-8c-5-5-8-12-8-19l0-192c0-8 2-16 6-25c4-9 8-17 13-22l117-117c5-5 13-9 22-13c9-4 17-6 25-6l119 0c7 0 14 3 19 8c5 5 8 12 8 19l0 94c13-7 25-11 37-11z m-156 61l-85 85l85 0z m-183-110l-85 85l85 0z m56 185l91-91l0-118l-110 0l0 118c0 8-3 15-8 20c-5 5-12 8-20 8l-118 0l0 183l146 0l0-73c0-8 2-16 6-26c3-9 8-16 13-21z m273 229l0-329l-109 0l0 119c0 8-3 14-8 20c-6 5-12 8-20 8l-119 0l0 182z"/>
    </symbol>
  
    <symbol id="icon-plus" viewBox="0 0 512 512">
      <path d="m389 230c10 0 15 9 15 26c0 17-5 26-15 26c0 0-107 0-107 0c0 0 0 107 0 107c0 10-9 15-26 15c-17 0-26-5-26-15c0 0 0-107 0-107c0 0-107 0-107 0c-10 0-15-9-15-26c0-17 5-26 15-26c0 0 107 0 107 0c0 0 0-107 0-107c0-10 9-15 26-15c17 0 26 5 26 15c0 0 0 107 0 107c0 0 107 0 107 0"/>
    </symbol>
  
    <symbol id="icon-minus" viewBox="0 0 512 512">
      <path d="m389 230c10 0 15 9 15 26c0 17-5 26-15 26c0 0-266 0-266 0c-10 0-15-9-15-26c0-17 5-26 15-26c0 0 266 0 266 0"/>
    </symbol>
  
    <symbol id="icon-plus-1" viewBox="0 0 512 512">
      <path d="m272 128l-32 0l0 112l-112 0l0 32l112 0l0 112l32 0l0-112l112 0l0-32l-112 0z m-16-128c-141 0-256 115-256 256c0 141 115 256 256 256c141 0 256-115 256-256c0-141-115-256-256-256z m0 472c-119 0-216-97-216-216c0-119 97-216 216-216c119 0 216 97 216 216c0 119-97 216-216 216z"/>
    </symbol>
  
    <symbol id="icon-minus-1" viewBox="0 0 512 512">
      <path d="m128 240l256 0l0 32l-256 0z m128-240c-141 0-256 115-256 256c0 141 115 256 256 256c141 0 256-115 256-256c0-141-115-256-256-256z m0 472c-119 0-216-97-216-216c0-119 97-216 216-216c119 0 216 97 216 216c0 119-97 216-216 216z"/>
    </symbol>
  
    <symbol id="icon-wallet-money" viewBox="0 0 512 512">
      <path d="m448 11l-376 0l128 64l216 0l0 32l-152 0l42 21c17 9 31 25 39 43l71 0l0 32l-64 0l0 160l96 0c18 0 32-14 32-32l0-288c0-17-14-32-32-32m-157 146l-262-131c-4-3-8-3-12-3c-10 0-17 7-17 20l0 288c0 18 13 39 29 47l262 131c4 2 8 3 12 3c10 0 17-8 17-21l0-288c0-17-13-38-29-46m-67 206c-18 0-32-21-32-48c0-26 14-48 32-48c18 0 32 22 32 48c0 27-14 48-32 48"/>
    </symbol>
  
    <symbol id="icon-key" viewBox="0 0 512 512">
      <path d="m352 32c-70 0-128 57-128 128 0 10 1 19 3 28l-195 196 0 32 32 32 64 0 32-32 0-32 32 0 0-32 32 0 0-32 64 0 35-35c10 2 19 3 29 3 71 0 128-57 128-128 0-71-57-128-128-128z m-128 224l-160 160 0-32 160-160z m160-96c-18 0-32-14-32-32 0-18 14-32 32-32 17 0 32 14 32 32 0 18-15 32-32 32z"/>
    </symbol>
  
    <symbol id="icon-at" viewBox="0 0 512 512">
      <path d="m418 385l-7 5c-17 13-34 24-50 31c-29 13-61 20-95 20c-49 0-91-14-126-44c-39-33-58-78-58-135c0-51 16-95 50-131c36-41 85-61 146-61c33 0 63 8 89 22c42 24 63 62 63 115c0 36-7 65-23 87c-15 22-31 33-46 33c-8 0-14-3-18-8c-3-5-5-10-5-16c0-4 1-8 2-13c1-5 3-13 5-23l35-126l-51 0l-9 37c-3-12-8-22-16-30c-11-12-25-17-44-17c-32 0-59 15-81 46c-22 30-33 63-33 98c0 31 8 54 22 71c15 17 32 25 54 25c21 0 39-7 55-22c8-8 16-20 22-34c0 2 0 4 0 6c0 2 0 3 0 4c0 11 4 22 13 32c9 10 22 15 38 15c32 0 60-16 85-47c24-32 37-70 37-114c0-56-20-101-59-135c-37-32-83-48-139-48c-70 0-126 24-171 71c-42 44-63 98-63 162c0 57 17 106 51 147c41 51 98 76 172 76c32 0 63-6 92-17c30-11 57-28 83-49c0 0 12-11 5-27c-7-16-21-9-25-6z m-132-104c-12 32-28 47-47 47c-11 0-19-4-25-13c-6-8-9-20-9-34c0-24 7-48 20-73c13-25 29-38 48-38c10 0 17 4 23 11c5 7 8 15 8 26c0 18-6 43-18 74z"/>
    </symbol>
  
    <symbol id="icon-power-off" viewBox="0 0 512 512">
      <path d="m475 256c0 30-5 58-17 85c-12 27-27 51-47 70c-19 20-43 35-70 47c-27 12-55 17-85 17c-30 0-58-5-85-17c-27-12-51-27-70-47c-20-19-35-43-47-70c-12-27-17-55-17-85c0-35 7-67 23-98c15-31 36-56 64-77c8-6 18-9 28-7c10 1 18 6 23 14c7 8 9 17 7 27c-1 10-6 18-14 24c-18 14-33 31-43 52c-10 20-15 42-15 65c0 20 4 39 11 57c8 18 18 33 32 46c13 14 28 24 46 32c18 7 37 11 57 11c20 0 39-4 57-11c18-8 33-18 46-32c14-13 24-28 32-46c7-18 11-37 11-57c0-23-5-45-15-65c-10-21-25-38-43-52c-8-6-13-14-14-24c-2-10 0-19 7-27c5-8 13-13 24-14c10-2 19 1 27 7c28 21 49 46 64 77c16 31 23 63 23 98z m-182-219l0 182c0 10-4 19-11 26c-8 7-16 11-26 11c-10 0-18-4-26-11c-7-7-11-16-11-26l0-182c0-10 4-19 11-26c8-7 16-11 26-11c10 0 18 4 26 11c7 7 11 16 11 26z"/>
    </symbol>
  
    <symbol id="icon-usd" viewBox="0 0 512 512">
      <path d="m389 339c0 29-9 54-28 75-19 21-44 34-74 39l0 50c0 3-1 5-3 6-1 2-4 3-6 3l-39 0c-2 0-4-1-6-3-2-2-3-4-3-6l0-50c-13-2-25-5-36-9-12-4-22-8-29-13-8-4-15-9-22-13-6-5-10-9-13-11-2-2-4-4-5-5-3-4-3-8 0-12l29-39c1-1 4-3 7-3 2 0 5 0 6 3l1 0c22 19 45 31 69 36 7 1 15 2 22 2 15 0 29-4 40-12 12-8 18-20 18-35 0-5-2-10-4-15-3-5-6-9-10-12-4-3-9-7-17-11-7-4-14-7-19-9-5-2-12-5-22-9-8-3-14-6-18-7-4-2-10-5-18-8-7-3-13-6-17-9-5-2-10-6-17-10-6-4-11-8-15-12-4-4-8-9-12-14-5-6-8-11-10-17-3-5-5-12-6-19-2-7-3-14-3-22 0-26 9-49 28-69 19-20 43-33 73-38l0-52c0-2 1-4 3-6 2-2 4-3 6-3l39 0c2 0 5 1 6 3 2 1 3 3 3 6l0 50c11 2 21 4 31 7 11 3 19 6 25 10 7 3 13 6 18 10 6 4 10 7 12 9 1 1 3 2 4 4 3 3 4 7 1 10l-23 42c-1 3-4 5-6 5-3 0-6 0-8-2-1-1-2-2-4-4-2-1-6-4-11-7-6-4-11-7-17-9-6-3-13-6-21-8-9-2-17-3-25-3-18 0-33 4-44 12-12 8-17 19-17 32 0 5 1 9 2 14 2 4 5 8 9 11 4 4 7 7 11 10 3 2 9 5 16 9 7 3 13 6 17 7 5 2 11 5 20 8 10 4 18 7 23 9 6 2 13 6 22 10 9 5 16 9 22 12 5 4 11 9 17 15 7 6 12 12 15 18 4 6 7 13 9 22 3 8 4 17 4 27z"/>
    </symbol>
  
    <symbol id="icon-exclamation-triangle" viewBox="0 0 512 512">
      <path d="m293 393l0-54c0-3-1-5-3-7-2-2-4-3-7-3l-54 0c-3 0-5 1-7 3-2 2-3 4-3 7l0 54c0 3 1 5 3 7 2 1 4 2 7 2l54 0c3 0 5-1 7-2 2-2 3-4 3-7z m-1-107l5-131c0-2-1-4-3-6-2-2-4-3-7-3l-62 0c-3 0-5 1-7 3-2 2-3 4-3 6l5 131c0 2 1 3 3 5 1 1 4 2 6 2l53 0c3 0 5-1 7-2 2-2 3-3 3-5z m-4-267l219 402c7 12 7 24 0 36-3 6-8 10-13 14-6 3-12 4-19 4l-438 0c-7 0-13-1-19-4-5-4-10-8-13-14-7-12-7-24 0-36l219-402c3-6 8-10 13-14 6-3 12-5 19-5 7 0 13 2 19 5 5 4 10 8 13 14z"/>
    </symbol>
  
    <symbol id="icon-exchange" viewBox="0 0 512 512">
      <path d="m512 338l0 55c0 3-1 5-3 7-2 1-4 2-6 2l-393 0 0 55c0 3-1 5-3 7-2 1-4 2-6 2-3 0-5-1-7-3l-91-91c-2-2-3-4-3-6 0-3 1-5 3-7l91-91c2-2 4-3 7-3 2 0 4 1 6 3 2 2 3 4 3 6l0 55 393 0c2 0 4 1 6 3 2 2 3 4 3 6z m0-155c0 3-1 5-3 6l-91 92c-2 2-4 2-7 2-2 0-4 0-6-2-2-2-3-4-3-7l0-55-393 0c-2 0-4 0-6-2-2-2-3-4-3-7l0-55c0-2 1-4 3-6 2-2 4-3 6-3l393 0 0-55c0-2 1-4 3-6 2-2 4-3 6-3 3 0 5 1 7 3l91 91c2 2 3 4 3 7z"/>
    </symbol>
  
    <symbol id="icon-search-find" viewBox="0 0 512 512">
      <path d="m347 238c0-36-12-66-37-91c-25-25-55-37-91-37c-35 0-65 12-90 37c-25 25-38 55-38 91c0 35 13 65 38 90c25 25 55 38 90 38c36 0 66-13 91-38c25-25 37-55 37-90z m147 237c0 10-4 19-11 26c-7 7-16 11-26 11c-10 0-19-4-26-11l-98-98c-34 24-72 36-114 36c-27 0-53-5-78-16c-25-11-46-25-64-43c-18-18-32-39-43-64c-10-25-16-51-16-78c0-28 6-54 16-78c11-25 25-47 43-65c18-18 39-32 64-43c25-10 51-15 78-15c28 0 54 5 79 15c24 11 46 25 64 43c18 18 32 40 43 65c10 24 16 50 16 78c0 42-12 80-36 114l98 98c7 7 11 15 11 25z"/>
    </symbol>
  
    <symbol id="icon-eye" viewBox="0 0 512 512">
      <path d="m256 128c-82 0-146 49-224 128 67 68 124 128 224 128 100 0 173-76 224-127-52-58-125-129-224-129z m0 219c-49 0-90-41-90-91 0-50 41-91 90-91 49 0 90 41 90 91 0 50-41 91-90 91z m0-123c0-8 3-15 8-21-3 0-5 0-8 0-29 0-52 24-52 53 0 29 23 53 52 53 29 0 52-24 52-53 0-2 0-5 0-7-6 4-12 7-20 7-18 0-32-14-32-32z"/>
    </symbol>
  
    <symbol id="icon-amazon" viewBox="0 0 512 512">
      <path d="m443 422c3-1 5-2 8-1 2 0 3 2 3 5 0 3-2 6-5 9-2 3-6 8-12 13-6 5-15 12-27 19-13 8-26 15-41 21-14 7-32 12-53 17-22 5-44 7-66 7-23 0-45-3-68-9-23-6-43-13-60-22-17-8-33-18-49-29-16-12-28-22-38-30-9-9-17-18-24-25-1-2-2-4-3-5 0-2 0-3 1-4 0 0 1-1 2-2 1 0 2 0 3 0 1 0 2 0 3 1 37 22 66 38 86 48 74 33 150 42 228 25 37-7 74-20 112-38z m59-33c2 3 3 10 1 20-2 10-4 20-8 29-7 16-15 28-24 35-4 3-6 4-8 3-2-1-2-3 0-7 4-8 8-20 13-35 4-14 5-24 2-28-1-1-3-2-5-3-2-1-4-1-7-2-4 0-6 0-9 0-2-1-6-1-10 0-4 0-7 0-9 0-2 0-5 1-9 1-4 0-6 1-6 1-1 0-3 0-4 0-1 0-2 0-3 0-1 0-2 0-2 1-1 0-2 0-2-1l-3 0-1 0-1 0 0-1c-1-3 3-7 13-11 10-5 20-8 30-9 8-1 19-1 31 0 11 1 19 3 21 7z m-112-127c0 6 1 12 4 19 2 6 5 11 9 16 3 5 7 9 10 13 4 4 7 7 10 9l4 4-65 64c-8-7-15-15-23-22-7-7-13-13-16-17l-6-5c-2-3-4-6-7-10-7 11-17 21-28 29-11 9-23 15-36 19-13 3-27 6-40 6-14 1-27-1-40-6-12-4-23-11-33-19-10-7-18-18-24-32-6-13-9-29-9-46 0-16 3-31 8-44 6-14 12-25 21-34 8-8 18-16 30-23 12-7 24-13 35-17 12-3 24-7 37-9 14-3 25-5 35-6 9-1 18-1 28-2l0-36c0-12-2-21-6-28-6-10-18-15-35-15-1 0-2 0-4 1-2 0-6 1-12 3-6 2-11 5-16 8-5 4-10 10-16 17-6 8-10 17-14 28l-84-8c0-11 3-23 7-34 4-11 10-22 19-32 8-10 19-19 31-27 12-8 26-14 43-19 17-5 35-7 54-7 19 0 37 2 52 7 16 5 28 11 37 18 9 7 17 15 23 23 6 9 11 17 13 25 3 8 4 15 4 21z m-192 6c0 17 6 29 20 38 12 9 26 11 39 7 16-5 27-17 33-36 3-8 4-18 4-28l0-47c-11 1-22 2-32 4-10 2-20 5-30 9-11 5-19 12-25 21-6 9-9 20-9 32z"/>
    </symbol>
  
    <symbol id="icon-help-circled" viewBox="0 0 512 512">
      <path d="m253 20c65 0 120 22 167 67c46 45 70 100 72 165c0 65-22 121-68 167c-45 47-100 71-165 73c-65 0-121-22-167-68c-47-45-71-100-72-165c-1-65 21-121 67-167c46-47 101-71 166-72m-1 379c10 0 19-3 25-9c6-7 10-15 10-24c0-11-2-19-9-26c-6-6-15-9-25-9c0 0-1 0-1 0c-10 0-18 3-24 9c-7 6-10 14-11 24c0 10 3 18 10 25c6 6 14 10 24 10c0 0 1 0 1 0m85-168c9-11 13-24 13-40c0-26-9-46-27-59c-18-13-41-19-69-19c-22 0-40 4-53 13c-24 14-36 39-37 75c0 0 0 2 0 2c0 0 56 0 56 0c0 0 0-2 0-2c0-9 3-18 8-28c6-8 15-12 28-12c14 0 23 3 27 10c5 7 8 14 8 23c0 6-3 13-8 20c-3 4-7 8-11 10c0 0-3 2-3 2c-2 2-4 4-8 6c-3 2-7 5-10 8c-4 2-7 5-11 8c-4 3-7 6-9 9c-4 7-7 20-9 40c0 0 0 4 0 4c0 0 56 0 56 0c0 0 0-2 0-2c0-4 0-9 2-14c2-7 6-13 14-19c0 0 14-9 14-9c16-12 25-20 29-26"/>
    </symbol>
  
    <symbol id="icon-help" viewBox="0 0 512 512">
      <path d="m360 56c30 21 44 53 44 95c0 21-7 43-21 63c-4 7-19 20-45 41c0 0-24 15-24 15c-13 12-21 22-24 31c-2 6-4 13-4 23c0 4-3 7-8 7c0 0-66 0-66 0c-5 0-8-2-8-6c1-34 6-55 14-64c6-7 14-16 25-24c11-9 20-16 28-22c0 0 13-7 13-7c7-6 13-11 17-18c10-15 14-26 14-35c0-14-4-27-13-40c-9-13-25-19-47-19c-23 0-39 8-48 23c-10 14-14 30-14 47c0 0-85 0-85 0c2-55 21-95 58-119c24-14 52-21 85-21c44 0 81 10 109 30m-110 326c15 0 27 5 37 15c10 11 15 23 14 38c-1 16-6 28-16 38c-11 9-23 13-38 12c-15 0-28-5-38-14c-9-10-14-23-13-39c0-16 6-28 16-37c10-9 23-14 38-13"/>
    </symbol>
  
    <symbol id="icon-invest" viewBox="0 0 512 512">
      <path d="m500 488l-9 0 0-306c0-7-6-12-12-12l-64 0c-7 0-12 5-12 12l0 306-40 0 0-158c0-6-5-12-12-12l-63 0c-7 0-12 6-12 12l0 158-40 0 0-200c0-7-5-12-12-12l-63 0c-7 0-13 5-13 12l0 200-39 0 0-94c0-7-5-12-12-12l-64 0c-6 0-12 5-12 12l0 94-9 0c-7 0-12 5-12 12 0 7 5 12 12 12l488 0c7 0 12-5 12-12 0-7-5-12-12-12z m-455 0l0-82 40 0 0 82z m128 0l0-188 39 0 0 188z m127 0l0-146 39 0 0 146z m127 0l0-294 40 0 0 294z m20-488c-18 0-33 15-33 33 0 6 1 11 4 16l-87 101c-4-1-8-2-11-2-11 0-20 5-26 13l-69-23c0-18-15-32-33-32-18 0-33 15-33 33 0 4 1 7 2 11l-80 66c-5-2-10-4-16-4-18 0-33 15-33 33 0 19 15 34 33 34 18 0 33-15 33-34 0-3 0-7-1-10l79-67c5 3 11 5 16 5 11 0 20-5 26-12l69 22c0 18 15 32 33 32 18 0 33-15 33-33 0-6-2-11-4-16l87-101c3 1 7 2 11 2 18 0 33-15 33-34 0-18-15-33-33-33z m-382 255c-5 0-9-5-9-10 0-5 4-9 9-9 5 0 9 4 9 9 0 5-4 10-9 10z m127-107c-5 0-9-4-9-9 0-5 4-9 9-9 5 0 10 4 10 9 0 5-5 9-10 9z m128 43c-5 0-10-4-10-9 0-5 5-9 10-9 5 0 9 4 9 9 0 5-4 9-9 9z m127-149c-5 0-9-4-9-9 0-5 4-9 9-9 5 0 9 4 9 9 0 5-4 9-9 9z"/>
    </symbol>
  
    <symbol id="icon-saving" viewBox="0 0 512 512">
      <path d="m352 171c-2 0-4-1-6-2-29-22-64-32-100-30-6 0-11-4-11-10-1-6 4-11 10-11 40-3 81 9 113 33 5 4 6 11 3 15-3 3-6 5-9 5z m107 85c-6 0-11-5-11-11 0-6 5-10 11-10 17 0 32-15 32-32 0-6 4-11 10-11 6 0 11 5 11 11 0 29-24 53-53 53z m-203 171c-84 0-160-42-194-107l-51 0c-6 0-11-5-11-11l0-85c0-6 5-11 11-11l35 0c9-44 38-84 80-111-4-17-15-31-30-40-3-2-5-5-5-9 0-4 2-8 5-9 20-12 43-15 65-9 20 5 36 17 48 34 69-14 141 3 193 44 43 35 67 82 67 132 0 100-95 182-213 182z m-235-128l47 0c4 0 8 2 10 6 29 61 99 100 178 100 106 0 192-71 192-160 0-44-21-85-59-115-49-39-117-54-183-39-5 1-9-1-12-5-8-15-22-26-38-30-11-3-23-3-33-1 14 13 23 31 25 50 1 5-1 9-5 11-43 26-71 66-78 109 0 6-5 10-10 10l-34 0z m107-107c-12 0-21 10-21 21 0 12 9 22 21 22 12 0 21-10 21-22 0-11-9-21-21-21z m32 288c-6 0-11-5-11-11l0-73c0-6 5-11 11-11 6 0 11 5 11 11l0 73c0 6-5 11-11 11z m192 0c-6 0-11-5-11-11l0-73c0-6 5-11 11-11 6 0 11 5 11 11l0 73c0 6-5 11-11 11z"/>
    </symbol>
  
    <symbol id="icon-wallet" viewBox="0 0 512 512">
      <path d="m277 346c-29 0-53-23-53-52 0-29 24-53 53-53 29 0 53 24 53 53 0 29-24 52-53 52z m0-83c-17 0-31 14-31 31 0 17 14 30 31 30 17 0 31-13 31-30 0-17-14-31-31-31z m157-252l-356 0c-20 0-38 8-52 22-1 1-2 2-3 3-11 14-18 30-18 49l0 271c0 40 31 79 69 88l233 55c6 1 11 2 16 2 14 0 26-4 37-12 14-12 22-29 22-49l0-52 52 0c40 0 73-33 73-73l0-230c0-41-33-74-73-74z m-74 429c0 13-5 24-14 31-9 7-21 10-34 6l-233-54c-28-7-52-37-52-67l0-271c0-12 3-22 10-31l270 68c29 7 53 38 53 67z m125-125c0 28-23 51-51 51l-52 0 0-166 31 0c6 0 11-5 11-11 0-6-5-11-11-11l-32 0c-6-35-34-69-68-78l-20-4 120 0c6 0 11-5 11-11 0-6-5-11-11-11l-208 0-147-37c6-2 13-4 20-4l356 0c28 0 51 23 51 52z"/>
    </symbol>
  
    <symbol id="icon-table" viewBox="0 0 512 512">
      <path d="m165 393l0-55c0-2-1-5-3-6-2-2-4-3-7-3l-91 0c-3 0-5 1-7 3-1 1-2 4-2 6l0 55c0 3 1 5 2 7 2 1 4 2 7 2l91 0c3 0 5-1 7-2 2-2 3-4 3-7z m0-110l0-54c0-3-1-5-3-7-2-2-4-3-7-3l-91 0c-3 0-5 1-7 3-1 2-2 4-2 7l0 54c0 3 1 5 2 7 2 2 4 3 7 3l91 0c3 0 5-1 7-3 2-2 3-4 3-7z m146 110l0-55c0-2-1-5-3-6-1-2-4-3-6-3l-92 0c-2 0-5 1-6 3-2 1-3 4-3 6l0 55c0 3 1 5 3 7 1 1 4 2 6 2l92 0c2 0 5-1 6-2 2-2 3-4 3-7z m-146-219l0-55c0-3-1-5-3-7-2-1-4-2-7-2l-91 0c-3 0-5 1-7 2-1 2-2 4-2 7l0 55c0 2 1 5 2 6 2 2 4 3 7 3l91 0c3 0 5-1 7-3 2-1 3-4 3-6z m146 109l0-54c0-3-1-5-3-7-1-2-4-3-6-3l-92 0c-2 0-5 1-6 3-2 2-3 4-3 7l0 54c0 3 1 5 3 7 1 2 4 3 6 3l92 0c2 0 5-1 6-3 2-2 3-4 3-7z m146 110l0-55c0-2-1-5-2-6-2-2-4-3-7-3l-91 0c-3 0-5 1-7 3-2 1-3 4-3 6l0 55c0 3 1 5 3 7 2 1 4 2 7 2l91 0c3 0 5-1 7-2 1-2 2-4 2-7z m-146-219l0-55c0-3-1-5-3-7-1-1-4-2-6-2l-92 0c-2 0-5 1-6 2-2 2-3 4-3 7l0 55c0 2 1 5 3 6 1 2 4 3 6 3l92 0c2 0 5-1 6-3 2-1 3-4 3-6z m146 109l0-54c0-3-1-5-2-7-2-2-4-3-7-3l-91 0c-3 0-5 1-7 3-2 2-3 4-3 7l0 54c0 3 1 5 3 7 2 2 4 3 7 3l91 0c3 0 5-1 7-3 1-2 2-4 2-7z m0-109l0-55c0-3-1-5-2-7-2-1-4-2-7-2l-91 0c-3 0-5 1-7 2-2 2-3 4-3 7l0 55c0 2 1 5 3 6 2 2 4 3 7 3l91 0c3 0 5-1 7-3 1-1 2-4 2-6z m37-92l0 311c0 13-5 23-14 32-9 9-19 14-32 14l-384 0c-13 0-23-5-32-14-9-9-14-19-14-32l0-311c0-12 5-23 14-32 9-9 19-13 32-13l384 0c13 0 23 4 32 13 9 9 14 20 14 32z"/>
    </symbol>
  
    <symbol id="icon-cube" viewBox="0 0 512 512">
      <path d="m256 465l183-99 0-182-183 67z m-18-247l199-72-199-73-200 73z m237-72l0 220c0 6-1 13-5 18-3 6-8 10-14 14l-201 109c-5 3-11 5-17 5-7 0-12-2-18-5l-201-109c-6-4-10-8-14-14-3-5-5-12-5-18l0-220c0-7 2-14 7-21 4-6 10-10 17-13l201-73c4-2 9-2 13-2 4 0 8 0 12 2l201 73c8 3 13 7 18 13 4 7 6 14 6 21z"/>
    </symbol>
  
    <symbol id="icon-recent-changes" viewBox="0 0 512 512">
      <path d="m352 112c-88 0-160 72-160 160c0 88 72 160 160 160c88 0 160-72 160-160c0-88-72-160-160-160z m0 288c-71 0-128-57-128-128c0-71 57-128 128-128c71 0 128 57 128 128c0 71-57 128-128 128z m16-224l-32 0l0 112l80 0l0-32l-48 0z m-208-144l-128 0l0 128l128 0z m-32 96l-64 0l0-64l64 0z m-96 64l0 128l128 0l0-128z m0 288l128 0l0-128l-128 0z"/>
    </symbol>
  
    <symbol id="icon-help-circled-1" viewBox="0 0 512 512">
      <path d="m256 32c-124 0-224 100-224 224 0 124 100 224 224 224 124 0 224-100 224-224 0-124-100-224-224-224z m20 327c0 18-13 29-31 28-16 0-29-12-28-30 0-18 14-29 30-29 17 1 30 13 29 31z m49-128c-4 6-14 14-25 23l-14 9c-6 5-10 11-12 17-1 4-2 13-2 19 0 1-1 4-5 4-3 0-35 0-39 0-4 0-4-2-4-4 0-16 3-30 10-41 9-15 35-30 35-30 4-3 7-6 10-10 4-6 8-13 8-20 0-8-2-16-8-23-6-7-13-11-25-11-13 0-21 6-26 15-5 8-4 18-4 27l-49 0c0-34 9-56 28-68 12-9 29-13 48-13 24 0 44 5 61 18 17 12 25 29 25 52 0 15-5 27-12 36z"/>
    </symbol>
  
    <symbol id="icon-flag" viewBox="0 0 512 512">
      <path d="m426 183c-35 5-94 7-133-67-41-79-108-81-148-74-19 4-33 20-33 35l0 197c11 4 23 0 26-1 1 0 2 0 3-1 25-5 51-8 117 24 82 39 153-33 181-84 2-3 9-20 9-36-10 4-22 7-22 7z m-338-151l-16 0c-4 0-8 4-8 8l0 432c0 4 4 8 8 8l16 0c4 0 8-4 8-8l0-432c0-4-4-8-8-8z"/>
    </symbol>
  
    <symbol id="icon-check" viewBox="0 0 512 512">
      <path d="m211 307l-51-51l-32 32l83 80l173-192l-32-32z m45-307c-141 0-256 115-256 256c0 141 115 256 256 256c141 0 256-115 256-256c0-141-115-256-256-256z m0 472c-119 0-216-97-216-216c0-119 97-216 216-216c119 0 216 97 216 216c0 119-97 216-216 216z"/>
    </symbol>
  
    <symbol id="icon-cross" viewBox="0 0 512 512">
      <path d="m335 154l-79 79l-79-79l-23 23l79 79l-79 79l23 23l79-79l79 79l23-23l-79-79l79-79z m-79-154c-141 0-256 115-256 256c0 141 115 256 256 256c141 0 256-115 256-256c0-141-115-256-256-256z m0 472c-119 0-216-97-216-216c0-119 97-216 216-216c119 0 216 97 216 216c0 119-97 216-216 216z"/>
    </symbol>
  
    <symbol id="icon-add-plus" viewBox="0 0 512 512">
      <path d="m470 215l-176 0 0-176c0-21-17-39-39-39-22 0-40 18-40 39l0 176-176 0c-21 0-39 18-39 40 0 22 18 39 39 39l176 0 0 176c0 22 18 40 40 40 22 0 39-18 39-40l0-176 176 0c22 0 40-17 40-39 0-22-18-40-40-40z"/>
    </symbol>
  
    <symbol id="icon-giftcards" viewBox="0 0 512 512">
      <path d="m451 98l-396 0c-30 1-55 25-55 55l0 209c0 30 25 55 55 55l396 0c30 0 55-25 55-55l0-209c0-30-25-54-55-55z m-396 27l396 0c16 0 29 13 29 28l0 26-454 0 0-26c0-15 13-28 29-28z m396 266l-396 0c-16-1-29-13-29-29l0-157 454 0 0 157c0 16-13 28-29 29z m-21-147l-52 0c-7 0-13 6-13 14 0 7 6 13 13 13l52 0c8 0 13-6 13-13 0-8-5-14-13-14z m-184 0l-170 0c-7 0-13 6-13 14 0 7 6 13 13 13l170 0c8 0 14-6 14-13 0-8-6-14-14-14z m-118 40l-52 0c-7 0-13 6-13 13 0 7 6 13 13 13l52 0c8 0 13-6 13-13 0-7-5-13-13-13z"/>
    </symbol>
  
    <symbol id="icon-payees" viewBox="0 0 512 512">
      <path d="m509 363c-8-25-49-50-141-84l0-19c21-15 33-39 33-64 9-7 14-18 13-29 0-11-4-21-11-28 9-20 12-43 8-65-6-19-21-34-40-40-17-8-37-6-52 5-3 1-4 4-5 6-1 3 0 6 1 9 4 5 10 6 15 3l1 0c9-7 22-8 32-3 12 4 22 13 27 25 2 18 0 37-8 54-2 4-3 8-3 12 0 3 1 5 2 7 2 2 4 3 7 4 0 0 1 0 1 0 2 3 3 7 3 11 0 3-1 7-2 10-3 0-6 1-8 3-2 2-3 5-3 8l0 0c0 43-25 55-26 55-4 2-6 6-6 10l0 33c0 4 2 8 7 10 31 12 126 47 135 74 6 29 9 59 9 89l-32 0c-3 0-6 1-8 3-2 2-3 5-3 8 0 3 1 5 3 7 2 2 5 4 8 4l43 0c3 0 6-1 8-3 2-2 3-5 3-8l0 0c0-36-3-72-11-107z m-219-63c-10-3-20-7-30-11l0-40c20-15 32-38 32-64 9-7 14-18 13-29 1-10-3-20-10-27 9-20 11-41 8-62-7-29-48-40-81-40-29 0-64 8-77 30-11-1-21 3-28 11-11 15-6 39 0 60-8 7-12 18-11 28-1 12 4 23 13 29 0 25 12 49 33 64l0 40c-9 4-19 7-28 11-56 19-104 37-113 64-8 35-11 70-11 106 0 6 5 11 11 11l390 0c3 0 5-1 7-3 2-2 4-5 4-8l0 0c0-36-4-72-11-107-9-27-54-43-111-63z"/>
    </symbol>
  
    <symbol id="icon-settings" viewBox="0 0 512 512">
      <path d="m503 214l-61 0c-4-17-9-34-17-50l44-43c2-2 3-5 3-8 0-3-1-5-3-7l-60-61c-5-4-11-4-15 0l-1 0-43 43c-16-7-33-12-50-16l0-61c0-6-5-11-11-11l-64 0c-6 0-11 5-11 10l0 62c-17 4-34 9-50 17l-43-44c-4-4-11-4-15 0l0 0-61 61c-2 2-3 4-3 7 0 3 1 6 3 8l43 43c-7 16-12 33-16 50l-61 0c-6 0-11 5-11 11l0 64c0 3 1 6 3 8 2 2 5 3 7 3l62 0c4 17 9 34 16 50l-43 43c-2 2-3 5-3 8 0 3 1 5 3 7l61 61c4 4 11 4 15 0l43-44c16 8 33 13 50 17l0 61c0 3 1 6 3 8 2 2 5 3 8 3l64 0c6 0 11-5 11-11l0-61c17-4 34-9 50-17l43 44c4 4 11 4 15 0l61-61c4-4 4-11 0-15l0 0-43-43c7-17 12-33 16-50l61 0c6 0 11-5 11-11l0-64c0-6-5-11-11-11z m-246 150c-59 0-107-48-107-107 0-59 48-107 107-107 59 0 107 48 107 107 0 59-48 107-107 107z"/>
    </symbol>
  
    <symbol id="icon-transfer" viewBox="0 0 512 512">
      <path d="m296 275l-168 168 0-77c0-6-2-11-6-15-4-4-9-7-15-7-12 0-22 10-22 22l0 129c0 12 10 22 22 22l129 0c12 0 22-10 22-22 0-12-10-21-22-21l-77 0 167-168c4-4 6-10 6-15 0-6-2-12-6-16-9-7-22-7-30 0z m112-275l-129 0c-12 0-21 10-21 22 0 11 9 21 21 21l77 0-157 157c-8 9-8 22 1 31 8 8 21 8 30 0l157-158 0 78c0 12 9 21 21 21 12 0 22-9 22-21l0-129c0-12-10-22-22-22z"/>
    </symbol>
  
    <symbol id="icon-withdrawal" viewBox="0 0 512 512">
      <path d="m233 352c1 2 3 3 4 4 0 0 1 0 1 0 1 1 3 2 4 2 0 0 1 1 2 1 1 0 2 0 3 1 3 0 7 0 11 0 1-1 2-1 3-1 1 0 1-1 2-1 1 0 2-1 3-2 1 0 1 0 2 0 1-1 3-2 4-4l133-133c10-10 10-28 0-39-11-10-28-10-39 1l-86 86 0-240c0-15-13-27-28-27-15 0-27 12-27 27l0 240-86-86c-11-10-28-10-38 1-10 10-11 26-1 37z m244 103l-450 0c-15 0-27 13-27 28 0 15 12 27 27 27l450 0c15 0 28-12 28-27 0-15-13-28-28-28z"/>
    </symbol>
  
    <symbol id="icon-plug" viewBox="0 0 512 512">
      <path d="m502 102l-1 0c-12-12-32-12-45 0l-22 23-46-46 23-22c13-13 13-33 0-45l0-1c-13-12-33-12-45 0l-24 24c-31-20-73-17-101 11l-12 12c-55 54-61 139-20 200l-2 2c-31 32-31 82 0 113 6 7 6 17 0 23-6 7-16 6-22 0l-45-44c-31-32-82-32-114-1-31 31-31 82 0 113l5 5c12 12 32 12 44 0l1-1c12-12 12-32 0-45l-4-4c-6-6-7-16-1-22 6-7 17-7 23-1l45 45c31 31 83 32 114 0 31-31 31-81 0-113-7-6-7-16 0-22l2-2c61 41 146 35 200-20l13-12c27-28 30-70 10-101l24-24c12-12 12-32 0-45z m-57 147c-19 19-49 19-68 0l-113-113c-19-19-19-49 0-68 15-15 37-18 55-9l-21 21c-13 12-13 32 0 45l0 0c12 12 32 12 45 0l23-23 45 45-23 23c-12 13-12 33 0 45l1 0c12 13 32 13 44 0l21-20c9 17 6 39-9 54z"/>
    </symbol>
  
    <symbol id="icon-university" viewBox="0 0 512 512">
      <path d="m238 0l274 110 0 36-37 0c0 5-2 10-5 13-4 4-9 6-14 6l-436 0c-6 0-10-2-14-6-4-3-6-8-6-13l-37 0 0-36z m-201 183l73 0 0 219 36 0 0-219 73 0 0 219 37 0 0-219 73 0 0 219 37 0 0-219 73 0 0 219 17 0c5 0 10 2 14 6 3 3 5 8 5 13l0 18-475 0 0-18c0-5 2-10 6-13 4-4 8-6 14-6l17 0z m455 274c6 0 10 2 14 6 4 3 6 7 6 12l0 37-549 0 0-37c0-5 2-9 6-12 4-4 9-6 14-6z"/>
    </symbol>
  
    <symbol id="icon-refresh" viewBox="0 0 512 512">
      <path d="m468 302c0 1 0 1 0 2-12 51-38 92-77 124-38 32-84 47-136 47-28 0-55-5-81-15-26-11-49-26-69-45l-37 37c-4 3-8 5-13 5-5 0-9-2-13-5-4-4-5-8-5-13l0-128c0-5 1-9 5-13 4-4 8-5 13-5l128 0c5 0 9 1 13 5 3 4 5 8 5 13 0 5-2 9-5 13l-39 39c13 12 28 22 46 29 17 7 35 10 53 10 26 0 49-6 71-18 23-13 40-30 54-51 2-4 7-15 15-34 1-4 4-6 8-6l55 0c3 0 5 0 7 2 1 2 2 4 2 7z m7-229l0 128c0 5-1 9-5 13-4 4-8 5-13 5l-128 0c-5 0-9-1-13-5-3-4-5-8-5-13 0-5 2-9 5-13l40-39c-28-26-62-39-100-39-26 0-49 6-71 18-23 13-40 30-54 51-2 4-7 15-15 34-1 4-4 6-8 6l-57 0c-3 0-5 0-7-2-1-2-2-4-2-7l0-2c12-51 38-92 77-124 39-32 85-47 137-47 28 0 55 5 81 15 26 11 50 26 70 45l37-37c4-3 8-5 13-5 5 0 9 2 13 5 4 4 5 8 5 13z"/>
    </symbol>
  
    <symbol id="icon-bars" viewBox="0 0 512 512">
      <path d="m475 384l0 37c0 5-1 9-5 12-4 4-8 6-13 6l-402 0c-5 0-9-2-13-6-4-3-5-7-5-12l0-37c0-5 1-9 5-13 4-3 8-5 13-5l402 0c5 0 9 2 13 5 4 4 5 8 5 13z m0-146l0 36c0 5-1 10-5 13-4 4-8 6-13 6l-402 0c-5 0-9-2-13-6-4-3-5-8-5-13l0-36c0-5 1-10 5-13 4-4 8-6 13-6l402 0c5 0 9 2 13 6 4 3 5 8 5 13z m0-147l0 37c0 5-1 9-5 13-4 3-8 5-13 5l-402 0c-5 0-9-2-13-5-4-4-5-8-5-13l0-37c0-5 1-9 5-12 4-4 8-6 13-6l402 0c5 0 9 2 13 6 4 3 5 7 5 12z"/>
    </symbol>
  
    <symbol id="icon-equal" viewBox="0 0 512 512">
      <path d="m0 320l512 0l0 128l-512 0z m0-256l512 0l0 128l-512 0z"/>
    </symbol>
  
    <symbol id="icon-braille" viewBox="0 0 512 512">
      <path d="m218 449c0 35-29 63-64 63c-35 0-64-28-64-63c0-36 29-64 64-64c35 0 64 28 64 64z m0-193c0 35-29 64-64 64c-35 0-64-29-64-64c0-35 29-64 64-64c35 0 64 29 64 64z m0-193c0 36-29 64-64 64c-35 0-64-28-64-64c0-35 29-63 64-63c35 0 64 28 64 63z m204 386c0 35-29 63-64 63c-35 0-64-28-64-63c0-36 29-64 64-64c35 0 64 28 64 64z m0-193c0 35-29 64-64 64c-35 0-64-29-64-64c0-35 29-64 64-64c35 0 64 29 64 64z m0-193c0 36-29 64-64 64c-35 0-64-28-64-64c0-35 29-63 64-63c35 0 64 28 64 63z"/>
    </symbol>
  
    <symbol id="icon-mask" viewBox="0 0 512 512">
      <path d="m492 50l0 193c0 53-16 101-46 145-7 9-19 11-28 4-9-6-11-19-5-28 26-36 39-77 39-121l0-193c0-4-3-7-4-8-2-1-5-3-9-1-38 11-101 26-183 26-82 0-145-15-183-26-4-2-7 0-9 1-1 1-4 4-4 8l0 193c0 121 104 191 166 222 19 9 41 9 61 0 21-10 42-22 60-35 9-7 21-5 28 4 6 9 4 22-5 28-20 15-42 28-66 39-15 7-31 11-47 11-17 0-33-4-49-11-32-17-79-44-118-86-46-50-70-108-70-172l0-193c0-16 7-31 20-40 13-10 30-12 45-8 35 11 94 25 171 25 77 0 136-14 171-25 15-4 32-2 45 8 12 9 20 24 20 40z m-344 266c-1-6 0-13 3-18 4-5 10-8 17-8l171 0c7 0 13 3 16 8 4 5 5 12 3 18 0 2-6 21-21 40-22 26-51 40-84 40-33 0-61-14-83-40-15-19-21-38-22-40z m53 14c10 13 27 26 52 26 26 0 42-13 53-26z m-30-130c0 0 0 0 0 0 17 0 28 11 28 11 4 5 9 7 15 7 5 0 9-2 13-5 8-7 9-20 2-28-2-3-23-25-58-25 0 0 0 0 0 0 0 0 0 0 0 0-36 0-56 22-58 25-8 8-7 21 1 28 4 3 9 5 14 5 5 0 11-2 15-7 0 0 10-11 28-11 0 0 0 0 0 0z m170-40c0 0 0 0 0 0 0 0 0 0 0 0-35 0-56 22-58 25-7 8-7 21 2 28 4 3 8 5 13 5 5 0 11-2 15-7 0 0 11-11 28-11 0 0 0 0 0 0 0 0 0 0 0 0 18 0 28 11 28 11 4 5 10 7 15 7 5 0 10-2 14-5 8-7 9-20 1-28-2-3-23-25-58-25z"/>
    </symbol>
  
    <symbol id="icon-carnival-mask-black-rounded-shape" viewBox="0 0 512 512">
      <path d="m512 255c-1-35-15-64-42-86-25-21-55-32-86-39-42-10-85-12-128-12-13 0-26 0-38 1-25 1-50 3-75 8-33 6-64 16-92 35-27 19-43 43-49 75-5 27-1 52 8 77 12 33 35 56 68 68 22 9 46 12 70 12 24 0 45-7 64-22 10-8 18-17 28-24 11-8 20-8 31-1 7 5 13 11 20 17 16 15 33 26 55 29 29 3 56 0 83-9 33-11 56-31 70-62 10-22 13-44 13-67z m-374 49c-36 0-65-35-65-35 0 0 29-35 65-35 36 0 66 35 66 35 0 0-30 35-66 35z m247 0c-36 0-65-35-65-35 0 0 29-35 65-35 36 0 66 35 66 35 0 0-30 35-66 35z"/>
    </symbol>
  
    <symbol id="icon-credit-card" viewBox="0 0 512 512">
      <path d="m469 51c12 0 22 4 30 13c9 8 13 18 13 30l0 324c0 12-4 22-13 30c-8 9-18 13-30 13l-426 0c-12 0-22-4-30-13c-9-8-13-18-13-30l0-324c0-12 4-22 13-30c8-9 18-13 30-13z m-426 34c-3 0-5 1-6 3c-2 2-3 4-3 6l0 60l444 0l0-60c0-2-1-4-3-6c-1-2-3-3-6-3z m426 342c3 0 5-1 6-3c2-2 3-4 3-6l0-162l-444 0l0 162c0 2 1 4 3 6c1 2 3 3 6 3z m-401-34l0-35l69 0l0 35z m103 0l0-35l102 0l0 35z"/>
    </symbol>
  
    <symbol id="icon-filter" viewBox="0 0 512 512">
      <path d="m456 84c3 8 2 15-4 20l-141 141 0 212c0 8-4 14-11 17-3 1-5 1-7 1-6 0-10-1-13-5l-73-73c-4-4-6-8-6-13l0-139-141-141c-6-5-7-12-4-20 4-7 9-11 17-11l366 0c8 0 13 4 17 11z"/>
    </symbol>
  
    <symbol id="icon-bolt" viewBox="0 0 512 512">
      <path d="m381 162c3 4 4 8 2 12l-154 331c-3 5-7 7-12 7-1 0-3 0-4-1-4-1-6-2-8-5-1-3-2-6-1-9l56-230-116 28c0 1-2 1-3 1-4 0-7-1-9-3-3-3-5-7-4-12l58-235c0-3 2-5 4-7 3-2 5-2 8-2l94 0c4 0 7 1 9 3 3 3 4 5 4 9 0 1-1 3-2 5l-48 132 113-28c1 0 2-1 3-1 4 0 7 2 10 5z"/>
    </symbol>
  
    <symbol id="icon-sort" viewBox="0 0 512 512">
      <path d="m402 311c0 5-2 9-5 13l-128 128c-4 3-8 5-13 5-5 0-9-2-13-5l-128-128c-3-4-5-8-5-13 0-5 2-9 5-13 4-4 8-5 13-5l256 0c5 0 9 1 13 5 3 4 5 8 5 13z m0-110c0 5-2 9-5 13-4 4-8 5-13 5l-256 0c-5 0-9-1-13-5-3-4-5-8-5-13 0-5 2-9 5-13l128-128c4-3 8-5 13-5 5 0 9 2 13 5l128 128c3 4 5 8 5 13z"/>
    </symbol>
  
    <symbol id="icon-list-alt" viewBox="0 0 512 512">
      <path d="m110 338l0 19c0 2-1 4-3 6-2 2-4 3-6 3l-19 0c-2 0-4-1-6-3-2-2-3-4-3-6l0-19c0-2 1-4 3-6 2-2 4-3 6-3l19 0c2 0 4 1 6 3 2 2 3 4 3 6z m0-73l0 18c0 3-1 5-3 7-2 2-4 3-6 3l-19 0c-2 0-4-1-6-3-2-2-3-4-3-7l0-18c0-2 1-4 3-6 2-2 4-3 6-3l19 0c2 0 4 1 6 3 2 2 3 4 3 6z m0-73l0 18c0 3-1 5-3 7-2 2-4 2-6 2l-19 0c-2 0-4 0-6-2-2-2-3-4-3-7l0-18c0-2 1-5 3-6 2-2 4-3 6-3l19 0c2 0 4 1 6 3 2 1 3 4 3 6z m329 146l0 19c0 2-1 4-3 6-2 2-4 3-6 3l-275 0c-2 0-4-1-6-3-2-2-3-4-3-6l0-19c0-2 1-4 3-6 2-2 4-3 6-3l275 0c2 0 4 1 6 3 2 2 3 4 3 6z m0-73l0 18c0 3-1 5-3 7-2 2-4 3-6 3l-275 0c-2 0-4-1-6-3-2-2-3-4-3-7l0-18c0-2 1-4 3-6 2-2 4-3 6-3l275 0c2 0 4 1 6 3 2 2 3 4 3 6z m0-73l0 18c0 3-1 5-3 7-2 2-4 2-6 2l-275 0c-2 0-4 0-6-2-2-2-3-4-3-7l0-18c0-2 1-5 3-6 2-2 4-3 6-3l275 0c2 0 4 1 6 3 2 1 3 4 3 6z m36 201l0-238c0-2 0-4-2-6-2-2-4-3-7-3l-420 0c-3 0-5 1-7 3-2 2-2 4-2 6l0 238c0 3 0 5 2 7 2 1 4 2 7 2l420 0c3 0 5-1 7-2 2-2 2-4 2-7z m37-311l0 311c0 13-4 23-13 32-9 9-20 14-33 14l-420 0c-13 0-24-5-33-14-9-9-13-19-13-32l0-311c0-12 4-23 13-32 9-9 20-13 33-13l420 0c13 0 24 4 33 13 9 9 13 20 13 32z"/>
    </symbol>
  
    <symbol id="icon-sign-in" viewBox="0 0 512 512">
      <path d="m375 256c0 5-2 9-6 13l-155 155c-4 4-8 6-13 6-5 0-9-2-13-6-3-3-5-8-5-13l0-82-128 0c-5 0-9-2-13-5-4-4-5-8-5-13l0-110c0-5 1-9 5-13 4-3 8-5 13-5l128 0 0-82c0-5 2-10 5-13 4-4 8-6 13-6 5 0 9 2 13 6l155 155c4 4 6 8 6 13z m100-101l0 202c0 22-8 42-24 58-16 16-35 24-58 24l-91 0c-3 0-5-1-7-3-2-2-2-4-2-6 0-1-1-3-1-6 0-3 0-6 0-8 0-2 1-4 1-6 0-3 1-5 3-6 1-1 3-2 6-2l91 0c13 0 23-4 32-13 9-9 14-20 14-32l0-202c0-12-5-23-14-32-9-9-19-13-32-13l-89 0-3-1-4 0-2-2-2-3 0-3c0-1-1-3-1-6 0-3 0-6 0-8 0-2 1-4 1-6 0-3 1-5 3-6 1-1 3-2 6-2l91 0c23 0 42 8 58 24 16 16 24 36 24 58z"/>
    </symbol>
  
    <symbol id="icon-pin" viewBox="0 0 512 512">
      <path d="m224 352l32 160 32-160c-10 1-21 2-32 2-10 0-22-1-32-2z m127-149c-16-9-31-30-31-43l0-32c0-11 6-19 12-26 7-6 12-14 12-22 0-27-31-48-88-48-57 0-87 21-87 48 0 8 4 16 12 22 5 7 11 15 11 26l0 32c0 13-14 34-31 43-19 9-35 27-35 44 0 37 51 74 130 74 80 0 130-37 130-74 0-17-15-34-35-44z"/>
    </symbol>
  
    <symbol id="icon-shield" viewBox="0 0 512 512">
      <path d="m384 274l0-183-128 0 0 325c23-12 43-25 61-39 45-35 67-69 67-103z m55-219l0 219c0 17-3 33-10 49-6 16-14 30-23 43-10 12-21 24-34 36-13 12-25 22-36 30-11 8-23 15-35 22-12 7-20 12-25 14-5 2-10 4-13 6-2 1-4 1-7 1-3 0-5 0-7-1-3-2-8-4-13-6-5-2-13-7-25-14-12-7-24-14-35-22-11-8-23-18-36-30-13-12-24-24-34-36-9-13-17-27-23-43-7-16-10-32-10-49l0-219c0-5 2-9 6-13 3-4 7-5 12-5l330 0c5 0 9 1 12 5 4 4 6 8 6 13z"/>
    </symbol>
  
    <symbol id="icon-unlock-alt" viewBox="0 0 512 512">
      <path d="m393 219c8 0 14 3 20 8 5 6 8 12 8 20l0 164c0 8-3 15-8 20-6 5-12 8-20 8l-274 0c-8 0-14-3-20-8-5-5-8-12-8-20l0-164c0-8 3-14 8-20 6-5 12-8 20-8l9 0 0-91c0-35 13-65 38-90 25-25 55-38 90-38 35 0 65 13 90 38 25 25 38 55 38 90 0 5-2 9-5 13-4 3-8 5-13 5l-19 0c-5 0-9-2-12-5-4-4-6-8-6-13 0-20-7-37-21-52-15-14-32-21-52-21-20 0-37 7-52 21-14 15-21 32-21 52l0 91z"/>
    </symbol>
  
    <symbol id="icon-customer" viewBox="0 0 512 512">
      <path d="m256 48c-115 0-208 93-208 208 0 115 93 208 208 208 115 0 208-93 208-208 0-115-93-208-208-208z m0 17c105 0 191 86 191 191 0 47-17 89-45 122-20-8-66-24-93-32-2-1-2-1-2-11 0-8 3-16 6-23 4-7 8-20 10-31 4-5 10-15 13-33 3-17 2-22 0-28 0-1-1-1-1-2-1-3 0-23 3-38 2-11 0-33-15-52-9-11-26-26-58-28l-18 0c-31 2-48 17-58 28-14 19-17 41-15 52 3 15 4 35 3 38 0 1 0 2 0 2-2 6-4 12-1 28 4 18 10 28 14 33 2 11 6 24 9 31 3 6 4 13 4 24 0 10 0 10-3 11-28 8-72 24-90 32-28-34-45-76-45-123 0-105 86-191 191-191z"/>
    </symbol>
  
    <symbol id="icon-user-mini" viewBox="0 0 512 512">
      <path d="m256 320c88 0 160-71 160-160 0-88-72-160-160-160-89 0-160 72-160 160 0 88 72 160 160 160z m0-278c65 0 118 53 118 118 0 65-53 119-118 119-65 0-119-53-119-119 0-65 54-118 119-118z m0 324c-127 0-213 50-213 125 0 12 10 21 21 21l383 0c12 0 21-9 21-21 0-75-85-125-212-125z m-166 104c17-37 80-63 166-63 86 0 150 25 166 63z"/>
    </symbol>
  
    <symbol id="icon-bank" viewBox="0 0 512 512">
      <path d="m25 459l472 0 0 50-472 0z m485-294l-236-149c-8-5-18-5-26 0l-236 149c-10 6-14 17-11 28 3 11 13 18 24 18l472 0c11 0 21-7 24-18 3-11-2-22-11-28z m-435 71l74 0 0 198-74 0z m149 0l74 0 0 198-74 0z m149 0l74 0 0 198-74 0z"/>
    </symbol>
  
    <symbol id="icon-card" viewBox="0 0 512 512">
      <path d="m464 90l-416 0c-25 0-42 17-42 42l0 20 500 0 0-20c0-25-20-42-42-42z m-458 292c0 23 17 43 42 43l416 0c22 0 42-18 42-43l0-167-500 0z m355-42l63 0c12 0 20 10 20 20 0 12-10 20-20 20l-63 0c-12 0-20-10-20-20-2-10 8-20 20-20z"/>
    </symbol>
  
    <symbol id="icon-plug-app" viewBox="0 0 512 512">
      <path d="m503 117c-14-12-33-12-47 0l-21 23-47-46 23-22c12-11 14-30 3-44 0 0 0 0-3-2-11-12-32-12-44 0l-23 23c-33-21-75-16-101 12l-16 11c-54 54-61 138-19 202l-2 2c-31 30-31 82 0 114 7 7 7 17 0 24-5 7-14 7-21 0l-47-47c-30-30-82-33-115 0-32 30-32 82-2 115l5 4c11 12 32 12 44 0 12-11 12-32 0-44l0-7c-7-7-7-17 0-21 7-7 17-7 24-3l44 45c30 33 82 33 114 0 33-33 33-82 0-115-7-4-7-14-2-21 0 0 2-2 2-2l3-2c63 42 147 32 201-21l14-12c26-28 30-70 9-101l24-23c11-9 11-30 0-42z m-59 147c-19 19-49 19-68 0l-114-114c-19-19-19-49 0-68 14-14 37-19 56-10l-21 22c-12 11-14 30-2 44 0 0 0 0 2 2 12 12 33 12 44 0l24-23 44 44-23 24c-12 11-12 32 0 44 11 12 30 14 42 2 0 0 2-2 2-2l21-21c12 21 7 42-7 56z"/>
    </symbol>
  
    <symbol id="icon-trends" viewBox="0 0 512 512">
      <path d="m495 383l-431 0 0-304c0-7-7-15-17-15l-32 0c-8 0-15 8-15 15l0 337c0 17 15 32 32 32l463 0c10 0 15-8 15-15l0-32c2-10-5-18-15-18z m-32-287l-117 0c-12 0-24 10-24 25 0 8 2 13 7 18l32 32-74 74-74-74c-13-13-32-13-45 0l-67 66c-7 8-7 18 0 23l23 24c7 8 17 8 22 0l44-47 75 75c12 12 32 12 44 0l97-97 32 32c10 10 25 10 34 0 5-5 8-10 8-17l0-119c0-7-8-15-17-15z"/>
    </symbol>
  
    <symbol id="icon-wallet-1" viewBox="0 0 512 512">
      <path d="m461 129l-381 0c-10 0-17-8-17-17 0-10 7-17 17-17l383 0c10 0 17-8 17-17 0-27-21-49-48-49l-369 0c-34 3-63 32-63 66l0 320c0 36 29 63 63 63l398 0c27 0 51-22 51-49l0-254c0-27-24-49-51-46z m-46 206c-17 0-32-15-32-32 0-17 15-31 32-31 17 0 31 14 31 31 0 17-12 32-31 32z"/>
    </symbol>
  
    <symbol id="icon-saving-1" viewBox="0 0 512 512">
      <path d="m498 192c-5 0-9 5-9 12 0 14-10 25-21 30-9-106-130-188-257-162-28-37-77-49-114-26-4 3-7 10-4 14 2 3 2 3 4 5 14 9 26 23 31 39-40 26-70 65-79 109l-35 0c-7 0-12 7-12 12l0 83c0 7 5 12 12 12l51 0c19 34 51 64 86 81l0 67c0 7 4 9 11 9 5 0 10-5 10-9l0-58c55 21 113 21 169 0l0 58c0 7 4 9 11 9 5 0 9-5 9-9l0-67c58-26 100-81 105-146 25-5 41-26 41-51 3-7-2-12-9-12z m-368 44c-12 0-21-11-21-23 0-11 9-21 21-21 11 0 21 10 21 21 0 12-10 23-21 23z m229-69c-5 5-9 7-14 2-28-21-62-32-99-30-7 0-12-5-12-9 0-7 5-12 9-12 40-2 81 10 114 33 4 7 7 11 2 16z"/>
    </symbol>
  
    <symbol id="icon-lock" viewBox="0 0 512 512">
      <path d="m183 219l146 0 0-54c0-21-7-38-21-52-15-14-32-22-52-22-20 0-37 8-52 22-14 14-21 31-21 52z m238 28l0 164c0 8-3 15-8 20-6 5-12 8-20 8l-274 0c-8 0-14-3-20-8-5-5-8-12-8-20l0-164c0-8 3-14 8-20 6-5 12-8 20-8l9 0 0-54c0-35 13-66 38-91 25-25 55-37 90-37 35 0 65 12 90 37 25 25 38 56 38 91l0 54 9 0c8 0 14 3 20 8 5 6 8 12 8 20z"/>
    </symbol>
  
    <symbol id="icon-deposit-full" viewBox="0 0 512 512">
      <path d="m256 0c-142 0-256 114-256 256 0 142 114 256 256 256 142 0 256-114 256-256 0-142-114-256-256-256z m114 284l-86 0 0 86c0 17-11 28-28 28-17 0-28-11-28-28l0-86-86 0c-17 0-28-11-28-28 0-17 11-28 28-28l86 0 0-86c0-17 11-28 28-28 17 0 28 11 28 28l0 86 86 0c17 0 28 11 28 28 0 17-11 28-28 28z"/>
    </symbol>
  
    <symbol id="icon-gear-full" viewBox="0 0 512 512">
      <path d="m509 325l-59-42c0-9 3-17 0-26 0-8 0-16 0-25l56-42c6-3 6-11 3-17l-53-89c-3-6-11-8-17-6l-64 26c-14-12-28-20-45-26l-8-67c-3-5-9-11-14-11l-104 0c-8 0-14 6-14 11l-11 67c-17 6-31 14-45 26l-64-26c-6-2-14 0-17 6l-53 87c0 5 0 14 3 16l56 42c0 9 0 17 0 26 0 8 0 16 0 25l-56 42c-3 5-3 14 0 19l53 87c3 6 11 8 17 6l64-26c14 12 28 20 45 26l11 67c0 5 6 11 14 11l101 0c5 0 11-6 14-11l11-67c17-6 31-14 45-26l64 26c6 2 14 0 17-6l53-89c0-3 0-12-3-14z m-252 22c0 0-2 0 0 0-50-3-89-45-89-92 0-51 42-90 92-87 48 0 87 42 87 89 0 48-42 90-90 90z"/>
    </symbol>
  
    <symbol id="icon-gift-full" viewBox="0 0 512 512">
      <path d="m234 294l-171 0c-6 0-8 3-8 8l0 137c0 39 33 73 72 73l107 0c2 0 5-3 5-6l0-209c-3-3-3-3-5-3z m204-165l-48 0c0 0-3 0-3-3 23-39 12-90-27-112-34-22-79-14-104 17-28-37-81-42-115-11-33 25-42 70-19 106 0 0 0 3 0 3l-48 0c-31 0-56 25-56 56l0 19c0 31 25 56 56 56l160 0c2 0 5-3 5-5l0-126-47 0c-26 0-45-20-48-45 0-25 20-48 45-48 25-2 47 17 47 42 0 0 0 3 0 3l0 45 37 0 0-45c0-25 19-45 45-45 25 0 44 20 44 45 0 25-19 45-44 45l-42 0 0 126c0 3 2 5 5 5l157 0c31 0 56-25 56-56l0-19c0-28-25-53-56-53z m11 165l-171 0c-2 0-5 3-5 5l0 210c0 3 3 6 5 6l107 0c39 0 72-34 72-73l0-137c0-8-2-11-8-11z"/>
    </symbol>
  
    <symbol id="icon-transfer-1" viewBox="0 0 512 512">
      <path d="m305 315l-242 0 58-58c7-7 7-18 0-25-7-8-18-8-25 0l-89 88c-1 2-3 4-3 5 0 2 0 4-2 6 0 0 0 2 0 2 0 1 0 3 2 7 0 2 2 3 3 5l89 88c3 4 9 6 12 6 4 0 9-2 13-6 7-7 7-18 0-25l-58-57 242 0c10 0 18-8 18-18 0-11-8-18-18-18z m205-128c2-4 2-9 0-15 0-2-2-3-4-5 0 0 0 0 0-2l-90-86c-7-8-18-8-25 0-7 7-7 18 0 25l58 57-242 0c-10 0-18 8-18 18 0 11 8 18 18 18l242 0-58 58c-7 7-7 18 0 25 4 4 9 6 13 6 3 0 9-2 12-6l89-88c0 0 0 0 0-2 3 0 3-2 5-3z"/>
    </symbol>
  
    <symbol id="icon-user-full" viewBox="0 0 512 512">
      <path d="m256 257c62 0 112-56 118-126 2-33-9-67-31-92-45-50-123-50-171-5 0 0-3 2-3 2-22 26-33 59-31 93 3 70 56 128 118 128z m238 210c-9-53-42-100-87-128-92-59-207-59-299 0-45 28-79 75-87 128-3 11 0 25 8 34 6 8 17 14 28 14l403 0c11 0 20-6 28-14 3-11 9-23 6-34z"/>
    </symbol>
  
    <symbol id="icon-check-square-o" viewBox="0 0 512 512">
      <path d="m421 266l0 91c0 22-8 42-25 58-16 16-35 24-58 24l-237 0c-23 0-42-8-59-24-16-16-24-36-24-58l0-238c0-23 8-42 24-58 17-16 36-24 59-24l237 0c12 0 23 2 34 7 3 1 4 3 5 6 0 4 0 6-3 9l-14 14c-2 1-4 2-6 2-1 0-2 0-3 0-4-1-9-2-13-2l-237 0c-13 0-24 5-33 14-9 9-13 19-13 32l0 238c0 12 4 23 13 32 9 9 20 13 33 13l237 0c13 0 24-4 33-13 9-9 13-20 13-32l0-73c0-2 1-5 3-6l18-19c2-1 4-2 6-2 2 0 3 0 4 0 4 2 6 5 6 9z m66-140l-233 233c-5 4-10 6-16 6-7 0-12-2-17-6l-122-123c-5-5-7-10-7-17 0-6 2-11 7-16l31-31c5-5 10-7 16-7 7 0 12 2 17 7l75 75 185-185c4-5 10-7 16-7 6 0 12 2 16 7l32 31c4 5 6 10 6 17 0 6-2 11-6 16z"/>
    </symbol>
  
    <symbol id="icon-android-time" viewBox="0 0 512 512">
      <path d="m256 43c-118 0-213 96-213 213 0 117 95 213 213 213 118 0 213-96 213-213 0-117-96-213-213-213z m0 383c-94 0-170-76-170-170 0-94 76-170 170-170 94 0 170 76 170 170 0 94-76 170-170 170z m11-276l-32 0 0 127 112 67 16-26-96-57z"/>
    </symbol>
  
    <symbol id="icon-sce-cart2" viewBox="0 0 512 512">
      <path d="m248 354c-27 0-49 22-49 49 0 27 22 49 49 49 27 0 49-22 49-49 0-27-22-49-49-49z m0 74c-13 0-25-11-25-25 0-14 12-25 25-25 14 0 25 11 25 25 0 14-11 25-25 25l0 3z m173-74c-27 0-49 22-49 49 0 27 22 49 49 49 27 0 49-22 49-49 0-27-22-49-49-49z m25 49c0 14-11 25-25 25-13 0-25-11-25-25 0-14 12-25 25-25 14 0 25 11 25 25z m48-91l-292 0-7-25 283-46 0 0c8-2 13-8 12-15l15-114c1-2 1-3 1-4l0-3c0-7-6-13-13-13l-316 0c-7 0-12 6-12 13l0 3c0 7 5 12 12 12l299 0-13 95-276 45-59-190c-2-6-7-10-13-10l-97 0c-4 0-8 1-10 4-3 2-4 6-4 10 0 3 1 7 4 10 2 2 6 4 10 4l87 0 74 241c2 6 7 10 13 10l302 0c8 0 14-6 14-14 0-7-6-13-14-13z"/>
    </symbol>
  
    <symbol id="icon-saving-coins" viewBox="0 0 512 512">
      <path d="m0 248l0 14c0 36 67 67 148 67 14 0 28 0 42-3l0-143c-14-3-28-3-42-3-81 0-148 31-148 68z m3 61c-3 6-3 9-3 14l0 14c0 37 67 67 148 67 14 0 28 0 42-3l0-41c-14 2-28 2-42 2-70 0-131-22-145-53z m361-243c-81 0-149 31-149 67l0 14c0 36 68 67 149 67 81 0 148-31 148-67l0-14c0-36-64-67-148-67z m0 182c-73 0-132-23-146-54-3 6-3 9-3 14l0 14c0 37 68 68 149 68 81 0 148-31 148-68l0-14c0-5 0-8-3-14-14 31-73 54-145 54z m0 75c-73 0-132-22-146-53-3 6-3 8-3 14l0 14c0 36 68 67 149 67 81 0 148-31 148-67l0-14c0-6 0-8-3-14-14 31-73 53-145 53z m0 81c-73 0-132-22-146-53-3 6-3 9-3 14l0 14c0 36 68 67 149 67 81 0 148-31 148-67l0-14c0-5 0-8-3-14-14 31-73 53-145 53z"/>
    </symbol>
  
    <symbol id="icon-network" viewBox="0 0 512 512">
      <path d="m135 177c-7 0-15 2-21 5c-17-17-32-39-47-65c18-26 40-46 65-61c32 13 57 27 78 42c-2 6-3 11-3 17c0 2 1 5 2 11c-21 16-41 34-59 53c-6-1-11-2-15-2m-50 50c0 12 3 22 10 31c-20 39-34 79-41 119c-22-36-34-77-34-121c0-38 9-73 26-105c13 21 27 40 43 57c-3 8-4 15-4 19m172-162c-10 0-18 2-26 7c-19-15-39-27-58-36c29-10 56-16 83-16c41 0 80 11 118 32c-26 5-54 14-83 26c-9-9-20-13-34-13m75 235c-55-8-104-27-149-57c2-7 2-12 2-16c0-8-2-17-7-26c13-15 30-31 50-46c9 6 19 10 29 10c5 0 11-1 19-4c33 37 55 78 69 123c-5 4-10 10-13 16m65 68c13-5 23-15 28-31c20-1 38-5 55-9c-15 50-44 89-85 118c2-16 3-33 3-50c0-3 0-8 0-14c-1-6-1-11-1-14m-76-34c-65 33-117 79-156 139c-31-12-58-31-81-56c4-49 18-96 41-141c2 1 5 2 10 2c10 0 19-3 27-8c48 34 101 55 159 64m94-252c51 46 77 104 77 174c0 8-1 19-3 34c-21 6-44 10-66 12c-8-19-23-29-45-31c-17-49-42-95-76-135c3-7 5-14 5-21c0 0 0-5 0-5c34-15 70-24 108-28m-70 278c5 4 10 7 16 10c1 6 1 15 1 26c0 28-2 52-7 74c-29 14-62 22-99 22c-20 0-39-3-57-7c37-54 86-96 146-125"/>
    </symbol>
  
    <symbol id="icon-clone" viewBox="0 0 512 512">
      <path d="m475 466l0-311c0-2 0-4-2-6-2-2-4-3-7-3l-311 0c-2 0-4 1-6 3-2 2-3 4-3 6l0 311c0 3 1 5 3 7 2 2 4 2 6 2l311 0c3 0 5 0 7-2 2-2 2-4 2-7z m37-311l0 311c0 13-4 24-13 33-9 9-20 13-33 13l-311 0c-12 0-23-4-32-13-9-9-13-20-13-33l0-311c0-12 4-23 13-32 9-9 20-13 32-13l311 0c13 0 24 4 33 13 9 9 13 20 13 32z m-110-109l0 45-36 0 0-45c0-3-1-5-3-7-2-2-4-2-6-2l-311 0c-3 0-5 0-7 2-2 2-2 4-2 7l0 311c0 2 0 4 2 6 2 2 4 3 7 3l45 0 0 36-45 0c-13 0-24-4-33-13-9-9-13-20-13-32l0-311c0-13 4-24 13-33 9-9 20-13 33-13l311 0c12 0 23 4 32 13 9 9 13 20 13 33z"/>
    </symbol>
  
    <symbol id="icon-layers-outline" viewBox="0 0 512 512">
      <path d="m482 343l-48-24 48-22c26-12 29-31 29-39 0-7-3-26-32-38l-50-27 50-24c27-12 29-31 29-39 0-7-2-26-29-38l-181-82c-29-12-60-12-89 0l-179 82c-26 12-29 31-29 41 0 7 3 26 29 38l51 25-51 21c-26 12-29 32-29 39 0 7 3 27 29 39l51 24-51 22c-26 14-29 33-29 41 0 7 3 26 29 38l179 82c14 5 29 10 46 10 17 0 31-2 48-10l179-82c26-12 29-31 29-38 0-8-3-27-29-39z m-254-287c17-8 36-8 51 0l169 77-85 38-77 37c-19 7-38 7-55 0l-169-78z m-87 164l70 31c15 5 29 10 46 10 17 0 32-3 49-10l67-31 80 36-167 75c-19 7-38 7-55 0l-167-77z m143 236c-20 8-39 8-56 0l-166-77 79-36 70 31c15 5 29 10 46 10 17 0 32-2 49-10l72-33 77 36z"/>
    </symbol>
  
</svg>
