<svg xmlns="http://www.w3.org/2000/svg" xml:space="preserve" viewBox="1 1 510 511"><path d="m482 343-48-24 48-22c26-12 29-31 29-39 0-7-3-26-32-38l-50-27 50-24c27-12 29-31 29-39 0-7-2-26-29-38L298 10c-29-12-60-12-89 0L30 92C4 104 1 123 1 133c0 7 3 26 29 38l51 25-51 21C4 229 1 249 1 256s3 27 29 39l51 24-51 22C4 355 1 374 1 382c0 7 3 26 29 38l179 82c14 5 29 10 46 10s31-2 48-10l179-82c26-12 29-31 29-38 0-8-3-27-29-39zM228 56c17-8 36-8 51 0l169 77-85 38-77 37c-19 7-38 7-55 0L62 130zm-87 164 70 31c15 5 29 10 46 10s32-3 49-10l67-31 80 36-167 75c-19 7-38 7-55 0L64 254zm143 236c-20 8-39 8-56 0L62 379l79-36 70 31c15 5 29 10 46 10s32-2 49-10l72-33 77 36z"/></svg>