<svg xmlns="http://www.w3.org/2000/svg" xml:space="preserve" viewBox="0 37 512 402"><path d="M110 338v19c0 2-1 4-3 6s-4 3-6 3H82c-2 0-4-1-6-3s-3-4-3-6v-19c0-2 1-4 3-6s4-3 6-3h19c2 0 4 1 6 3s3 4 3 6zm0-73v18c0 3-1 5-3 7s-4 3-6 3H82c-2 0-4-1-6-3s-3-4-3-7v-18c0-2 1-4 3-6s4-3 6-3h19c2 0 4 1 6 3s3 4 3 6zm0-73v18c0 3-1 5-3 7s-4 2-6 2H82c-2 0-4 0-6-2s-3-4-3-7v-18c0-2 1-5 3-6 2-2 4-3 6-3h19c2 0 4 1 6 3 2 1 3 4 3 6zm329 146v19c0 2-1 4-3 6s-4 3-6 3H155c-2 0-4-1-6-3s-3-4-3-6v-19c0-2 1-4 3-6s4-3 6-3h275c2 0 4 1 6 3s3 4 3 6zm0-73v18c0 3-1 5-3 7s-4 3-6 3H155c-2 0-4-1-6-3s-3-4-3-7v-18c0-2 1-4 3-6s4-3 6-3h275c2 0 4 1 6 3s3 4 3 6zm0-73v18c0 3-1 5-3 7s-4 2-6 2H155c-2 0-4 0-6-2s-3-4-3-7v-18c0-2 1-5 3-6 2-2 4-3 6-3h275c2 0 4 1 6 3 2 1 3 4 3 6zm36 201V155c0-2 0-4-2-6s-4-3-7-3H46c-3 0-5 1-7 3s-2 4-2 6v238c0 3 0 5 2 7 2 1 4 2 7 2h420c3 0 5-1 7-2 2-2 2-4 2-7zm37-311v311c0 13-4 23-13 32s-20 14-33 14H46c-13 0-24-5-33-14S0 406 0 393V82c0-12 4-23 13-32s20-13 33-13h420c13 0 24 4 33 13s13 20 13 32z"/></svg>