<svg xmlns="http://www.w3.org/2000/svg" xml:space="preserve" viewBox="20 0.07 472 511.93"><path d="M492 50v193c0 53-16 101-46 145-7 9-19 11-28 4-9-6-11-19-5-28 26-36 39-77 39-121V50c0-4-3-7-4-8-2-1-5-3-9-1-38 11-101 26-183 26S111 52 73 41c-4-2-7 0-9 1-1 1-4 4-4 8v193c0 121 104 191 166 222 19 9 41 9 61 0 21-10 42-22 60-35 9-7 21-5 28 4 6 9 4 22-5 28-20 15-42 28-66 39-15 7-31 11-47 11-17 0-33-4-49-11-32-17-79-44-118-86-46-50-70-108-70-172V50c0-16 7-31 20-40C53 0 70-2 85 2c35 11 94 25 171 25S392 13 427 2c15-4 32-2 45 8 12 9 20 24 20 40zM148 316c-1-6 0-13 3-18 4-5 10-8 17-8h171c7 0 13 3 16 8 4 5 5 12 3 18 0 2-6 21-21 40-22 26-51 40-84 40s-61-14-83-40c-15-19-21-38-22-40zm53 14c10 13 27 26 52 26 26 0 42-13 53-26zm-30-130c17 0 28 11 28 11 4 5 9 7 15 7 5 0 9-2 13-5 8-7 9-20 2-28-2-3-23-25-58-25-36 0-56 22-58 25-8 8-7 21 1 28 4 3 9 5 14 5s11-2 15-7c0 0 10-11 28-11zm170-40c-35 0-56 22-58 25-7 8-7 21 2 28 4 3 8 5 13 5s11-2 15-7c0 0 11-11 28-11 18 0 28 11 28 11 4 5 10 7 15 7s10-2 14-5c8-7 9-20 1-28-2-3-23-25-58-25z"/></svg>