<svg xmlns="http://www.w3.org/2000/svg" viewBox="0 0 512 512"><path d="M106 362c-41.807 0-75 34.21-75 75 0 41.353 33.647 75 75 75s75-33.647 75-75-33.647-75-75-75zm15 90H91v-30h30zM406.001 361.971C363.568 361.419 330.988 395.477 331 437c0 41.353 33.647 75 75 75s75-33.647 75-75c0-12.617-10.447-74.19-74.999-75.029zM421 452h-30v-30h30zM512 242H0v-60h512zM460.272 152l-15-30H391V97.728l-60-30v-30L256 0l-57.041 28.748-30-28.748L91 37.728v60l-65.127 32.563L36.728 152z"/><path d="m35.197 272 23.817 71.266C74.832 335.274 91.551 332 106 332c57.891 0 105 47.109 105 105 0 5.136-.8 10.058-1.516 15h93.032c-.716-4.942-1.516-9.864-1.516-15-.03-57.92 45.576-105.029 103.989-105.029 19.527 0 34.526 4.5 47.961 11.404L476.803 272z"/></svg>