<svg xmlns="http://www.w3.org/2000/svg" xml:space="preserve" viewBox="56 38 400 436"><path d="M456 396c0 22-8 41-23 56s-33 22-56 22c-25 0-48-9-67-28L88 224c-21-22-32-48-32-77 0-31 10-56 31-78 21-21 47-31 77-31s56 10 78 32l173 173c2 2 3 4 3 6 0 3-3 8-9 14s-10 8-13 8c-2 0-5-1-7-2L216 95c-15-15-32-22-51-22-21 0-38 7-52 22-13 14-20 31-20 51s7 38 21 52l222 222c12 12 26 18 41 18 13 0 23-4 31-12s12-18 12-30c0-16-6-30-18-42L236 188c-5-4-11-7-17-7s-11 2-14 6c-4 3-6 8-6 14s3 11 8 16l117 118c2 1 3 4 3 6 0 3-3 7-9 13s-11 9-14 9c-2 0-4-1-6-3L181 243c-12-11-18-26-18-42s5-29 16-40 24-16 40-16c17 0 31 6 42 18l166 166c19 18 29 41 29 67z"/></svg>