<svg xmlns="http://www.w3.org/2000/svg" xml:space="preserve" viewBox="0 32 512 448"><path d="M352 171c-2 0-4-1-6-2-29-22-64-32-100-30-6 0-11-4-11-10-1-6 4-11 10-11 40-3 81 9 113 33 5 4 6 11 3 15-3 3-6 5-9 5zm107 85c-6 0-11-5-11-11s5-10 11-10c17 0 32-15 32-32 0-6 4-11 10-11s11 5 11 11c0 29-24 53-53 53zM256 427c-84 0-160-42-194-107H11c-6 0-11-5-11-11v-85c0-6 5-11 11-11h35c9-44 38-84 80-111-4-17-15-31-30-40-3-2-5-5-5-9s2-8 5-9c20-12 43-15 65-9 20 5 36 17 48 34 69-14 141 3 193 44 43 35 67 82 67 132 0 100-95 182-213 182zM21 299h47c4 0 8 2 10 6 29 61 99 100 178 100 106 0 192-71 192-160 0-44-21-85-59-115-49-39-117-54-183-39-5 1-9-1-12-5-8-15-22-26-38-30-11-3-23-3-33-1 14 13 23 31 25 50 1 5-1 9-5 11-43 26-71 66-78 109 0 6-5 10-10 10H21zm107-107c-12 0-21 10-21 21 0 12 9 22 21 22s21-10 21-22c0-11-9-21-21-21zm32 288c-6 0-11-5-11-11v-73c0-6 5-11 11-11s11 5 11 11v73c0 6-5 11-11 11zm192 0c-6 0-11-5-11-11v-73c0-6 5-11 11-11s11 5 11 11v73c0 6-5 11-11 11z"/></svg>