<svg xmlns="http://www.w3.org/2000/svg" xml:space="preserve" viewBox="2 34.28 505.89 442.72"><path d="M498 192c-5 0-9 5-9 12 0 14-10 25-21 30-9-106-130-188-257-162-28-37-77-49-114-26-4 3-7 10-4 14 2 3 2 3 4 5 14 9 26 23 31 39-40 26-70 65-79 109H14c-7 0-12 7-12 12v83c0 7 5 12 12 12h51c19 34 51 64 86 81v67c0 7 4 9 11 9 5 0 10-5 10-9v-58c55 21 113 21 169 0v58c0 7 4 9 11 9 5 0 9-5 9-9v-67c58-26 100-81 105-146 25-5 41-26 41-51 3-7-2-12-9-12zm-368 44c-12 0-21-11-21-23 0-11 9-21 21-21 11 0 21 10 21 21 0 12-10 23-21 23zm229-69c-5 5-9 7-14 2-28-21-62-32-99-30-7 0-12-5-12-9 0-7 5-12 9-12 40-2 81 10 114 33 4 7 7 11 2 16z"/></svg>