<svg xmlns="http://www.w3.org/2000/svg" xml:space="preserve" viewBox="37 73 438 366"><path d="M375 256c0 5-2 9-6 13L214 424c-4 4-8 6-13 6s-9-2-13-6c-3-3-5-8-5-13v-82H55c-5 0-9-2-13-5-4-4-5-8-5-13V201c0-5 1-9 5-13 4-3 8-5 13-5h128v-82c0-5 2-10 5-13 4-4 8-6 13-6s9 2 13 6l155 155c4 4 6 8 6 13zm100-101v202c0 22-8 42-24 58s-35 24-58 24h-91c-3 0-5-1-7-3s-2-4-2-6c0-1-1-3-1-6v-8c0-2 1-4 1-6 0-3 1-5 3-6 1-1 3-2 6-2h91c13 0 23-4 32-13s14-20 14-32V155c0-12-5-23-14-32s-19-13-32-13h-89l-3-1h-4l-2-2-2-3v-3c0-1-1-3-1-6v-8c0-2 1-4 1-6 0-3 1-5 3-6 1-1 3-2 6-2h91c23 0 42 8 58 24s24 36 24 58z"/></svg>