<svg xmlns="http://www.w3.org/2000/svg" version="1.1" id="Layer_1" x="0" y="0" xml:space="preserve" viewBox="0 0 14 19"><g id="average"><path fill="#13171e" d="M21.5 28.8c-.6 0-1-.4-1-1v-4.2c0-.6.4-1 1-1s1 .4 1 1v4.2c0 .5-.4 1-1 1zM25.5 29c-.6 0-1-.4-1-1v-8.5c0-.6.4-1 1-1s1 .4 1 1V28c0 .6-.4 1-1 1z" transform="translate(-20.5 -10.5)"/><path fill="#babdc1" d="M29.5 29.2c-.6 0-1-.4-1-1V15.5c0-.6.4-1 1-1s1 .4 1 1v12.8c0 .5-.4.9-1 .9zM33.5 29.5c-.6 0-1-.4-1-1v-17c0-.6.4-1 1-1s1 .4 1 1v17c0 .6-.4 1-1 1z" transform="translate(-20.5 -10.5)"/></g></svg>