<svg xmlns="http://www.w3.org/2000/svg" xml:space="preserve" viewBox="37 37 438 475"><path d="M110 128c0-5-2-9-6-13-3-3-8-5-13-5s-9 2-12 5c-4 4-6 8-6 13s2 9 6 13c3 3 7 5 12 5s10-2 13-5c4-4 6-8 6-13zm329 165c0-7-2-15-6-24-4-8-9-13-16-13 3-3 6-8 8-14 1-5 2-11 2-15 0-14-5-25-15-34 4-7 5-13 5-20s-1-14-5-21c-3-7-7-12-13-15 1-6 1-11 1-16 0-16-4-28-14-36-9-8-22-12-39-12h-36c-25 0-58 7-98 21-1 0-4 1-8 3-5 2-8 3-10 4-2 0-6 1-10 3-5 1-8 2-11 3s-6 1-10 2c-3 0-6 1-9 1h-9v183h9c3 0 7 0 11 2 3 2 7 4 11 8 4 3 8 7 11 10s7 8 11 13c5 5 8 9 10 12 3 3 6 7 9 11 4 5 6 8 7 9 10 13 18 22 22 26 8 8 13 19 17 31 3 13 6 25 9 36 2 11 5 19 10 24 19 0 31-4 37-13s9-23 9-41c0-12-4-27-14-46-9-20-13-35-13-46h100c10 0 18-4 26-11 7-7 11-16 11-25zm36 0c0 19-7 37-21 51-15 14-32 22-52 22h-50c9 19 14 37 14 55 0 22-4 40-10 53-7 13-17 23-29 29-13 6-28 9-44 9-9 0-18-4-25-11-7-6-12-14-16-23s-6-18-7-26-3-16-5-24-5-14-9-18c-9-10-19-22-30-37-20-25-33-39-40-44H73c-10 0-19-3-26-11-7-7-10-15-10-25V110c0-10 3-19 10-26s16-11 26-11h82c5 0 18-4 40-11 24-9 45-15 64-19 18-4 37-6 57-6h32c26 0 48 7 64 22 17 15 25 36 25 62v1c11 15 17 32 17 51 0 4 0 8-1 12 7 13 11 27 11 42 0 6-1 13-3 19 10 14 14 30 14 47z"/></svg>