<svg xmlns="http://www.w3.org/2000/svg" xml:space="preserve" viewBox="0.1 0 479.9 352.01"><path d="M480 111.9c0 4.3-1.6 8.3-4.6 11.4l-96 96c-3 3-7.1 4.7-11.4 4.6-2.1 0-4.1-.4-6.1-1.1-6-2.5-10-8.4-9.9-14.9v-48H208c-8.8 0-16-7.2-16-16v-64c0-8.8 7.2-16 16-16h144v-48c0-8.8 7.2-16 16.1-15.9 4.2 0 8.3 1.7 11.3 4.7l96 96c2.9 3 4.6 7 4.6 11.2zm-208 80H128v-48c0-6.5-3.9-12.3-9.9-14.7-6-2.5-12.8-1.2-17.4 3.4l-96 96c-3 3-4.7 7.1-4.6 11.4 0 4.3 1.6 8.3 4.6 11.4l96 96c3 3 7.1 4.7 11.4 4.6 2.1.1 4.2-.4 6.1-1.3 6-2.5 9.9-8.3 9.9-14.7v-48h144c8.8 0 16-7.2 16-16v-64c-.1-8.9-7.3-16.1-16.1-16.1z"/></svg>