<?xml version="1.0" encoding="utf-8"?>
<!-- Generator: Adobe Illustrator 28.2.0, SVG Export Plug-In . SVG Version: 6.00 Build 0)  -->
<svg version="1.1" id="Layer_1" xmlns="http://www.w3.org/2000/svg" xmlns:xlink="http://www.w3.org/1999/xlink" x="0px" y="0px"
	 viewBox="0 0 732.5 668" style="enable-background:new 0 0 732.5 668;" xml:space="preserve">
<style type="text/css">
	.st0{fill-rule:evenodd;clip-rule:evenodd;}
</style>
<path d="M608.5,0h-420c-68.4,0-124,55.6-124,124v84H25c-13.8,0-25,11.2-25,25s11.2,25,25,25h39.5v51H25c-13.8,0-25,11.2-25,25
	c0,13.8,11.2,25,25,25h39.5v51H25c-13.8,0-25,11.2-25,25s11.2,25,25,25h39.5v84c0,68.4,55.6,124,124,124h420
	c68.4,0,124-55.6,124-124V124C732.5,55.6,676.9,0,608.5,0z M682.5,544c0,40.8-33.2,74-74,74h-420c-40.8,0-74-33.2-74-74v-84H154
	c13.8,0,25-11.2,25-25s-11.2-25-25-25h-39.5v-51H154c13.8,0,25-11.2,25-25c0-13.8-11.2-25-25-25h-39.5v-51H154c13.8,0,25-11.2,25-25
	s-11.2-25-25-25h-39.5v-84c0-40.8,33.2-74,74-74h420c40.8,0,74,33.2,74,74V544z"/>
<path class="st0" d="M527.4,339.6c-16.3-7-26.9-11.8-43.9-15.8c10.3-14.1,19.7-31.8,19.7-50.5v-42.6c0-47-47.4-85.2-94.4-85.2
	s-98.5,38.2-98.5,85.2v42.6c0,19,6.7,36.3,17.2,50.5c-13.4,3.9-21.2,8.4-38.1,16.4c-30.6,14.5-51,44.1-51,78.2v58.3l9.9,6.3
	c41.7,26.3,89.2,42.1,137.6,45.8c7.6,0.6,15,0.9,22.2,0.9c74.5,0,132.1-28.5,161.1-46.6l10-6.3v-58.7
	C579.3,384.1,558.9,353.3,527.4,339.6z M350.2,230.7c0-23.5,35.2-42.6,58.8-42.6h0c23.5,0,54.6,19.1,54.6,42.6v42.6
	c0,23-30.5,41.7-53.4,42.3c-0.9,0-1.8,0-2.7,0c-22.8-0.8-57.3-19.3-57.3-42.3V230.7z M536.7,453c-30,16.8-82.5,38.4-147.5,33.5
	c-37.7-2.9-74.8-14.4-108.1-33.4v-34.6c0-17.1,9.9-32.4,25.3-39.1c31.8-13.8,64.7-20.7,98-21.3l0,0c0.6,0,1.9,0,3.2,0.1l0.4,0l0.4,0
	c1.6,0,3.1,0,3.7,0c5.5,0.1,10.9-0.1,16.4,0.3c28.1,2.1,55.7,9,82,20.3c15.8,6.9,26.1,22.3,26.1,39.4V453z"/>
</svg>
