<?xml version="1.0" encoding="utf-8"?>
<!-- Generator: Adobe Illustrator 28.1.0, SVG Export Plug-In . SVG Version: 6.00 Build 0)  -->
<svg version="1.1" id="Layer_1" xmlns="http://www.w3.org/2000/svg" xmlns:xlink="http://www.w3.org/1999/xlink" x="0px" y="0px"
	 viewBox="0 0 34 28" style="enable-background:new 0 0 34 28;" xml:space="preserve">
<g>
	<path d="M31,0H3C1.3,0,0,1.3,0,3v3v2h2v17c0,1.7,1.3,3,3,3h24c1.7,0,3-1.3,3-3V8h2V6V3C34,1.3,32.7,0,31,0z M30,25c0,0.6-0.4,1-1,1
		H5c-0.6,0-1-0.4-1-1V8h26V25z M2,6V3c0-0.6,0.4-1,1-1h28c0.6,0,1,0.4,1,1v3H2z"/>
	<path d="M13,14h8c0.6,0,1-0.4,1-1s-0.4-1-1-1h-8c-0.6,0-1,0.4-1,1S12.4,14,13,14z"/>
</g>
</svg>
