<svg id="Layer_1" data-name="Layer 1" xmlns="http://www.w3.org/2000/svg" version="1.1" viewBox="0 0 384 359.29"><defs><style>.cls-1{fill:#000;stroke-width:0}</style></defs><path class="cls-1" d="M382.84 108.26c-3.27-9.97-12.04-16.55-22.51-16.72-6.06-.1-12.13-.02-18.34-.02v-11.8c0-13.46-7.06-20.46-20.63-20.46H104.24c0-13.6-.02-26.7 0-39.8.01-5.36 2.12-7.44 7.53-7.44 53.48-.01 106.96-.01 160.44 0 5.39 0 7.48 2.11 7.5 7.48.03 8-.01 16 .02 23.99.02 4.73 2.24 7.48 5.98 7.49 3.73.01 5.99-2.75 6.01-7.46.03-8.25.05-16.5 0-24.74C291.65 7.59 284.05.03 272.78.02 218.92 0 165.07 0 111.21.02c-11.42 0-18.94 7.61-18.98 19.09-.03 12 0 23.99 0 35.99v4.16c-10.75 0-20.98-.03-31.21 0-11.45.04-18.97 7.59-19.03 19.05-.02 4.32 0 8.65 0 13.2-6.34 0-12.2-.06-18.05.01-10.68.14-19.47 6.66-22.85 16.81-.3.91-.73 1.79-1.1 2.68v196.52c.37.89.8 1.76 1.1 2.68 3.38 10.14 12.17 16.66 22.86 16.8 5.85.08 11.71.01 18.04.01 0 4.58-.02 8.9 0 13.23.06 11.44 7.61 19.02 19.07 19.02 87.25.02 174.49.02 261.74 0 11.7 0 19.13-7.53 19.18-19.29.02-4.12 0-8.24 0-12.96 6.06 0 12 .05 17.93-.01 7.41-.08 13.87-2.72 18.3-8.66 2.54-3.4 3.88-7.69 5.76-11.58v-195c-.39-1.17-.77-2.34-1.16-3.5ZM41.74 315c-6.4 0-12.52.2-18.62-.06-5.98-.25-10.69-5.22-11.09-11.21-.08-1.12-.03-2.25-.03-3.37V118.13c0-10.28 4.31-14.61 14.53-14.62h15.21V315ZM330 338.66c0 6.88-1.75 8.63-8.63 8.63H62.63c-6.88 0-8.62-1.74-8.62-8.63V79.89c0-6.89 1.73-8.62 8.63-8.62h258.74c6.89 0 8.63 1.74 8.63 8.63v258.76Zm42-38.26c0 10.27-4.34 14.63-14.53 14.64h-15.33V103.66c6.7 0 13.3-.37 19.84.11 5.48.41 9.6 5.47 9.99 11.03.08 1.12.04 2.25.04 3.37v182.22Z"/><path class="cls-1" d="M207.02 19.53c-5-.08-10-.02-15-.02s-10-.06-15 .02c-4.45.07-6.7 2.27-6.76 6.7-.08 6-.08 12 0 18 .06 4.44 2.29 6.73 6.7 6.76 10 .07 20 .07 30 0 4.44-.03 6.7-2.29 6.76-6.7.08-6 .08-12 0-18-.06-4.45-2.28-6.69-6.71-6.76Zm-5.5 19.29h-18.98v-7.17h18.98v7.17ZM148.83 19.51c-4.32.01-7.08 2.37-7.05 6.03.02 3.65 2.8 5.98 7.13 5.97 4.3 0 7.08-2.39 7.06-6.04-.03-3.65-2.8-5.97-7.13-5.96ZM235.08 31.51c4.32.01 7.11-2.32 7.14-5.96.03-3.65-2.75-6.03-7.05-6.04-4.34-.01-7.1 2.3-7.13 5.95-.03 3.66 2.74 6.03 7.05 6.05ZM141.78 44.83c-.11 3.65 2.67 6.14 6.91 6.18 4.36.05 7.16-2.19 7.28-5.82.12-3.64-2.67-6.13-6.92-6.18-4.37-.05-7.16 2.18-7.27 5.81ZM235.29 51.01c4.24-.04 7.04-2.53 6.93-6.17-.11-3.63-2.9-5.87-7.27-5.83-4.26.04-7.03 2.51-6.92 6.16.11 3.63 2.9 5.88 7.26 5.83ZM295.74 197.99c-3.18.18-5.36 2.48-5.54 5.92-.06 1.25.01 2.5.02 3.75.18 23.61-7.06 44.67-21.73 63.17-.9 1.13-1.91 2.17-2.75 3.12-8.41-8.41-16.52-16.53-24.88-24.9 9.21-11.65 14.1-24.89 14.1-39.8 0-15.01-5.03-28.31-13.74-39.34 8.49-8.48 16.67-16.66 25.31-25.29 3.6 5.38 7.44 11.04 11.19 16.76 2.94 4.47 8.55 4.99 10.52.57.84-1.89.59-5.09-.49-6.89-4.05-6.7-8.65-13.06-13.44-20.13 2.81-2.65 5.93-5.5 8.95-8.46 3.98-3.9 4.54-7.6 1.7-10.34-2.78-2.68-6.28-2.12-10.06 1.73-3.04 3.09-5.99 6.27-8.57 8.98-49.98-37.41-99.02-37.25-148.73.04-2.71-2.86-5.67-6.07-8.73-9.17-3.7-3.76-7.36-4.23-10.07-1.42-2.66 2.76-2.21 6.19 1.47 9.78 3.2 3.12 6.52 6.11 9.36 8.75-37.43 50.03-37.44 99.05-.17 148.7-3.23 3.17-6.85 6.59-10.31 10.17-2.68 2.78-2.68 6.3-.28 8.71 2.37 2.37 5.89 2.3 8.74-.25 1.02-.91 1.95-1.93 2.93-2.9 2.62-2.6 5.23-5.2 7.82-7.77 38.48 34.66 102.69 39.88 147.78-.22 3.45 3.68 6.82 7.51 10.45 11.08 2.55 2.51 6.12 2.37 8.43.1 2.27-2.24 2.32-5.77.04-8.46-.97-1.14-2.09-2.15-3.14-3.22-2.6-2.62-5.21-5.23-7.77-7.8 18.07-20.89 26.15-43.74 27.73-65.18.35-4.72.4-9.5.18-14.23-.17-3.56-2.98-5.73-6.31-5.54Zm-63.87 42.81c-5.17-5.21-10.27-10.41-15.42-15.56-5.2-5.2-10.44-10.36-15.7-15.56 10.71-10.71 21.02-21.01 31.32-31.3 13.03 14.53 15.88 42.32-.2 62.42Zm-49.37-31.53c-10.11 10.12-20.49 20.5-30.84 30.86-14.23-16.76-14.25-44.41.02-61.77l30.82 30.91Zm-21.39-40.34c17.47-14.26 44.9-14.24 61.74-.02-10.35 10.36-20.72 20.75-30.86 30.9l-30.88-30.88Zm30.95 49.81c10.06 10.12 20.41 20.53 30.73 30.92-16.5 14.21-44.04 14.25-61.65 0 10.35-10.34 20.72-20.71 30.92-30.91Zm64.2-83.36c-8.17 8.16-16.36 16.34-24.77 24.75-11.18-8.83-24.48-13.85-39.5-13.84-14.9.01-28.12 4.9-39.81 14.14-8.34-8.35-16.44-16.47-24.55-24.58 31.19-31.02 91.52-34.95 128.63-.47ZM118.25 273.53c-30.87-32.4-34.38-90.9 0-128.79l24.76 24.82c-8.94 11.31-13.99 24.59-14 39.58-.01 15.03 4.91 28.37 13.94 39.69-8.36 8.35-16.54 16.53-24.71 24.7Zm9.55 9.68c8.17-8.15 16.36-16.31 24.75-24.68 23.48 18.44 55.39 18.45 78.97-.05 8.19 8.21 16.34 16.38 24.49 24.56-29.93 29.96-90.14 35.29-128.21.16Z"/><path class="cls-1" d="M285.07 176.79c-.01 3.95 2.93 7.41 6.35 7.5 3.15.08 6-2.64 6.13-5.84.16-3.97-2.64-7.41-6.17-7.58-3.46-.16-6.3 2.5-6.31 5.92Z"/></svg>