<svg xmlns="http://www.w3.org/2000/svg" xml:space="preserve" viewBox="18 0 476 512"><path d="M261 485c0-3-2-5-5-5-11 0-21-4-29-12s-12-18-12-29c0-3-2-5-5-5s-4 2-4 5c0 14 5 26 14 35 10 10 22 15 36 15 3 0 5-1 5-4zM70 402h372c-51-57-76-136-76-237 0-10-3-20-7-30-5-11-11-21-20-30-8-9-20-17-35-23-14-6-30-9-48-9s-34 3-48 9c-15 6-27 14-35 23-9 9-15 19-20 30-4 10-7 20-7 30 0 101-25 180-76 237zm424 0c0 10-4 19-11 26s-16 11-26 11H329c0 20-7 37-21 52-15 14-32 21-52 21s-37-7-52-21c-14-15-21-32-21-52H55c-10 0-19-4-26-11s-11-16-11-26c10-8 18-16 26-25s16-20 25-34c8-14 15-29 21-45s10-36 14-59 6-48 6-74c0-29 11-56 33-81s52-40 88-45c-2-4-2-8-2-12 0-7 2-14 8-19 5-5 11-8 19-8s14 3 19 8c6 5 8 12 8 19 0 4 0 8-2 12 36 5 66 20 88 45s33 52 33 81c0 26 2 51 6 74s8 43 14 59 13 31 21 45c9 14 17 25 25 34s16 17 26 25z"/></svg>