<?xml version="1.0" encoding="utf-8"?>
<!-- Generator: Adobe Illustrator 28.1.0, SVG Export Plug-In . SVG Version: 6.00 Build 0)  -->
<svg version="1.1" id="Layer_1" xmlns="http://www.w3.org/2000/svg" xmlns:xlink="http://www.w3.org/1999/xlink" x="0px" y="0px"
	 viewBox="0 0 80 80" style="enable-background:new 0 0 80 80;" xml:space="preserve">
<g id="Page-1">
	<g id="Face-ID">
		<g>
			<g>
				<g id="Corners">
					<g id="Corner">
						<path d="M4.11,21.94v-8.91c0-5.04,3.88-8.91,8.91-8.91h8.91c1.14,0,2.06-0.92,2.06-2.06S23.08,0,21.94,0h-8.91
							C5.72,0,0,5.72,0,13.03v8.91C0,23.08,0.92,24,2.06,24S4.11,23.08,4.11,21.94z"/>
					</g>
					
						<g id="Corner_00000086688811024088629250000017935962480950519441_" transform="translate(68.070175, 11.929825) scale(-1, 1) translate(-68.070175, -11.929825) translate(56.140351, 0.000000)">
						<path d="M4.11,21.94v-8.91c0-5.04,3.88-8.91,8.91-8.91h8.91c1.14,0,2.06-0.92,2.06-2.06S23.08,0,21.94,0h-8.91
							C5.72,0,0,5.72,0,13.03v8.91C0,23.08,0.92,24,2.06,24S4.11,23.08,4.11,21.94z"/>
					</g>
					
						<g id="Corner_00000155859647564758623640000007337122309037473698_" transform="translate(11.929825, 68.070175) scale(1, -1) translate(-11.929825, -68.070175) translate(0.000000, 56.140351)">
						<path d="M4.11,21.94v-8.91c0-5.04,3.88-8.91,8.91-8.91h8.91c1.14,0,2.06-0.92,2.06-2.06S23.08,0,21.94,0h-8.91
							C5.72,0,0,5.72,0,13.03v8.91C0,23.08,0.92,24,2.06,24S4.11,23.08,4.11,21.94z"/>
					</g>
					
						<g id="Corner_00000170960229535855169670000011193638602266715782_" transform="translate(68.070175, 68.070175) scale(-1, -1) translate(-68.070175, -68.070175) translate(56.140351, 56.140351)">
						<path d="M4.11,21.94v-8.91c0-5.04,3.88-8.91,8.91-8.91h8.91c1.14,0,2.06-0.92,2.06-2.06S23.08,0,21.94,0h-8.91
							C5.72,0,0,5.72,0,13.03v8.91C0,23.08,0.92,24,2.06,24S4.11,23.08,4.11,21.94z"/>
					</g>
				</g>
				<g id="Eye" transform="translate(21.754386, 28.070175)">
					<path id="Path" d="M0,2.14v5.72C0,9.04,0.9,10,2,10s2-0.96,2-2.14V2.14C4,0.96,3.1,0,2,0S0,0.96,0,2.14z"/>
				</g>
				<g id="Eye_00000168105723319472973360000013237576844556253883_" transform="translate(54.736842, 28.070175)">
					<path id="Path_00000069400363564327336120000014675009389694535301_" d="M0,2.14v5.72C0,9.04,0.9,10,2,10s2-0.96,2-2.14V2.14
						C4,0.96,3.1,0,2,0S0,0.96,0,2.14z"/>
				</g>
				<path id="Mouth" d="M25.93,59.08c3.9,3.64,8.63,5.48,14.07,5.48s10.17-1.84,14.07-5.48c0.85-0.79,0.9-2.13,0.1-2.98
					c-0.79-0.85-2.13-0.9-2.98-0.1c-3.12,2.91-6.81,4.35-11.2,4.35S31.92,58.91,28.8,56c-0.85-0.79-2.18-0.75-2.98,0.1
					C25.04,56.96,25.08,58.29,25.93,59.08z"/>
				<path id="Nose" d="M40,30.18v14.74c0,0.94-0.46,1.4-1.41,1.4h-1.4c-1.16,0-2.11,0.94-2.11,2.11s0.94,2.11,2.11,2.11h1.4
					c3.27,0,5.62-2.34,5.62-5.61V30.18c0-1.16-0.94-2.11-2.11-2.11S40,29.01,40,30.18z"/>
			</g>
		</g>
	</g>
</g>
</svg>
