<svg xmlns="http://www.w3.org/2000/svg" xml:space="preserve" viewBox="4 60 504 392"><path d="M248 354c-27 0-49 22-49 49s22 49 49 49 49-22 49-49-22-49-49-49zm0 74c-13 0-25-11-25-25s12-25 25-25c14 0 25 11 25 25s-11 25-25 25v3zm173-74c-27 0-49 22-49 49s22 49 49 49 49-22 49-49-22-49-49-49zm25 49c0 14-11 25-25 25-13 0-25-11-25-25s12-25 25-25c14 0 25 11 25 25zm48-91H202l-7-25 283-46c8-2 13-8 12-15l15-114c1-2 1-3 1-4v-3c0-7-6-13-13-13H177c-7 0-12 6-12 13v3c0 7 5 12 12 12h299l-13 95-276 45-59-190c-2-6-7-10-13-10H18c-4 0-8 1-10 4-3 2-4 6-4 10 0 3 1 7 4 10 2 2 6 4 10 4h87l74 241c2 6 7 10 13 10h302c8 0 14-6 14-14 0-7-6-13-14-13z"/></svg>