<svg xmlns="http://www.w3.org/2000/svg" xml:space="preserve" viewBox="0 0 512 512"><path d="M384 42.7c47.1 0 85.3 38.3 85.3 85.3v256c0 47.1-38.3 85.3-85.3 85.3H128c-47.1 0-85.3-38.3-85.3-85.3V128c0-47.1 38.3-85.3 85.3-85.3h256zM384 0H128C57.3 0 0 57.3 0 128v256c0 70.7 57.3 128 128 128h256c70.7 0 128-57.3 128-128V128C512 57.3 454.7 0 384 0z"/><path d="M212.4 362.7c-5.4 0-10.8-2-14.9-6.1l-60.9-59.7c-8.4-8.2-8.5-21.7-.3-30.2 8.3-8.4 21.8-8.5 30.2-.3l46 45.1 137.4-134.7c8.4-8.2 21.9-8.1 30.2.3s8.1 21.9-.3 30.2L227.3 356.6c-4.1 4-9.5 6.1-14.9 6.1z"/></svg>