<svg xmlns="http://www.w3.org/2000/svg" xml:space="preserve" viewBox="0 0 440.7 504.5"><path d="M420 175.9c-13.1-17.4-27.4-33.8-42.9-49.1-15.3-15.5-31.7-29.8-49.1-42.9-12.3-11.6-28-18.8-44.7-20.8h-181C80.6 63.2 63 80.8 63 102.5v362.6c0 21.7 17.6 39.4 39.3 39.4h299.1c21.7-.1 39.3-17.7 39.3-39.4V220.7c-1.9-16.8-9.1-32.5-20.7-44.8zM354.9 149c12.7 12.6 24.7 26 35.7 40.1h-75.8v-75.7c14.1 11.1 27.4 23 40 35.7l.1-.1zm54.4 316.1c-.1 4.3-3.5 7.8-7.9 7.9H102.3c-4.3-.1-7.8-3.5-7.9-7.9V102.5c.1-4.3 3.5-7.8 7.9-7.9h181.1V205c0 8.7 7 15.8 15.7 15.8h110.2v244.3zM265.1 20.8C252.8 9.2 237.1 1.9 220.4 0H39.3C17.6.1 0 17.7 0 39.4V402c0 18.7 13.2 34.8 31.5 38.6V39.4c.1-4.3 3.5-7.8 7.9-7.9h239.5c-4.8-3.9-9.4-7.5-13.8-10.7z"/></svg>