<svg xmlns="http://www.w3.org/2000/svg" xml:space="preserve" viewBox="0 73 512 439"><path d="M183 256c0 10-4 19-11 26s-16 11-26 11-18-4-26-11c-7-7-10-16-10-26s3-19 10-26c8-7 16-11 26-11s19 4 26 11 11 16 11 26zm110 0c0 10-4 19-11 26s-16 11-26 11-19-4-26-11-11-16-11-26 4-19 11-26 16-11 26-11 19 4 26 11 11 16 11 26zm109 0c0 10-3 19-10 26-8 7-16 11-26 11s-19-4-26-11-11-16-11-26 4-19 11-26 16-11 26-11 18 4 26 11c7 7 10 16 10 26zM256 110c-39 0-75 6-109 20-34 13-61 31-81 53-19 23-29 47-29 73 0 21 6 42 20 61s33 36 58 50l24 14-7 28c-5 17-12 34-20 49 29-12 55-28 78-49l13-11 16 2c13 2 25 2 37 2 39 0 75-6 109-20 34-13 61-31 81-53 19-23 29-47 29-73s-10-50-29-73c-20-22-47-40-81-53-34-14-70-20-109-20zm256 146c0 33-11 64-34 92s-54 50-93 66c-40 17-83 25-129 25-13 0-27-1-41-2-38 33-82 56-132 69-9 2-20 4-32 6h-2c-3 0-5-1-8-3-2-2-3-5-4-8-1-1-1-2 0-4v-2c0-1 1-2 2-3l1-3 2-2 3-3c1-1 4-5 8-10l10-10c2-3 5-6 9-12 4-5 7-10 9-14 3-5 5-10 8-17s5-14 8-22c-30-17-54-38-71-63S0 285 0 256c0-25 7-48 20-71 14-23 32-42 55-58 23-17 50-30 82-39 31-10 64-15 99-15s68 5 99 15c32 9 59 22 82 39 23 16 41 35 55 58 13 23 20 46 20 71z"/></svg>