<svg xmlns="http://www.w3.org/2000/svg" viewBox="1 0 510 512"><path d="M506.607 104.396 406.611 4.394A14.998 14.998 0 0 0 396.004 0H166c-24.813 0-45 20.187-45 45v197.838C53.594 250.324 1 307.631 1 377c0 74.439 60.561 135 135 135h330c24.813 0 45-20.187 45-45V115.003c0-3.979-1.58-7.793-4.393-10.607zM411 51.213l32.59 32.591L459.786 100H411zM31 377c0-57.897 47.103-105 105-105s105 47.103 105 105-47.103 105-105 105S31 434.897 31 377zm435 105H220.749c26.963-21.805 45.389-53.759 49.414-90H426c8.284 0 15-6.716 15-15s-6.716-15-15-15H270.162c-2.446-22.02-10.204-42.459-21.968-60H426c8.284 0 15-6.716 15-15s-6.716-15-15-15H220.749c-19.521-15.786-43.511-26.248-69.749-29.162V45c0-8.271 6.729-15 15-15h215v85c0 8.284 6.716 15 15 15h85v337c0 8.271-6.729 15-15 15z"/><path d="M426 182H206c-8.284 0-15 6.716-15 15s6.716 15 15 15h220c8.284 0 15-6.716 15-15s-6.716-15-15-15zM195.606 339.394c-5.857-5.857-15.355-5.857-21.213 0L115 398.787l-19.394-19.394c-5.857-5.857-15.355-5.857-21.213 0s-5.858 15.355 0 21.213l30 30C107.322 433.535 111.161 435 115 435s7.678-1.465 10.606-4.394l70-70c5.858-5.857 5.858-15.355 0-21.212z"/></svg>