<svg xmlns="http://www.w3.org/2000/svg" xml:space="preserve" viewBox="0 0 512 439"><path d="M402 265v92c0 22-8 42-24 58s-35 24-58 24H82c-22 0-42-8-58-24S0 379 0 357V119c0-23 8-42 24-58s36-24 58-24h201c3 0 5 0 7 2s3 4 3 7v18c0 3-1 5-3 7-2 1-4 2-7 2H82c-12 0-23 5-32 14s-13 19-13 32v238c0 12 4 23 13 32s20 13 32 13h238c13 0 23-4 32-13s14-20 14-32v-92c0-3 1-5 2-6 2-2 4-3 7-3h18c3 0 5 1 7 3 1 1 2 3 2 6zM512 18v147c0 5-2 9-5 12-4 4-8 6-13 6s-10-2-13-6l-50-50-187 186c-2 2-4 3-6 3-3 0-5-1-7-3l-32-32c-2-2-3-4-3-7 0-2 1-4 3-6L385 81l-50-50c-4-3-6-8-6-13s2-9 6-13c3-3 7-5 12-5h147c5 0 9 2 13 5 3 4 5 8 5 13z"/></svg>