<?xml version="1.0" encoding="utf-8"?>
<!-- Generator: Adobe Illustrator 27.4.0, SVG Export Plug-In . SVG Version: 6.00 Build 0)  -->
<svg version="1.1" id="Layer_1" xmlns="http://www.w3.org/2000/svg" xmlns:xlink="http://www.w3.org/1999/xlink" x="0px" y="0px"
	 viewBox="0 0 666.3 666.7" xml:space="preserve">
<path d="M473,0H193.7C72.3,0,0,72.3,0,193.7v279c0,121.7,72.3,194,193.7,194h279c121.3,0,193.7-72.3,193.7-193.7V193.7
	C666.7,72.3,594.3,0,473,0z M517.7,257.3l-52.3,52.3c-5,5-11.3,7.3-17.7,7.3c-6.3,0-12.7-2.3-17.7-7.3c-9.7-9.7-9.7-25.7,0-35.3
	l8.7-8.7H269.3c-42.7,0-77.7,34.7-77.7,77.7s34.7,77.7,77.7,77.7h164c13.7,0,25,11.3,25,25c0,13.7-11.3,25-25,25h-164
	c-70.3,0-127.7-57.3-127.7-127.7S199,215.7,269.3,215.7H441L430,205c-9.7-9.7-9.7-25.7,0-35.3c9.7-9.7,25.7-9.7,35.3,0l52.3,52.3
	C527.3,232,527.3,247.7,517.7,257.3z"/>
</svg>
