<svg xmlns="http://www.w3.org/2000/svg" xml:space="preserve" viewBox="0 0 512 512"><path d="m509 325-59-42c0-9 3-17 0-26v-25l56-42c6-3 6-11 3-17l-53-89c-3-6-11-8-17-6l-64 26c-14-12-28-20-45-26l-8-67c-3-5-9-11-14-11H204c-8 0-14 6-14 11l-11 67c-17 6-31 14-45 26L70 78c-6-2-14 0-17 6L0 171c0 5 0 14 3 16l56 42v51L3 322c-3 5-3 14 0 19l53 87c3 6 11 8 17 6l64-26c14 12 28 20 45 26l11 67c0 5 6 11 14 11h101c5 0 11-6 14-11l11-67c17-6 31-14 45-26l64 26c6 2 14 0 17-6l53-89c0-3 0-12-3-14zm-252 22s-2 0 0 0c-50-3-89-45-89-92 0-51 42-90 92-87 48 0 87 42 87 89 0 48-42 90-90 90z"/></svg>