<svg xmlns="http://www.w3.org/2000/svg" xml:space="preserve" viewBox="19.97 20 472.03 472"><path d="M253 20c65 0 120 22 167 67 46 45 70 100 72 165 0 65-22 121-68 167-45 47-100 71-165 73-65 0-121-22-167-68-47-45-71-100-72-165S41 138 87 92c46-47 101-71 166-72m-1 379c10 0 19-3 25-9 6-7 10-15 10-24 0-11-2-19-9-26-6-6-15-9-25-9h-1c-10 0-18 3-24 9-7 6-10 14-11 24 0 10 3 18 10 25 6 6 14 10 24 10h1m85-168c9-11 13-24 13-40 0-26-9-46-27-59s-41-19-69-19c-22 0-40 4-53 13-24 14-36 39-37 75v2h56v-2c0-9 3-18 8-28 6-8 15-12 28-12 14 0 23 3 27 10 5 7 8 14 8 23 0 6-3 13-8 20-3 4-7 8-11 10l-3 2c-2 2-4 4-8 6-3 2-7 5-10 8-4 2-7 5-11 8s-7 6-9 9c-4 7-7 20-9 40v4h56v-2c0-4 0-9 2-14 2-7 6-13 14-19l14-9c16-12 25-20 29-26"/></svg>