<svg xmlns="http://www.w3.org/2000/svg" xml:space="preserve" viewBox="0 0 512 512"><path d="M500 488h-9V182c0-7-6-12-12-12h-64c-7 0-12 5-12 12v306h-40V330c0-6-5-12-12-12h-63c-7 0-12 6-12 12v158h-40V288c0-7-5-12-12-12h-63c-7 0-13 5-13 12v200h-39v-94c0-7-5-12-12-12H33c-6 0-12 5-12 12v94h-9c-7 0-12 5-12 12s5 12 12 12h488c7 0 12-5 12-12s-5-12-12-12zm-455 0v-82h40v82zm128 0V300h39v188zm127 0V342h39v146zm127 0V194h40v294zM447 0c-18 0-33 15-33 33 0 6 1 11 4 16l-87 101c-4-1-8-2-11-2-11 0-20 5-26 13l-69-23c0-18-15-32-33-32s-33 15-33 33c0 4 1 7 2 11l-80 66c-5-2-10-4-16-4-18 0-33 15-33 33 0 19 15 34 33 34s33-15 33-34c0-3 0-7-1-10l79-67c5 3 11 5 16 5 11 0 20-5 26-12l69 22c0 18 15 32 33 32s33-15 33-33c0-6-2-11-4-16l87-101c3 1 7 2 11 2 18 0 33-15 33-34 0-18-15-33-33-33zM65 255c-5 0-9-5-9-10s4-9 9-9 9 4 9 9-4 10-9 10zm127-107c-5 0-9-4-9-9s4-9 9-9 10 4 10 9-5 9-10 9zm128 43c-5 0-10-4-10-9s5-9 10-9 9 4 9 9-4 9-9 9zM447 42c-5 0-9-4-9-9s4-9 9-9 9 4 9 9-4 9-9 9z"/></svg>