<svg xmlns="http://www.w3.org/2000/svg" xml:space="preserve" viewBox="23 5 466 466"><path d="M434 347c0-7-2-14-8-19l-59-59c-5-6-12-8-20-8s-14 3-20 9l5 5 6 6c1 1 3 3 5 6 2 2 3 4 3 7 1 2 1 5 1 8 0 7-2 14-8 19-5 5-11 8-19 8-3 0-5 0-8-1-2-1-5-2-7-4-3-1-4-3-6-4l-6-6c-3-3-4-5-5-5-6 5-9 12-9 20s2 15 8 20l58 59c6 5 12 8 20 8 7 0 14-3 19-8l42-41c6-6 8-12 8-20zM233 146c0-8-2-14-8-19l-58-60c-6-5-12-8-20-8-7 0-14 3-19 8l-42 42c-6 5-8 12-8 19 0 8 2 14 8 19l59 60c5 5 12 8 20 8s14-3 20-9c0-1-2-3-5-6l-6-6-5-5c-2-3-3-5-3-7-1-3-1-5-1-8 0-8 2-14 8-20 5-5 11-8 19-8 3 0 5 1 8 1 2 1 5 2 7 4 3 2 4 3 6 4l6 6c3 3 4 5 5 6 6-6 9-13 9-21zm256 201c0 23-8 43-24 58l-42 42c-16 16-35 24-58 24s-43-8-58-24l-59-60c-16-15-24-35-24-58s8-43 25-59l-25-25c-16 16-36 25-59 25s-43-8-59-24l-59-60c-16-16-24-35-24-58s8-42 24-58l42-42c16-16 35-23 58-23s43 8 58 24l59 59c16 16 24 35 24 58s-8 43-25 60l25 25c16-17 36-25 59-25s43 8 59 24l59 59c16 16 24 36 24 58z"/></svg>