<svg xmlns="http://www.w3.org/2000/svg" xml:space="preserve" viewBox="0 0 485.6 548.2"><path d="M454.8 196.1h-13.2v-63.5c0-.4-.1-.8-.1-1.2 0-2.5-.8-5-2.6-7L333.3 3.7s-.1 0-.1-.1c-.6-.7-1.4-1.3-2.1-1.8-.2-.2-.5-.3-.7-.4-.7-.4-1.4-.7-2.1-.9-.2-.1-.4-.1-.6-.2-.8-.2-1.7-.3-2.5-.3H65.4C53.5 0 43.9 9.7 43.9 21.5v174.6H30.7c-17 0-30.7 13.8-30.7 30.7v159.8c0 17 13.8 30.7 30.7 30.7h13.2v109.4c0 11.9 9.6 21.5 21.5 21.5h354.8c11.9 0 21.5-9.6 21.5-21.5V417.4h13.2c17 0 30.7-13.8 30.7-30.7V226.9c0-17-13.8-30.8-30.8-30.8zM65.4 21.5h249.1v110c0 5.9 4.8 10.8 10.8 10.8h95v53.9H65.4V21.5zm221.1 281.9c0 47.8-29 76.7-71.6 76.7-43.2 0-68.5-32.6-68.5-74.2 0-43.7 27.9-76.3 70.9-76.3 44.7.1 69.2 33.6 69.2 73.8zM50.8 377.8V232.1h33.1v118h57.9v27.7h-91zM420.2 521H65.4V417.4h354.8V521zm9.6-149.9c-10.2 3.5-29.4 8.2-48.6 8.2-26.6 0-45.8-6.7-59.2-19.7-13.4-12.5-20.8-31.6-20.5-53 .2-48.4 35.4-76.1 83.2-76.1 18.8 0 33.3 3.7 40.4 7.1l-6.9 26.4c-8-3.5-17.9-6.3-33.9-6.3-27.4 0-48.2 15.6-48.2 47.1 0 30 18.8 47.8 45.8 47.8 7.6 0 13.6-.9 16.2-2.2v-30.5h-22.5v-25.7h54.3l-.1 76.9z"/><path d="M181.2 305.4c0 28.5 13.4 48.6 35.5 48.6 22.3 0 35-21.2 35-49.5 0-26.2-12.5-48.7-35.2-48.7-22.4.1-35.3 21.2-35.3 49.6z"/></svg>