<svg xmlns="http://www.w3.org/2000/svg" xml:space="preserve" viewBox="20 20 472 472"><path d="M135 177c-7 0-15 2-21 5-17-17-32-39-47-65 18-26 40-46 65-61 32 13 57 27 78 42-2 6-3 11-3 17 0 2 1 5 2 11-21 16-41 34-59 53-6-1-11-2-15-2m-50 50c0 12 3 22 10 31-20 39-34 79-41 119-22-36-34-77-34-121 0-38 9-73 26-105 13 21 27 40 43 57-3 8-4 15-4 19M257 65c-10 0-18 2-26 7-19-15-39-27-58-36 29-10 56-16 83-16 41 0 80 11 118 32-26 5-54 14-83 26-9-9-20-13-34-13m75 235c-55-8-104-27-149-57 2-7 2-12 2-16 0-8-2-17-7-26 13-15 30-31 50-46 9 6 19 10 29 10 5 0 11-1 19-4 33 37 55 78 69 123-5 4-10 10-13 16m65 68c13-5 23-15 28-31 20-1 38-5 55-9-15 50-44 89-85 118 2-16 3-33 3-50v-14c-1-6-1-11-1-14m-76-34c-65 33-117 79-156 139-31-12-58-31-81-56 4-49 18-96 41-141 2 1 5 2 10 2 10 0 19-3 27-8 48 34 101 55 159 64m94-252c51 46 77 104 77 174 0 8-1 19-3 34-21 6-44 10-66 12-8-19-23-29-45-31-17-49-42-95-76-135 3-7 5-14 5-21v-5c34-15 70-24 108-28m-70 278c5 4 10 7 16 10 1 6 1 15 1 26 0 28-2 52-7 74-29 14-62 22-99 22-20 0-39-3-57-7 37-54 86-96 146-125"/></svg>