<svg xmlns="http://www.w3.org/2000/svg" xml:space="preserve" viewBox="0.07 0.55 27.96 19.05"><g clip-path="url(#SVGID_00000034803555756137191870000014809359890313834419_)"><path d="M14.9 9.1c0-.5-.4-.9-.9-.9-1.2 0-1.2 1.8 0 1.8.5 0 .9-.4.9-.9z"/><path d="M22.1 5.8c-3-7-13.2-7-16.1 0-8.5 1.4-7.6 13.4 1 13.7h2.7v-3.1l-1.6-1.5c-1.7.8-3.8-.4-3.7-2.3 0-1.4 1.2-2.5 2.6-2.5 1.9 0 3.2 2 2.3 3.7l1.8 1.8c.2.2.2.4.2.6v3.4h1.9v-7.9c-2.7-.9-2.1-4.9.8-4.9 2.9.1 3.6 4 .8 4.9v7.9h1.9V16c0-.2.1-.4.2-.6l1.8-1.8c-.9-1.6.4-3.7 2.3-3.7 1.4 0 2.6 1.1 2.6 2.5 0 1.9-2.1 3.1-3.7 2.3l-1.5 1.5v3.1h2.7c8.6-.1 9.5-12.1 1-13.5z"/><path d="M22 12.6c0-.5-.4-.9-.9-.9-1.2 0-1.2 1.8 0 1.8.5 0 .9-.4.9-.9zm-16 0c0 .5.4.9.9.9 1.2 0 1.2-1.8 0-1.8-.5 0-.9.4-.9.9z"/></g></svg>