<svg xmlns="http://www.w3.org/2000/svg" xml:space="preserve" viewBox="78 59.51 355.97 393.49"><path d="M155 453c-14 0-32-5-50-23-24-24-27-47-25-62 2-17 11-34 27-50l150-151c43-42 71-26 83-13 16 15 26 42-14 82L188 375l-27-27 138-139c22-21 17-26 14-28-1-2-7-8-29 13L134 345c-7 7-15 17-16 28-1 9 4 19 14 30 13 13 23 12 26 11 9-1 19-7 30-18 13-12 167-166 178-178 15-15 24-29 28-42 5-20-1-38-20-57s-51-40-98 8L111 292c-8 7-20 7-27 0-8-8-8-20 0-27l165-165c51-51 106-54 152-8 36 36 36 71 30 94-6 20-18 39-38 59-11 12-166 166-178 178-17 17-34 26-51 29-3 0-6 1-9 1z"/></svg>