<svg xmlns="http://www.w3.org/2000/svg" xml:space="preserve" viewBox="0 27 520 454"><path d="M509 363c-8-25-49-50-141-84v-19c21-15 33-39 33-64 9-7 14-18 13-29 0-11-4-21-11-28 9-20 12-43 8-65-6-19-21-34-40-40-17-8-37-6-52 5-3 1-4 4-5 6-1 3 0 6 1 9 4 5 10 6 15 3h1c9-7 22-8 32-3 12 4 22 13 27 25 2 18 0 37-8 54-2 4-3 8-3 12 0 3 1 5 2 7 2 2 4 3 7 4h1c2 3 3 7 3 11 0 3-1 7-2 10-3 0-6 1-8 3s-3 5-3 8c0 43-25 55-26 55-4 2-6 6-6 10v33c0 4 2 8 7 10 31 12 126 47 135 74 6 29 9 59 9 89h-32c-3 0-6 1-8 3s-3 5-3 8 1 5 3 7 5 4 8 4h43c3 0 6-1 8-3s3-5 3-8c0-36-3-72-11-107zm-219-63c-10-3-20-7-30-11v-40c20-15 32-38 32-64 9-7 14-18 13-29 1-10-3-20-10-27 9-20 11-41 8-62-7-29-48-40-81-40-29 0-64 8-77 30-11-1-21 3-28 11-11 15-6 39 0 60-8 7-12 18-11 28-1 12 4 23 13 29 0 25 12 49 33 64v40c-9 4-19 7-28 11-56 19-104 37-113 64-8 35-11 70-11 106 0 6 5 11 11 11h390c3 0 5-1 7-3s4-5 4-8c0-36-4-72-11-107-9-27-54-43-111-63z"/></svg>