<svg xmlns="http://www.w3.org/2000/svg" xml:space="preserve" viewBox="0 0 390 512"><path d="m195 220.9 9.4-16.2c2.8-4.9.9-9.2 0-10.8s-3.7-5.4-9.4-5.4-8.4 3.8-9.4 5.4c-.9 1.6-2.8 5.9 0 10.8l9.4 16.2zM92.4 355.3c-.9 1.6-2.8 5.9 0 10.8s7.5 5.4 9.4 5.4 6.6-.5 9.4-5.4l9.4-16.2h-18.7c-5.7 0-8.5 3.8-9.5 5.4zM172.5 319.9h44.9l-22.4-39-22.5 39z"/><path d="M275 130c-8.3 0-15-6.7-15-15V0H45C20.2 0 0 20.2 0 45v422c0 24.8 20.2 45 45 45h300c24.8 0 45-20.2 45-45V130H275zm48.5 251.1c-7.4 12.8-20.6 20.4-35.4 20.4-14.8 0-28-7.6-35.4-20.4l-18-31.2h-79.6l-18 31.2c-7.4 12.8-20.6 20.4-35.4 20.4-14.8 0-28-7.6-35.4-20.4-7.4-12.8-7.4-28 0-40.8 7.4-12.8 20.6-20.4 35.4-20.4h36.1l39.8-68.9-18-31.2c-7.4-12.8-7.4-28 0-40.8 7.4-12.8 20.6-20.4 35.4-20.4 14.8 0 28 7.6 35.4 20.4 7.4 12.8 7.4 28 0 40.8l-18 31.2 39.8 68.9h36.1c14.8 0 28 7.6 35.4 20.4 7.2 12.8 7.2 28-.2 40.8z"/><path d="M288.2 349.9h-18.7l9.4 16.2c2.8 4.9 7.5 5.4 9.4 5.4s6.6-.5 9.4-5.4c2.8-4.9.9-9.2 0-10.8s-3.9-5.4-9.5-5.4zM290 8.8V100h91.2L290 8.8z"/></svg>