<svg xmlns="http://www.w3.org/2000/svg" xml:space="preserve" viewBox="0 37 510 402"><path d="m254 338 33-33-44-43-33 33v16h28v27zm125-205c-3-3-6-3-9 0L270 233c-3 3-3 6 0 9s6 3 9 0l100-100c3-3 3-6 0-9zm23 169v55c0 22-8 42-24 58s-35 24-58 24H82c-22 0-42-8-58-24S0 379 0 357V119c0-23 8-42 24-58s36-24 58-24h238c12 0 23 2 33 7 3 1 5 3 6 6 0 4-1 6-3 9l-14 14c-3 2-6 3-9 2-5-1-9-2-13-2H82c-12 0-23 5-32 14s-13 19-13 32v238c0 12 4 23 13 32s20 13 32 13h238c13 0 23-4 32-13s14-20 14-32v-36c0-3 1-5 2-7l19-18c2-3 6-4 10-2 3 2 5 4 5 8zM375 91l82 83-192 192h-82v-83zm127 38-27 26-82-82 26-26c6-5 12-8 20-8 7 0 14 3 19 8l44 43c5 6 8 12 8 20 0 7-3 14-8 19z"/></svg>