<?xml version="1.0" encoding="utf-8"?>
<!-- Generator: Adobe Illustrator 28.2.0, SVG Export Plug-In . SVG Version: 6.00 Build 0)  -->
<svg version="1.1" id="Layer_1" xmlns="http://www.w3.org/2000/svg" xmlns:xlink="http://www.w3.org/1999/xlink" x="0px" y="0px"
	 viewBox="0 0 566.7 600" style="enable-background:new 0 0 566.7 600;" xml:space="preserve">
<g>
	<path d="M540.2,90.2c0.3-0.3,0.6-0.5,0.8-0.8c12.8-13.2,12.4-34.3-0.8-47.1c-13.2-12.8-34.3-12.4-47.1,0.8L26.4,509.8
		c-12.5,12.9-12.5,33.4,0,46.3c12.8,13.2,33.9,13.6,47.1,0.8h0L540.2,90.2z"/>
	<path d="M441.7,350c-69,0-125,56-125,125s56,125,125,125s125-56,125-125S510.7,350,441.7,350z M441.7,533.3
		c-32.2,0-58.3-26.1-58.3-58.3c0-32.2,26.1-58.3,58.3-58.3c32.2,0,58.3,26.1,58.3,58.3C500,507.2,473.9,533.3,441.7,533.3z"/>
	<path d="M125,250c69,0,125-56,125-125S194,0,125,0S0,56,0,125S56,250,125,250z M125,66.7c32.2,0,58.3,26.1,58.3,58.3
		s-26.1,58.3-58.3,58.3c-32.2,0-58.3-26.1-58.3-58.3S92.8,66.7,125,66.7z"/>
</g>
</svg>
