<?xml version="1.0" encoding="utf-8"?>
<!-- Generator: Adobe Illustrator 26.5.0, SVG Export Plug-In . SVG Version: 6.00 Build 0)  -->
<svg version="1.1" id="Layer_1" xmlns="http://www.w3.org/2000/svg" xmlns:xlink="http://www.w3.org/1999/xlink" x="0px" y="0px"
	 viewBox="0 0 272 448" style="enable-background:new 0 0 272 448;" xml:space="preserve">
<g id="Layer_7">
	<path d="M224,0H48C21.5,0,0,21.5,0,48v352c0,26.5,21.5,48,48,48h176c26.5,0,48-21.5,48-48V48C272,21.5,250.5,0,224,0z M208,32h16
		c8.8,0,16,7.2,16,16v352c0,8.8-7.2,16-16,16H48c-8.8,0-16-7.2-16-16V48c0-8.8,7.2-16,16-16h16"/>
</g>
<circle cx="134.7" cy="355.4" r="25.9"/>
<path d="M189.7,64.3h-53.9c-11.3,0-20.5,9.2-20.5,20.5v0c0,11.3,9.2,20.5,20.5,20.5h53.9c11.3,0,20.5-9.2,20.5-20.5v0
	C210.1,73.5,201,64.3,189.7,64.3z"/>
<path d="M88.1,64.3L88.1,64.3c-11.3,0-20.5,9.2-20.5,20.5v0c0,11.3,9.2,20.5,20.5,20.5h0c11.3,0,20.5-9.2,20.5-20.5v0
	C108.5,73.5,99.4,64.3,88.1,64.3z"/>
</svg>
