<svg id="Layer_1" enable-background="new 0 0 30 30" height="512" viewBox="0 0 30 30" width="512" xmlns="http://www.w3.org/2000/svg"><g id="_x36_5_1_"><path d="m18.1899414 23.269989c0-1.7399902-1.4099121-3.1599731-3.1499023-3.1599731s-3.1500244 1.4199829-3.1500244 3.1599731c0 1.7300415 1.4100342 3.1500244 3.1500244 3.1500244s3.1499023-1.4199829 3.1499023-3.1500244z"/><path d="m15.0400391 9.8899841c1.7399902 0 3.1499023-1.4199829 3.1499023-3.1599731 0-1.7299805-1.4099121-3.1500244-3.1499023-3.1500244s-3.1500244 1.4200439-3.1500244 3.1500244c-.0000001 1.7399902 1.4100341 3.1599731 3.1500244 3.1599731z"/><path d="m9.3000488 23.269989c0-1.7399902-1.4100342-3.1599731-3.1501465-3.1599731-1.7399902 0-3.1499023 1.4199829-3.1499023 3.1599731 0 1.7300415 1.4099121 3.1500244 3.1499023 3.1500244 1.7401123 0 3.1501465-1.4199829 3.1501465-3.1500244z"/><path d="m6.1499023 9.8899841c1.7401123 0 3.1501465-1.4199829 3.1501465-3.1599731 0-1.7299805-1.4100342-3.1500244-3.1501465-3.1500244-1.7399902 0-3.1499023 1.4200439-3.1499023 3.1500244 0 1.7399902 1.4099121 3.1599731 3.1499023 3.1599731z"/><path d="m23.8499756 3.5799866c-1.7399902 0-3.1500244 1.4200439-3.1500244 3.1500244 0 1.7399902 1.4100342 3.1599731 3.1500244 3.1599731s3.1500244-1.4199829 3.1500244-3.1599731c0-1.7299805-1.4100342-3.1500244-3.1500244-3.1500244z"/><path d="m27 15.0000305c0-1.7399902-1.4100342-3.1500244-3.1500244-3.1500244-1.3881836 0-2.5531006.9034424-2.9727783 2.1499634h-2.864502c-.4196777-1.246521-1.5844727-2.1499634-2.9726563-2.1499634s-2.5529785.9034424-2.9726563 2.1499634h-2.94458c-.4196777-1.246521-1.5845947-2.1499634-2.9729004-2.1499634-1.7399902 0-3.1499023 1.4100342-3.1499023 3.1500244s1.4099121 3.1499634 3.1499023 3.1499634c1.3883057 0 2.5532227-.9034424 2.9729004-2.1500244h2.944458c.4195557 1.246582 1.5845947 2.1500244 2.9727783 2.1500244s2.5529785-.9034424 2.9726563-2.1500244h2.864502c.3166504.9405518 1.0579834 1.6744995 2.0026855 1.9820557-.0078125.050354-.0299072.09552-.0299072.1480103v2.1583862c-1.246582.4221802-2.1500244 1.5933228-2.1500244 2.9815674 0 1.7400513 1.4100342 3.1500244 3.1500244 3.1500244s3.1500244-1.4099732 3.1500244-3.1500245c0-1.3882446-.9034424-2.5593872-2.1500244-2.9815674v-2.1583862c0-.0524902-.0220947-.0977173-.0299072-.1480713 1.2619629-.4108276 2.1799316-1.5827637 2.1799316-2.9819336z"/></g></svg>