<svg xmlns="http://www.w3.org/2000/svg" viewBox="0 0 512 512" xml:space="preserve"><path d="M244.6 224.9 106.4 86.7l-22.7 22.7 138.2 138.2 39.5 39.5 138.2 138.2 22.7-22.7-138.2-138.2z"/><path d="M256 0C115 0 0 115 0 256s115 256 256 256 256-115 256-256S397 0 256 0zm0 472c-119 0-216-97-216-216S137 40 256 40s216 97 216 216-97 216-216 216z"/><path d="M266 309.5c-3.1.2-6.3.3-9.5.3-6.6 0-14.5-.7-21.1-1.3l21.1 105.3 19-94.9-9.5-9.4zM274.8 308.8s-.1 0 0 0c-.1 0 0 0 0 0zM213 256.5 178.5 222c-4.7 5.3-7.6 11.4-7.6 17.4 0 22.4 28.3 44.7 73.2 48.2L213 256.5zM313.5 276c19.5-9.4 28.6-22.5 28.6-36.6 0-11.2-9.9-22.4-23-29-10.5-5.9-20.4-19.8-20.4-28.3V161c0-7.2 3.9-12.5 7.9-17.1 4.6-4 7.9-9.2 7.9-14.5 0-17.8-20.4-31.6-57.9-31.6s-57.3 13.8-57.3 31.6c0 5.3 2.6 10.5 7.9 14.5 3.3 4.6 7.2 9.9 7.2 17.1v15.8l39.1 39.1 39.5 39.5 20.5 20.6"/></svg>