<svg xmlns="http://www.w3.org/2000/svg" viewBox="0 0 512 512" xml:space="preserve"><path d="m235.4 308.6 21.1 105.3 21.1-105.3c-6.6.7-13.8 1.3-21.1 1.3-6.6 0-14.5-.7-21.1-1.3zm83.6-98.1c-10.5-5.9-20.4-19.8-20.4-28.3v-21.1c0-7.2 4-12.5 7.9-17.1 4.6-3.9 7.9-9.2 7.9-14.5 0-17.8-20.4-31.6-57.9-31.6s-57.3 13.8-57.3 31.6c0 5.3 2.6 10.5 7.9 14.5 3.3 4.6 7.2 9.9 7.2 17.1v21.1c0 8.6-9.2 22.4-20.4 28.3-12.5 5.9-23 17.8-23 29 0 24.4 33.6 48.7 85.6 48.7 52.7 0 85.6-24.4 85.6-48.7 0-11.3-9.9-22.5-23.1-29z"/></svg>