<svg xmlns="http://www.w3.org/2000/svg" xml:space="preserve" viewBox="2.75 2 508.25 476"><path d="M502 102h-1c-12-12-32-12-45 0l-22 23-46-46 23-22c13-13 13-33 0-45v-1c-13-12-33-12-45 0l-24 24c-31-20-73-17-101 11l-12 12c-55 54-61 139-20 200l-2 2c-31 32-31 82 0 113 6 7 6 17 0 23-6 7-16 6-22 0l-45-44c-31-32-82-32-114-1-31 31-31 82 0 113l5 5c12 12 32 12 44 0l1-1c12-12 12-32 0-45l-4-4c-6-6-7-16-1-22 6-7 17-7 23-1l45 45c31 31 83 32 114 0 31-31 31-81 0-113-7-6-7-16 0-22l2-2c61 41 146 35 200-20l13-12c27-28 30-70 10-101l24-24c12-12 12-32 0-45zm-57 147c-19 19-49 19-68 0L264 136c-19-19-19-49 0-68 15-15 37-18 55-9l-21 21c-13 12-13 32 0 45 12 12 32 12 45 0l23-23 45 45-23 23c-12 13-12 33 0 45h1c12 13 32 13 44 0l21-20c9 17 6 39-9 54z"/></svg>