<svg xmlns="http://www.w3.org/2000/svg" xml:space="preserve" viewBox="37 0 438 475"><path d="M475 256c0 30-5 58-17 85s-27 51-47 70c-19 20-43 35-70 47s-55 17-85 17-58-5-85-17-51-27-70-47c-20-19-35-43-47-70s-17-55-17-85c0-35 7-67 23-98 15-31 36-56 64-77 8-6 18-9 28-7 10 1 18 6 23 14 7 8 9 17 7 27-1 10-6 18-14 24-18 14-33 31-43 52-10 20-15 42-15 65 0 20 4 39 11 57 8 18 18 33 32 46 13 14 28 24 46 32 18 7 37 11 57 11s39-4 57-11c18-8 33-18 46-32 14-13 24-28 32-46 7-18 11-37 11-57 0-23-5-45-15-65-10-21-25-38-43-52-8-6-13-14-14-24-2-10 0-19 7-27 5-8 13-13 24-14 10-2 19 1 27 7 28 21 49 46 64 77 16 31 23 63 23 98zM293 37v182c0 10-4 19-11 26-8 7-16 11-26 11s-18-4-26-11c-7-7-11-16-11-26V37c0-10 4-19 11-26 8-7 16-11 26-11s18 4 26 11c7 7 11 16 11 26z"/></svg>