<svg xmlns="http://www.w3.org/2000/svg" xml:space="preserve" viewBox="37 37 438 438"><path d="M468 302v2c-12 51-38 92-77 124-38 32-84 47-136 47-28 0-55-5-81-15-26-11-49-26-69-45l-37 37c-4 3-8 5-13 5s-9-2-13-5c-4-4-5-8-5-13V311c0-5 1-9 5-13s8-5 13-5h128c5 0 9 1 13 5 3 4 5 8 5 13s-2 9-5 13l-39 39c13 12 28 22 46 29 17 7 35 10 53 10 26 0 49-6 71-18 23-13 40-30 54-51 2-4 7-15 15-34 1-4 4-6 8-6h55c3 0 5 0 7 2 1 2 2 4 2 7zm7-229v128c0 5-1 9-5 13s-8 5-13 5H329c-5 0-9-1-13-5-3-4-5-8-5-13s2-9 5-13l40-39c-28-26-62-39-100-39-26 0-49 6-71 18-23 13-40 30-54 51-2 4-7 15-15 34-1 4-4 6-8 6H51c-3 0-5 0-7-2-1-2-2-4-2-7v-2c12-51 38-92 77-124s85-47 137-47c28 0 55 5 81 15 26 11 50 26 70 45l37-37c4-3 8-5 13-5s9 2 13 5c4 4 5 8 5 13z"/></svg>