<svg xmlns="http://www.w3.org/2000/svg" xml:space="preserve" viewBox="-0.04 -0.02 480.04 480.16"><path d="M55.2.033c-4.4.4-7.6 4.3-7.2 8.7.2 1.9 1 3.6 2.3 4.9l53.7 53.6v17.4l-19.3 19.3H67.3l-53.7-53.7c-3.1-3.1-8.2-3.1-11.3 0-1.5 1.7-2.3 3.7-2.3 5.8v64c0 2.1.9 4.1 2.4 5.6l40 40c1.5 1.5 3.5 2.3 5.7 2.3h60.7l68.7 68.7 59.3-59.3-68.8-68.6v-60.7c0-2.1-.9-4.1-2.4-5.6l-40-40c-1.5-1.5-3.6-2.3-5.7-2.3H56c-.3-.1-.5-.1-.8-.1zm391.9 0c-.9.1-1.9.4-2.7.8l-80 40c-2.7 1.4-4.4 4.1-4.4 7.2v28.7l-180.7 180.6 43.3 43.3 180.7-180.7H432c3 0 5.8-1.7 7.1-4.4l40-80c1.5-3.1.9-6.8-1.5-9.2l-24-24c-1.6-1.7-4.1-2.6-6.5-2.3zm-144.4 243.3-59.3 59.3 68.7 68.7v60.7c0 2.1.9 4.2 2.4 5.7l40 40c1.5 1.5 3.5 2.4 5.7 2.4h64c4.4 0 8-3.6 8-8 0-2.1-.9-4.2-2.4-5.7l-53.8-53.7v-17.4l19.3-19.4h17.4l53.7 53.7c3.1 3.1 8.2 3.1 11.3 0 1.5-1.5 2.3-3.5 2.3-5.6v-64c0-2.1-.8-4.2-2.4-5.7l-40-40c-1.5-1.5-3.6-2.3-5.7-2.3h-60.6l-68.6-68.7zm-150.8 12.7c-2.1 0-4.1.9-5.5 2.4l-18.4 18.3 75.3 75.3 18.3-18.3c3.1-3.1 3.1-8.2 0-11.3l-64-64c-1.4-1.6-3.5-2.5-5.7-2.4zm-35.2 32-99.7 99.7c-21.7 21.7-23 56.3-2 77.3s55.6 19.7 77.3-2l99.7-99.7-75.3-75.3z"/></svg>