<svg xmlns="http://www.w3.org/2000/svg" xml:space="preserve" viewBox="18 37 476 475"><path d="M347 238c0-36-12-66-37-91s-55-37-91-37c-35 0-65 12-90 37s-38 55-38 91c0 35 13 65 38 90s55 38 90 38c36 0 66-13 91-38s37-55 37-90zm147 237c0 10-4 19-11 26s-16 11-26 11-19-4-26-11l-98-98c-34 24-72 36-114 36-27 0-53-5-78-16s-46-25-64-43-32-39-43-64c-10-25-16-51-16-78 0-28 6-54 16-78 11-25 25-47 43-65s39-32 64-43c25-10 51-15 78-15 28 0 54 5 79 15 24 11 46 25 64 43s32 40 43 65c10 24 16 50 16 78 0 42-12 80-36 114l98 98c7 7 11 15 11 25z"/></svg>