<svg xmlns="http://www.w3.org/2000/svg" xml:space="preserve" viewBox="0 0 480 416"><path d="M444.8 192c19.4 0 35.2-15.8 35.2-35.2V35.2C480 15.8 464.2 0 444.8 0H35.2C15.8 0 0 15.8 0 35.2v121.6C0 176.2 15.8 192 35.2 192H48v32H35.2C15.8 224 0 239.8 0 259.2v121.6C0 400.2 15.8 416 35.2 416h409.6c19.4 0 35.2-15.8 35.2-35.2V259.2c0-19.4-15.8-35.2-35.2-35.2H432v-32h12.8zM32 156.8V35.2c0-1.8 1.4-3.2 3.2-3.2h409.6c1.8 0 3.2 1.4 3.2 3.2v121.6c0 1.8-1.4 3.2-3.2 3.2H35.2c-1.8 0-3.2-1.4-3.2-3.2zm416 102.4v121.6c0 1.8-1.4 3.2-3.2 3.2H35.2c-1.8 0-3.2-1.4-3.2-3.2V259.2c0-1.8 1.4-3.2 3.2-3.2h409.6c1.8 0 3.2 1.4 3.2 3.2zM400 224H80v-32h320v32z"/><circle cx="208" cy="320" r="16"/><circle cx="144" cy="320" r="16"/><circle cx="80" cy="320" r="16"/><path d="M400 304H288c-8.8 0-16 7.2-16 16s7.2 16 16 16h112c8.8 0 16-7.2 16-16s-7.2-16-16-16z"/><circle cx="208" cy="96" r="16"/><circle cx="144" cy="96" r="16"/><circle cx="80" cy="96" r="16"/><path d="M288 112h112c8.8 0 16-7.2 16-16s-7.2-16-16-16H288c-8.8 0-16 7.2-16 16s7.2 16 16 16z"/></svg>