<svg xmlns="http://www.w3.org/2000/svg" xml:space="preserve" viewBox="8.96 0 503.04 512"><path d="M210 411c0 3-1 5-3 7l-91 91c-2 2-4 3-6 3-3 0-5-1-7-3l-91-91c-3-3-4-6-2-10 1-4 4-6 8-6h55V9c0-3 1-5 3-6 1-2 4-3 6-3h55c3 0 5 1 7 3 1 1 2 3 2 6v393h55c3 0 5 1 7 3 1 2 2 4 2 6zm302 37v55c0 3-1 5-3 6-1 2-3 3-6 3H265c-3 0-5-1-6-3-2-1-3-3-3-6v-55c0-3 1-5 3-7 1-1 3-2 6-2h238c3 0 5 1 6 2 2 2 3 4 3 7zm-55-146v55c0 2-1 4-2 6-2 2-4 3-7 3H265c-3 0-5-1-6-3-2-2-3-4-3-6v-55c0-3 1-5 3-7 1-2 3-2 6-2h183c3 0 5 0 7 2 1 2 2 4 2 7zm-55-147v55c0 3-1 5-2 7-2 2-4 2-7 2H265c-3 0-5 0-6-2-2-2-3-4-3-7v-55c0-2 1-4 3-6 1-2 3-3 6-3h128c3 0 5 1 7 3 1 2 2 4 2 6zM347 9v55c0 3 0 5-2 7-2 1-4 2-7 2h-73c-3 0-5-1-6-2-2-2-3-4-3-7V9c0-3 1-5 3-6 1-2 3-3 6-3h73c3 0 5 1 7 3 2 1 2 3 2 6z"/></svg>