<svg xmlns="http://www.w3.org/2000/svg" xml:space="preserve" viewBox="0 20.61 460.09 418.87"><path d="M25.555 139.872h257.526V88.761H25.555C11.442 88.761 0 100.203 0 114.316s11.442 25.556 25.555 25.556zM25.555 242.429h257.526v-51.111H25.555C11.442 191.318 0 202.76 0 216.874s11.442 25.555 25.555 25.555zM25.555 293.874v.001C11.442 293.875 0 305.316 0 319.43s11.442 25.555 25.555 25.555h178.91a63.12 63.12 0 0 1-3.088-19.523c0-11.277 2.957-22.094 8.48-31.588H25.555z"/><path d="M450.623 302.611c-12.62-12.621-33.083-12.621-45.704 0l-26.535 26.535V52.926c0-17.849-14.469-32.317-32.318-32.317s-32.318 14.469-32.318 32.317v276.22l-26.535-26.535c-12.621-12.62-33.083-12.621-45.704 0-12.621 12.621-12.621 33.083 0 45.704l81.7 81.699c12.596 12.6 33.084 12.643 45.714 0l81.7-81.699c12.62-12.621 12.621-33.083 0-45.704z"/></svg>