<?xml version="1.0" encoding="utf-8"?>
<!-- Generator: Adobe Illustrator 28.0.0, SVG Export Plug-In . SVG Version: 6.00 Build 0)  -->
<svg version="1.1" id="Layer_1" xmlns="http://www.w3.org/2000/svg" xmlns:xlink="http://www.w3.org/1999/xlink" x="0px" y="0px"
	 viewBox="0 0 589.8 549.4" style="enable-background:new 0 0 589.8 549.4;" xml:space="preserve">
<path d="M576.8,1.5c-2.2-0.9-4.5-1.4-6.8-1.5l0,0H359.3C348,1.6,340,12,341.5,23.4c0.5,3.6,1.9,7.1,4.1,9.9l44.2,57.3l6.3,8.2
	l-101.2,77.5L193.7,98.7l6.3-8.2l44.1-57.3c7-9.1,5.3-22.1-3.7-29.1c-2.9-2.2-6.3-3.7-9.9-4.1H19.8C8.3,0.6-0.6,10.4,0,22
	c0.1,2.4,0.6,4.7,1.5,6.8L53.9,229c4.4,10.6,16.5,15.7,27.1,11.3c3.4-1.4,6.3-3.7,8.6-6.6l39.4-51l11.8-15.4l111.1,85.1l-0.3,255.7
	c1.1,23.8,21.2,42.3,45.1,41.3c22.4-1,40.3-18.9,41.3-41.3l0.3-255.9L449,167.3l11.9,15.4l39.3,51c7,9.1,20,10.8,29.1,3.8
	c2.9-2.2,5.2-5.2,6.6-8.6l52.4-200.2C592.6,18.1,587.5,5.9,576.8,1.5z"/>
</svg>
