<?xml version="1.0" encoding="utf-8"?>
<!-- Generator: Adobe Illustrator 27.8.1, SVG Export Plug-In . SVG Version: 6.00 Build 0)  -->
<svg version="1.1" id="Layer_1" xmlns="http://www.w3.org/2000/svg" xmlns:xlink="http://www.w3.org/1999/xlink" x="0px" y="0px"
	 viewBox="0 0 131 41" style="enable-background:new 0 0 131 41;" xml:space="preserve">
<g>
	<g>
		<path d="M16.8,23.3L0,24c0.2,4.2,1.8,8.3,4.7,11.4L17.1,24C16.9,23.8,16.8,23.6,16.8,23.3z"/>
		<path d="M5.8,36.3c3.1,2.9,7.2,4.5,11.4,4.7l0.7-16.6c-0.3,0-0.5-0.1-0.7-0.3L5.8,36.3z"/>
		<path d="M29.9,35.1l-11.1-11c-0.2,0.2-0.5,0.3-0.8,0.3L18.6,41c4.1-0.2,8.1-1.7,11.2-4.5c0.1-0.1,0.2-0.2,0.2-0.3
			c0.1-0.1,0.1-0.3,0.1-0.4c0-0.1,0-0.3-0.1-0.4C30,35.3,30,35.2,29.9,35.1z"/>
		<path d="M17.1,22.4L6,11.4c-0.1-0.1-0.2-0.2-0.3-0.2c-0.1-0.1-0.3-0.1-0.4-0.1c-0.1,0-0.3,0-0.4,0.1c-0.1,0.1-0.2,0.1-0.3,0.2
			c-2.8,3.1-4.4,7-4.5,11.1l16.7,0.7C16.8,22.9,16.9,22.6,17.1,22.4z"/>
		<path d="M45.3,19.5l-11-10.9c-0.4-0.4-1.2-0.4-1.6,0l-11,10.9c-0.4,0.4-0.4,1.2,0,1.6l11,10.9c0.4,0.4,1.2,0.4,1.6,0l11-10.9
			C45.8,20.7,45.8,20,45.3,19.5z"/>
		<path d="M18.2,15.4c2.1,0,3.7-1.7,3.7-3.7S20.3,8,18.2,8c-2.1,0-3.7,1.7-3.7,3.7S16.2,15.4,18.2,15.4z"/>
		<path d="M20,3.9C21.1,3.9,22,3,22,1.9C22,0.9,21.1,0,20,0s-1.9,0.9-1.9,1.9C18.1,3,18.9,3.9,20,3.9z"/>
		<path d="M26,9.9c1.1,0,1.9-0.9,1.9-1.9C27.9,7,27,6.1,26,6.1C24.9,6.1,24,7,24,8C24,9.1,24.9,9.9,26,9.9z"/>
	</g>
	<g>
		<path d="M59.1,22.2l-1.2-0.8c-1.7-1.1-2.5-1.9-2.5-2.9c0-1.3,1.2-2.1,3.4-2.1c0.5,0,1.4,0,2.4,0.1v-2.6c-1-0.1-1.9-0.2-2.9-0.2
			c-3.9,0-6.2,1.8-6.2,4.8c0,2,1.1,3.5,3.6,5.1l1.2,0.8c1.7,1.1,2.4,2,2.4,3.2c0,1.6-1.1,2.4-3.6,2.4c-1.2,0-2.4-0.1-3.5-0.2v2.9
			c1.4,0.2,2.8,0.2,3.7,0.2c4.3,0,6.8-1.9,6.8-5.2C62.8,25.5,61.7,23.9,59.1,22.2z"/>
		<path d="M76,13.5c-2.8,0-5.4,1.2-6.7,3.2l0-2.9h-2.9v25.7h3.3v-5.4c0-1.3,0-2.8-0.1-4.1c1.4,1.8,3.9,2.9,6.5,2.9
			c5.1,0,9.4-4,9.4-9.7S81.1,13.5,76,13.5z M75.6,29.9c-3.4,0-6.2-2.4-6.2-6.7c0-4.3,2.8-6.7,6.2-6.7c3.7,0,6.5,2.8,6.5,6.7
			C82,27.2,79.3,29.9,75.6,29.9z"/>
		<path d="M89,19.8v12.8h3.3V19.7c0-2.1,0.8-2.9,2.8-2.9h1.8v-3h-2.1C90.9,13.9,89,15.8,89,19.8z"/>
		<rect x="99.8" y="5.3" width="3.3" height="5.2"/>
		<rect x="99.8" y="13.9" width="3.3" height="18.7"/>
		<polygon points="112.2,7.5 108.9,8.7 108.9,13.9 106.6,13.9 106.6,16.9 108.9,16.9 108.9,32.6 112.2,32.6 112.2,16.9 114.6,16.9 
			114.6,13.9 112.2,13.9 		"/>
		<polygon points="131,13.9 117.6,13.9 117,16.9 126.1,16.9 116.4,32.1 116.4,32.6 130.5,32.6 131,29.7 121.4,29.7 131,14.4 		"/>
	</g>
</g>
</svg>
