<?xml version="1.0" encoding="utf-8"?>
<!-- Generator: Adobe Illustrator 28.2.0, SVG Export Plug-In . SVG Version: 6.00 Build 0)  -->
<svg version="1.1" id="Layer_1" xmlns="http://www.w3.org/2000/svg" xmlns:xlink="http://www.w3.org/1999/xlink" x="0px" y="0px"
	 viewBox="0 0 27.98 27.98" style="enable-background:new 0 0 27.98 27.98;" xml:space="preserve">
<path d="M23.92,4.13C18.47-1.35,9.62-1.38,4.13,4.06c-5.48,5.45-5.51,14.3-0.07,19.79c5.45,5.48,14.3,5.51,19.79,0.07
	C29.33,18.47,29.36,9.62,23.92,4.13z M20.05,3.48l-2.97,2.95c-1.96-0.8-4.16-0.81-6.13-0.02L8,3.44
	C11.75,1.33,16.32,1.34,20.05,3.48z M6.41,17.03l-2.97,2.95c-2.12-3.74-2.1-8.32,0.04-12.05l2.95,2.97
	C5.63,12.86,5.62,15.06,6.41,17.03z M7.93,24.5l2.97-2.95c1.96,0.8,4.16,0.81,6.13,0.02l2.95,2.97
	C16.24,26.66,11.66,26.64,7.93,24.5z M18.44,18.48c-2.47,2.46-6.48,2.44-8.94-0.03c-2.46-2.47-2.44-6.48,0.03-8.94
	s6.48-2.44,8.94,0.03C20.93,12.01,20.92,16.02,18.44,18.48z M21.55,17.08c0.8-1.96,0.81-4.16,0.02-6.13L24.54,8
	c2.12,3.74,2.1,8.32-0.04,12.05L21.55,17.08z"/>
</svg>
