<svg xmlns="http://www.w3.org/2000/svg" xml:space="preserve" viewBox="18 37 476 402"><path d="M165 393v-55c0-2-1-5-3-6-2-2-4-3-7-3H64c-3 0-5 1-7 3-1 1-2 4-2 6v55c0 3 1 5 2 7 2 1 4 2 7 2h91c3 0 5-1 7-2 2-2 3-4 3-7zm0-110v-54c0-3-1-5-3-7s-4-3-7-3H64c-3 0-5 1-7 3-1 2-2 4-2 7v54c0 3 1 5 2 7 2 2 4 3 7 3h91c3 0 5-1 7-3s3-4 3-7zm146 110v-55c0-2-1-5-3-6-1-2-4-3-6-3h-92c-2 0-5 1-6 3-2 1-3 4-3 6v55c0 3 1 5 3 7 1 1 4 2 6 2h92c2 0 5-1 6-2 2-2 3-4 3-7zM165 174v-55c0-3-1-5-3-7-2-1-4-2-7-2H64c-3 0-5 1-7 2-1 2-2 4-2 7v55c0 2 1 5 2 6 2 2 4 3 7 3h91c3 0 5-1 7-3 2-1 3-4 3-6zm146 109v-54c0-3-1-5-3-7-1-2-4-3-6-3h-92c-2 0-5 1-6 3-2 2-3 4-3 7v54c0 3 1 5 3 7 1 2 4 3 6 3h92c2 0 5-1 6-3 2-2 3-4 3-7zm146 110v-55c0-2-1-5-2-6-2-2-4-3-7-3h-91c-3 0-5 1-7 3-2 1-3 4-3 6v55c0 3 1 5 3 7 2 1 4 2 7 2h91c3 0 5-1 7-2 1-2 2-4 2-7zM311 174v-55c0-3-1-5-3-7-1-1-4-2-6-2h-92c-2 0-5 1-6 2-2 2-3 4-3 7v55c0 2 1 5 3 6 1 2 4 3 6 3h92c2 0 5-1 6-3 2-1 3-4 3-6zm146 109v-54c0-3-1-5-2-7-2-2-4-3-7-3h-91c-3 0-5 1-7 3s-3 4-3 7v54c0 3 1 5 3 7s4 3 7 3h91c3 0 5-1 7-3 1-2 2-4 2-7zm0-109v-55c0-3-1-5-2-7-2-1-4-2-7-2h-91c-3 0-5 1-7 2-2 2-3 4-3 7v55c0 2 1 5 3 6 2 2 4 3 7 3h91c3 0 5-1 7-3 1-1 2-4 2-6zm37-92v311c0 13-5 23-14 32s-19 14-32 14H64c-13 0-23-5-32-14s-14-19-14-32V82c0-12 5-23 14-32s19-13 32-13h384c13 0 23 4 32 13s14 20 14 32z"/></svg>