<svg xmlns="http://www.w3.org/2000/svg" xml:space="preserve" viewBox="55 37 402 438"><path d="M201 210v165c0 3-1 5-2 6-2 2-4 3-7 3h-18c-3 0-5-1-7-3-2-1-2-3-2-6V210c0-2 0-5 2-6 2-2 4-3 7-3h18c3 0 5 1 7 3 1 1 2 4 2 6zm73 0v165c0 3-1 5-2 6-2 2-4 3-7 3h-18c-3 0-5-1-7-3-1-1-2-3-2-6V210c0-2 1-5 2-6 2-2 4-3 7-3h18c3 0 5 1 7 3 1 1 2 4 2 6zm73 0v165c0 3 0 5-2 6-2 2-4 3-7 3h-18c-3 0-5-1-7-3-1-1-2-3-2-6V210c0-2 1-5 2-6 2-2 4-3 7-3h18c3 0 5 1 7 3 2 1 2 4 2 6zm37 207V146H128v271c0 4 1 8 2 12 1 3 3 6 4 7l3 3h238l3-3c1-1 3-4 4-7 1-4 2-8 2-12zM192 110h128l-14-34c-1-1-3-2-5-3h-90c-2 1-4 2-5 3zm265 9v18c0 3-1 5-2 7-2 1-4 2-7 2h-27v271c0 16-5 30-14 41-9 12-20 17-32 17H137c-12 0-23-5-32-16s-14-25-14-41V146H64c-3 0-5-1-7-2-1-2-2-4-2-7v-18c0-3 1-5 2-7 2-1 4-2 7-2h88l20-48c3-7 8-13 16-18 7-5 15-7 22-7h92c7 0 15 2 22 7 8 5 13 11 16 18l20 48h88c3 0 5 1 7 2 1 2 2 4 2 7z"/></svg>