<svg xmlns="http://www.w3.org/2000/svg" xml:space="preserve" viewBox="0.15 -0.06 569.05 422.26"><path d="M193.9 210.4c50.9 0 92-46 96.9-103.5 1.6-27.1-7.4-55-25.5-75.6-37-41.1-101-41.1-140.4-4.1l-2.5 1.6c-18 21.4-27 48.5-25.4 76.4 2.5 57.5 46 105.2 96.9 105.2zm195.5 172.4c-7.4-43.5-34.5-82.1-71.4-105.1-75.6-48.5-170-48.5-245.5 0-37 23-64.9 61.6-71.4 105.1-2.5 9 0 20.5 6.6 27.9 4.9 6.6 14 11.5 23 11.5h330.9c9 0 16.4-4.9 23-11.5 2.3-9 7.2-18.9 4.8-27.9zM552.7 218.4h-72.5v-72.5c0-8.6-7-16.1-16.1-16.1-9.1 0-16.5 7.4-16.5 16.1v72.5h-72.5c-8.6 0-16.1 7.4-16.1 16.5s7.4 16.1 16.1 16.1h72.5v72.5c0 9.1 7.4 16.5 16.5 16.5s16.1-7.4 16.1-16.5V251h72.5c9.1 0 16.5-7 16.5-16.1s-7.5-16.5-16.5-16.5z"/></svg>