<svg xmlns="http://www.w3.org/2000/svg" xml:space="preserve" viewBox="5 11 502 490"><path d="M277 346c-29 0-53-23-53-52s24-53 53-53 53 24 53 53-24 52-53 52zm0-83c-17 0-31 14-31 31s14 30 31 30 31-13 31-30-14-31-31-31zM434 11H78c-20 0-38 8-52 22l-3 3C12 50 5 66 5 85v271c0 40 31 79 69 88l233 55c6 1 11 2 16 2 14 0 26-4 37-12 14-12 22-29 22-49v-52h52c40 0 73-33 73-73V85c0-41-33-74-73-74zm-74 429c0 13-5 24-14 31s-21 10-34 6L79 423c-28-7-52-37-52-67V85c0-12 3-22 10-31l270 68c29 7 53 38 53 67zm125-125c0 28-23 51-51 51h-52V200h31c6 0 11-5 11-11s-5-11-11-11h-32c-6-35-34-69-68-78l-20-4h120c6 0 11-5 11-11s-5-11-11-11H205L58 37c6-2 13-4 20-4h356c28 0 51 23 51 52z"/></svg>