<svg xmlns="http://www.w3.org/2000/svg" viewBox="0 0 21 15.95"><path class="mc-c1" d="M20.93 2.77C20.91 1.24 19.59 0 17.99 0h-.02l-6.88.04c-.81 0-1.56.32-2.11.88-.51.52-.79 1.2-.78 1.93l.04 2.32h1.5c2.21 0 4 1.79 4 4v.64l4.38-.02c.81 0 1.56-.32 2.11-.88.5-.52.78-1.21.77-1.93l-.07-4.21z"/><path class="mc-c2" d="M19.73 2.66l-10.32.05c-.28 0-.5.23-.5.5 0 .28.22.5.5.5l10.33-.05c.28 0 .5-.23.5-.5 0-.28-.24-.51-.51-.5zM9.74 6.17H3c-1.66 0-3 1.35-3 3v3.78c0 1.66 1.35 3 3 3h6.73c1.66 0 3-1.35 3-3V9.17c.01-1.66-1.34-3-2.99-3zm1.86 3.66H1.14c-.28 0-.5-.22-.5-.5s.22-.5.5-.5H11.6c.28 0 .5.22.5.5s-.22.5-.5.5z"/><path class="mc-c1" d="M5 12.64H3c-.28 0-.5.22-.5.5s.22.5.5.5h2c.28 0 .5-.22.5-.5s-.22-.5-.5-.5z"/></svg>
