<svg version="1.1" id="Layer_1" xmlns="http://www.w3.org/2000/svg" x="0" y="0" viewBox="0 0 18.5 15.67" xml:space="preserve"><circle class="mc-c2" cx="12.34" cy="13.13" r="2.53"/><circle fill="none" cx="12.34" cy="13.13" r="2.03"/><path class="mc-c2" d="M15.33 7.55a3.171 3.171 0 000 6.34 3.171 3.171 0 000-6.34zm0 5.34c-1.2 0-2.17-.97-2.17-2.17s.97-2.17 2.17-2.17 2.17.97 2.17 2.17-.97 2.17-2.17 2.17z"/><path fill="none" d="M15.33 8.05c-1.47 0-2.67 1.2-2.67 2.67s1.2 2.67 2.67 2.67S18 12.19 18 10.72s-1.2-2.67-2.67-2.67z"/><path class="mc-c1" d="M8.81 13.13c0-1.58 1.05-2.9 2.48-3.36.43-1.84 2.08-3.23 4.05-3.23 1.02 0 1.94.38 2.67.99V4.21A4.232 4.232 0 0013.79 0H4.21C1.89 0 0 1.89 0 4.21v5.89c0 2.32 1.89 4.21 4.21 4.21h4.81c-.13-.37-.21-.76-.21-1.18z"/><path class="mc-c2" d="M11.35 6.5c-.2-.2-.51-.2-.71 0L9.5 7.64V4.35c0-.28-.22-.5-.5-.5s-.5.22-.5.5v3.29L7.35 6.5c-.2-.2-.51-.2-.71 0s-.2.51 0 .71l2 2c.1.09.23.14.36.14s.26-.05.35-.15l2-2c.2-.19.2-.51 0-.7z"/></svg>
