<svg xmlns="http://www.w3.org/2000/svg" viewBox="0 0 18.92 18.27"><path class="mc-c2" d="M5.03 4.26C2.26 4.26 0 6.51 0 9.29c0 2.77 2.26 5.03 5.03 5.03s5.03-2.26 5.03-5.03c0-2.78-2.26-5.03-5.03-5.03z"/><path class="mc-c1" d="M13.89 4.26c-1.52 0-2.88.7-3.8 1.77.61.94.96 2.06.96 3.26 0 1.2-.36 2.32-.96 3.26.92 1.07 2.27 1.77 3.8 1.77a5.04 5.04 0 005.03-5.03c0-2.78-2.26-5.03-5.03-5.03zM13.34 15.09a.486.486 0 00-.48-.05l-1.55.65a.5.5 0 00-.27.65c.08.2.28.31.48.3-.61.44-1.35.67-2.1.62-.93-.06-1.79-.53-2.36-1.28a.507.507 0 00-.7-.1c-.22.17-.26.48-.1.7.75.98 1.87 1.59 3.09 1.67.1.01.19.01.28.01 1.05 0 2.05-.41 2.84-1.12.06.19.23.33.44.34h.03c.26 0 .48-.2.5-.47l.1-1.5a.489.489 0 00-.2-.42zM13.44 1.68A4.223 4.223 0 0010.35.01C9.21-.07 8.09.34 7.23 1.12a.508.508 0 00-.44-.35c-.24-.01-.51.19-.53.47l-.1 1.5c-.01.17.07.34.21.44.09.06.19.09.29.09.07 0 .13-.01.19-.04l1.55-.65c.25-.11.37-.4.27-.65a.487.487 0 00-.48-.3c.61-.44 1.34-.67 2.1-.62.93.06 1.79.53 2.36 1.28.1.13.25.2.4.2.11 0 .21-.03.3-.1a.51.51 0 00.09-.71z"/><path class="st2" d="M15.37 10.64c-.27.18-.58.27-.9.27-.55 0-1.03-.28-1.33-.69h1.55a.38.38 0 100-.76h-1.83c-.01-.06-.02-.12-.02-.18s.01-.12.02-.18h1.83a.38.38 0 100-.76h-1.55c.29-.42.78-.69 1.33-.69.32 0 .63.09.9.27.17.12.4.07.52-.1s.07-.41-.1-.52c-.39-.26-.85-.4-1.32-.4-.98 0-1.82.6-2.18 1.44h-.49a.38.38 0 100 .76h.31c0 .06-.02.12-.02.18s.01.12.02.18h-.31a.38.38 0 100 .76h.48c.36.85 1.2 1.44 2.18 1.44.47 0 .93-.14 1.32-.4.17-.12.22-.35.1-.52a.36.36 0 00-.51-.1zM5.1 7.34c.45 0 .86.18 1.05.47.12.17.35.22.52.11.18-.12.22-.35.11-.52-.28-.43-.8-.71-1.4-.78v-.33c0-.21-.17-.38-.38-.38s-.37.17-.37.38v.35c-.82.17-1.43.77-1.43 1.48 0 .43.24 1.21 1.83 1.52.32.06.95.4.95.78 0 .42-.53.78-1.15.78-.45 0-.86-.18-1.05-.47a.383.383 0 00-.52-.11c-.17.11-.22.35-.11.52.3.45.85.73 1.48.79v.37a.38.38 0 10.76 0v-.42c.78-.19 1.35-.77 1.35-1.45 0-.83-.93-1.4-1.56-1.52-.37-.08-1.23-.3-1.23-.79 0-.42.53-.78 1.15-.78z"/></svg>
