<svg xmlns="http://www.w3.org/2000/svg" viewBox="0 0 19.05 17.09"><path class="mc-c1" d="M16.19 4.08H2.91A2.86 2.86 0 00.05 6.94v7.28a2.86 2.86 0 002.86 2.86h13.28a2.86 2.86 0 002.86-2.86V6.94a2.86 2.86 0 00-2.86-2.86z"/><path class="mc-c2" d="M15.68 3.08L14.57.95c-.22-.42-.58-.73-1.03-.87s-.93-.1-1.35.12L6.64 3.08h9.04z"/><path class="mc-c1a" d="M0 11.92h19v1H0z"/><path class="mc-c2" d="M15.61 9.84c-.43-.53-1.05-.85-1.65-.85-.54 0-1.02.24-1.41.66V4.08h-1v5.76c-.44-.55-1.01-.87-1.63-.85-.63 0-1.29.34-1.73.88-.34.42-.48.89-.4 1.3.2.96 1.55 1.31 1.96 1.4.16.03.46.08.8.09-.41.65-1.85 1.86-3.02 1.91-.28.01-.49.25-.48.52.01.27.23.48.5.48h.02c1.28-.06 2.84-1.11 3.62-2.1.17-.22.28-.42.36-.62v4.24h1v-3.44c.06.11.13.22.22.32.53.67 1.36 1.08 2.26 1.13h.03c.26 0 .48-.21.5-.47a.496.496 0 00-.47-.53c-.62-.04-1.18-.31-1.54-.76a1.49 1.49 0 01-.32-.69h.05c.33 0 .64-.05.8-.07.84-.17 1.79-.64 1.95-1.42.08-.4-.07-.89-.42-1.32zm-4.45 1.72c-.14.11-.81.17-1.54-.06-.57-.18-.83-.43-.85-.54-.02-.07.03-.25.2-.47.25-.31.63-.51.96-.51.51 0 .85.46.97.65.28.44.3.83.26.93zm3.05-.05c-.71.23-1.31.16-1.43.06-.05-.12 0-.55.27-.97.12-.19.44-.62.9-.62.3 0 .64.19.88.48.17.21.23.41.21.5-.02.12-.27.37-.83.55z"/></svg>
