<svg xmlns="http://www.w3.org/2000/svg" viewBox="0 0 16.39 15.19"><path class="mc-c2" d="M16.24 11.7l-1.51-1.51c-.2-.2-.51-.2-.71 0s-.2.51 0 .71l.65.65h-2.32c-.28 0-.5.22-.5.5s.22.5.5.5h2.32l-.65.65c-.2.2-.2.51 0 .71a.485.485 0 00.7 0l1.51-1.51c.21-.19.21-.51.01-.7z"/><path class="mc-c2" d="M12.4 15.19h-1.61c-.71 0-1.28-.57-1.28-1.28v-3.72c0-.71.58-1.28 1.28-1.28h1.61c.28 0 .5.22.5.5s-.22.5-.5.5h-1.61a.28.28 0 00-.28.28v3.72c0 .15.13.28.28.28h1.61c.28 0 .5.22.5.5s-.23.5-.5.5z"/><path class="mc-c1" d="M8.51 13.91v-3.72c0-1.03.69-1.89 1.63-2.17-.52-.28-1.06-.52-1.65-.66a3.85 3.85 0 002.26-3.5C10.75 1.73 9.02 0 6.89 0S3.03 1.73 3.03 3.86c0 1.56.93 2.89 2.26 3.5C2.26 8.08 0 10.8 0 14.05h8.52c0-.04-.01-.09-.01-.14z"/></svg>
