<svg xmlns="http://www.w3.org/2000/svg" viewBox="0 0 16.43 15.6"><circle class="mc-c2" cx="13.09" cy="12.26" r="3.34"/><circle cx="13.09" cy="12.26" r="3.34" clip-rule="evenodd" fill="none"/><path class="mc-c1" d="M10.96 8.5c-.73-.54-1.58-.92-2.49-1.13 1.34-.6 2.28-1.95 2.28-3.51C10.75 1.73 9.02 0 6.89 0S3.03 1.73 3.03 3.86c0 1.56.93 2.89 2.26 3.5C2.26 8.08 0 10.8 0 14.05h9.15c-.25-.55-.4-1.15-.4-1.79 0-1.61.9-3.01 2.21-3.76z"/><path class="mc-c1a" d="M14.76 11.76h-1.17V10.6c0-.28-.22-.5-.5-.5s-.5.22-.5.5v1.17h-1.17c-.28 0-.5.22-.5.5s.22.5.5.5h1.17v1.17c0 .28.22.5.5.5s.5-.22.5-.5v-1.17h1.17c.28 0 .5-.22.5-.5s-.23-.51-.5-.51z"/></svg>
