<svg xmlns="http://www.w3.org/2000/svg" viewBox="0 0 18.38 18.89"><path class="mc-c1" d="M16.27.32l-.21-.31-.36.12c-1.89.65-4.11.99-6.42.99-2.33 0-4.57-.35-6.46-1L2.46 0l-.21.3A11.944 11.944 0 000 7.3c0 5.33 3.58 10.09 8.7 11.56l.12.04.12-.03c5.46-1.2 9.43-6.14 9.43-11.74.01-2.45-.72-4.8-2.1-6.81z"/><path class="mc-c1" d="M7.7 7.69V6.56c0-.81.65-1.46 1.46-1.46s1.46.65 1.46 1.46V7.7"/><path class="mc-c2" d="M11.13 7.68V6.56c0-1.08-.88-1.96-1.96-1.96S7.2 5.48 7.2 6.56V7.7h.01c-.8.35-1.37 1.14-1.37 2.07v.68c0 1.25 1.01 2.26 2.26 2.26h2.16c1.25 0 2.26-1.01 2.26-2.26v-.68c.01-.95-.57-1.75-1.39-2.09zM9.17 5.6c.53 0 .96.43.96.96v.95H8.2v-.95c0-.53.43-.96.97-.96z"/></svg>
