<svg version="1.1" id="Layer_1" xmlns="http://www.w3.org/2000/svg" x="0" y="0" viewBox="0 0 16.8 18.21" xml:space="preserve"><path class="mc-c1" d="M9.86.52l-.01 1.04c0 2.5 1.49 3.78 4.43 3.78.08 0 .15.02.21.05L9.84.17A.48.48 0 009.47 0h-.11c.14 0 .27.05.36.15s.15.23.14.37z"/><path class="mc-c2" d="M13.61 10.03c-1.72 0-3.12 1.38-3.18 3.09a2.54 2.54 0 00-2.39 2.53c0 1.41 1.14 2.55 2.55 2.55 1.16 0 2.14-.79 2.44-1.86.19.03.38.06.58.06a3.184 3.184 0 100-6.37zm0 5.38c-.17 0-.34-.02-.5-.06a2.52 2.52 0 00-1.69-2.09v-.04a2.19 2.19 0 112.19 2.19z"/><path d="M13.61 11.03c-1.21 0-2.19.98-2.19 2.19v.04c.9.31 1.57 1.11 1.69 2.09a2.19 2.19 0 10.5-4.32z" fill="none"/><path class="mc-c1" d="M7.04 15.65c0-1.59 1.06-2.92 2.5-3.37.43-1.86 2.09-3.25 4.07-3.25.06 0 .11.01.17.02V6.32c-3.18-.16-4.92-1.83-4.92-4.76V1H3.07C1.38 1 0 2.38 0 4.07v9.49c0 1.69 1.38 3.07 3.07 3.07H7.2c-.09-.31-.16-.63-.16-.98z"/><path class="mc-c2" d="M6.36 9.46H2.25c-.28 0-.5-.22-.5-.5s.22-.5.5-.5h4.11c.28 0 .5.22.5.5s-.23.5-.5.5zM6.88 12.09H2.25c-.28 0-.5-.22-.5-.5s.22-.5.5-.5h4.64c.28 0 .5.22.5.5s-.23.5-.51.5zM8.74 6.83H2.25c-.28 0-.5-.22-.5-.5s.22-.5.5-.5h6.49c.28 0 .5.22.5.5s-.22.5-.5.5z"/></svg>
