<svg xmlns="http://www.w3.org/2000/svg" viewBox="0 0 17.86 14.78"><path class="mc-c1" d="M5.78 9.01C6.51 8.49 7 7.65 7 6.68a2.834 2.834 0 00-5.67 0c0 .96.48 1.81 1.22 2.32C1.05 9.64 0 11.12 0 12.85h8.33c0-1.73-1.06-3.21-2.55-3.84z"/><path class="mc-c2" d="M11.99 10.73c.81-.37 1.37-1.18 1.37-2.12 0-1.29-1.04-2.33-2.33-2.33S8.7 7.33 8.7 8.61c0 .94.56 1.75 1.37 2.12a4.14 4.14 0 00-3.2 4.04h8.33a4.188 4.188 0 00-3.21-4.04zM17.72 2.65c-.2-.2-.51-.2-.71 0L15.86 3.8V.5c0-.28-.22-.5-.5-.5s-.5.22-.5.5v3.29l-1.15-1.15c-.2-.2-.51-.2-.71 0s-.2.51 0 .71l2 2a.485.485 0 00.7 0l2-2c.21-.19.21-.51.02-.7z"/></svg>
