<svg version="1.1" id="Layer_1" xmlns="http://www.w3.org/2000/svg" x="0" y="0" viewBox="0 0 20 16.7" xml:space="preserve"><path class="mc-c1" d="M10.28 11.06a2.86 2.86 0 012.86-2.86H18V4.21C18 1.89 16.11 0 13.79 0H4.21C1.89 0 0 1.89 0 4.21v5.89c0 2.32 1.89 4.21 4.21 4.21h6.07v-3.25z"/><path class="mc-c2" d="M11.35 6.5c-.2-.2-.51-.2-.71 0L9.5 7.64V4.35c0-.28-.22-.5-.5-.5s-.5.22-.5.5v3.29L7.35 6.5c-.2-.2-.51-.2-.71 0s-.2.51 0 .71l2 2c.1.09.23.14.36.14s.26-.05.35-.15l2-2c.2-.19.2-.51 0-.7zM18.14 9.2h-4.99c-1.03 0-1.86.83-1.86 1.86v3.77c0 1.03.83 1.86 1.86 1.86h4.99c1.03 0 1.86-.83 1.86-1.86v-3.77c0-1.03-.83-1.86-1.86-1.86z"/><path d="M18.14 9.7h-4.99c-.75 0-1.36.61-1.36 1.36v3.77c0 .75.61 1.36 1.36 1.36h4.99c.75 0 1.36-.61 1.36-1.36v-3.77c0-.75-.61-1.36-1.36-1.36z" fill="none"/><g><path class="mc-c1" d="M19.05 11.57h-6.82c-.28 0-.5.22-.5.5s.22.5.5.5h6.82c.28 0 .5-.22.5-.5s-.22-.5-.5-.5zM13.81 10.81c.28 0 .5-.22.5-.5V8.92c0-.28-.22-.5-.5-.5s-.5.22-.5.5v1.39c0 .27.23.5.5.5zM17.47 10.81c.28 0 .5-.22.5-.5V8.92c0-.28-.22-.5-.5-.5s-.5.22-.5.5v1.39c0 .27.22.5.5.5z"/></g></svg>
