<svg version="1.1" id="Layer_1" xmlns="http://www.w3.org/2000/svg" x="0" y="0" viewBox="0 0 18.09 16.29" xml:space="preserve"><path class="mc-c1" d="M8.39 13.76c0-1.58 1.04-2.92 2.47-3.37a4.17 4.17 0 014.05-3.21c.89 0 1.71.28 2.38.76V5.5c0-2.32-1.89-4.21-4.21-4.21H4.21C1.89 1.29 0 3.18 0 5.5v6.3c0 2.32 1.89 4.21 4.21 4.21h5.02c-.51-.61-.84-1.39-.84-2.25z"/><path class="mc-c1a" d="M.75 5.38h15.81v1H.75z"/><path class="mc-c2" d="M5.22 0c-.28 0-.5.22-.5.5v2.57c0 .28.22.5.5.5s.5-.22.5-.5V.5c0-.28-.23-.5-.5-.5zM12.09 0c-.28 0-.5.22-.5.5v2.57c0 .28.22.5.5.5s.5-.22.5-.5V.5c0-.28-.22-.5-.5-.5z"/><circle cx="14.92" cy="11.34" r="2.67" fill="none"/><path class="mc-c2" d="M14.92 14.51a3.171 3.171 0 010-6.34 3.171 3.171 0 010 6.34zm0-5.33c-1.19 0-2.17.97-2.17 2.17s.97 2.17 2.17 2.17c1.19 0 2.17-.97 2.17-2.17s-.97-2.17-2.17-2.17z"/><circle fill-rule="evenodd" clip-rule="evenodd" fill="none" cx="14.92" cy="11.34" r="2.67"/><g><circle class="mc-c2" cx="11.93" cy="13.76" r="2.03"/><path class="mc-c2" d="M11.93 16.29c-1.4 0-2.53-1.14-2.53-2.53s1.14-2.54 2.53-2.54 2.53 1.14 2.53 2.54-1.13 2.53-2.53 2.53zm0-4.07c-.85 0-1.53.69-1.53 1.54 0 .85.69 1.53 1.53 1.53s1.53-.69 1.53-1.53c0-.85-.69-1.54-1.53-1.54z"/><circle fill-rule="evenodd" clip-rule="evenodd" fill="none" cx="11.93" cy="13.76" r="2.03"/></g></svg>
