<svg xmlns="http://www.w3.org/2000/svg" viewBox="0 0 16.42 16.42"><path class="mc-c1" d="M16.06 6.78l-1.88-.46c-.11-.34-.24-.67-.41-.99l.98-1.64c.11-.19.08-.43-.07-.59l-1.36-1.36a.47.47 0 00-.59-.07l-1.64.98c-.32-.16-.65-.3-.99-.41L9.64.36A.475.475 0 009.17 0H7.25c-.22 0-.41.15-.47.36l-.46 1.89c-.34.11-.67.24-.99.41L3.7 1.68a.47.47 0 00-.59.07L1.75 3.11a.47.47 0 00-.07.59l.98 1.64c-.16.32-.3.65-.41.99l-1.89.45c-.21.06-.36.25-.36.47v1.92c0 .23.15.42.36.47l1.88.46c.11.34.24.67.41.99l-.98 1.64c-.11.19-.08.43.07.59l1.36 1.36c.16.16.4.19.59.07l1.64-.98c.32.16.65.3.99.41l.46 1.88c.05.21.25.36.47.36h1.92c.22 0 .41-.15.47-.36l.46-1.88c.34-.11.67-.24.99-.41l1.64.98c.19.11.43.08.59-.07l1.36-1.36c.16-.16.19-.4.07-.59l-.98-1.64c.16-.32.3-.65.41-.99l1.88-.46c.21-.05.36-.25.36-.47V7.25c0-.22-.15-.41-.36-.47zm-7.85 5.76c-2.39 0-4.33-1.94-4.33-4.33s1.94-4.33 4.33-4.33 4.33 1.94 4.33 4.33-1.94 4.33-4.33 4.33z"/><path class="mc-c2" d="M8.21 5.81c-1.33 0-2.41 1.08-2.41 2.41s1.08 2.41 2.41 2.41 2.41-1.08 2.41-2.41-1.08-2.41-2.41-2.41z"/></svg>
