<svg xmlns="http://www.w3.org/2000/svg" viewBox="0 0 17.01 15.9"><path class="mc-c1" d="M16.89 10.55l-.96-1.09a.503.503 0 00-.84.14l-.62 1.5a.505.505 0 00.46.69c.13 0 .24-.06.33-.15-.12.71-.46 1.35-1.01 1.83-.68.59-1.58.86-2.48.74a.497.497 0 00-.56.43c-.04.27.15.53.43.56.19.03.38.04.56.04.99 0 1.95-.36 2.71-1.01.84-.73 1.32-1.77 1.38-2.88.17.08.38.05.53-.08.23-.2.25-.51.07-.72zM15.44 1.5c-1.9-1.9-5-1.9-6.91 0a4.878 4.878 0 00-1.36 4.11c.68.29 1.32.7 1.87 1.25.78.78 1.28 1.74 1.53 2.74.46.14.94.23 1.42.23 1.25 0 2.5-.48 3.45-1.43a4.87 4.87 0 000-6.9zM6.37.04C5.18-.12 4 .23 3.1 1.01a4.14 4.14 0 00-1.38 2.88.515.515 0 00-.53.08c-.21.18-.23.5-.05.71l.96 1.09c.1.11.23.17.38.17.03 0 .05 0 .08-.01.17-.03.31-.14.38-.3l.62-1.5a.501.501 0 00-.8-.56c.12-.7.47-1.34 1-1.8.68-.59 1.58-.86 2.48-.74.28.04.52-.16.56-.43a.497.497 0 00-.43-.56z"/><path class="mc-c2" d="M8.33 7.57c-1.9-1.9-5-1.9-6.91 0-1.9 1.9-1.9 5 0 6.91.95.95 2.2 1.43 3.45 1.43s2.5-.48 3.45-1.43a4.874 4.874 0 00.01-6.91zm-6.47 6.44c0-1.37.92-2.52 2.18-2.89-.45-.28-.74-.77-.74-1.33 0-.88.71-1.59 1.59-1.59a1.588 1.588 0 01.85 2.93c1.25.37 2.18 1.51 2.18 2.89H1.86z"/></svg>
