<svg xmlns="http://www.w3.org/2000/svg" viewBox="0 0 19 14.5"><path class="mc-c1" d="M14.64 0H4.36A4.37 4.37 0 000 4.36v5.77c0 2.41 1.96 4.37 4.36 4.37h10.27c2.41 0 4.36-1.96 4.36-4.37V4.36C19 1.96 17.04 0 14.64 0z"/><path class="mc-c2" d="M12.88 8.01a.486.486 0 00-.48-.05l-1.5.63c-.25.11-.37.4-.27.65.08.18.25.29.44.3-.58.41-1.27.62-1.99.57-.9-.06-1.72-.51-2.27-1.23a.507.507 0 00-.7-.1c-.22.17-.26.48-.1.7.72.95 1.82 1.54 3 1.62.09.01.18.01.27.01 1.01 0 1.98-.39 2.74-1.07.07.18.23.31.43.32h.03c.26 0 .48-.2.5-.47l.1-1.45a.462.462 0 00-.2-.43zM12.99 5.02a4.122 4.122 0 00-3-1.62c-1.11-.07-2.19.32-3.02 1.06a.491.491 0 00-.43-.32.501.501 0 00-.53.46l-.1 1.45a.498.498 0 00.69.49l1.5-.63a.5.5 0 00.27-.65.505.505 0 00-.44-.3c.58-.4 1.27-.61 1.99-.56.9.06 1.72.51 2.27 1.23.1.13.25.2.4.2.11 0 .21-.03.3-.1a.51.51 0 00.1-.71z"/></svg>
