<svg xmlns="http://www.w3.org/2000/svg" viewBox="0 0 17.5 17.73"><path class="mc-c1" d="M14.22 17.73H2.47C1.1 17.73 0 16.62 0 15.26V7.88c0-1.36 1.1-2.47 2.47-2.47h11.75c1.36 0 2.47 1.1 2.47 2.47v7.38c-.01 1.36-1.11 2.47-2.47 2.47z"/><path class="mc-c2" d="M16.18 13.37h-2.26c-.73 0-1.31-.59-1.31-1.31v-.98c0-.73.59-1.31 1.31-1.31h2.26c.73 0 1.31.59 1.31 1.31v.98c.01.72-.58 1.31-1.31 1.31zM14.22 4.72l-1.3-2.49-4.8 2.49zM5.95 4.72l6.51-3.38-.34-.66c-.32-.62-1.09-.86-1.71-.54L4.02 3.46c-.47.25-.72.76-.66 1.26h2.59z"/></svg>
