<svg version="1.1" id="Layer_1" xmlns="http://www.w3.org/2000/svg" x="0" y="0" viewBox="0 0 19 21" xml:space="preserve"><path class="mc-c2" d="M11.85 18.15c-.2-.2-.51-.2-.71 0L10 19.29V16c0-.28-.22-.5-.5-.5s-.5.22-.5.5v3.29l-1.15-1.15c-.2-.2-.51-.2-.71 0s-.2.51 0 .71l2 2c.1.1.23.15.36.15s.26-.05.35-.15l2-2c.2-.19.2-.51 0-.7z"/><path class="mc-c1" d="M14.64 0H4.36A4.37 4.37 0 000 4.36v5.77c0 2.41 1.96 4.36 4.36 4.36h10.27c2.41 0 4.36-1.96 4.36-4.36V4.36C19 1.96 17.04 0 14.64 0z"/><path class="mc-c1a" d="M7.69 6.24c-1.4 0-2.53 1.14-2.53 2.53S6.3 11.3 7.69 11.3s2.54-1.14 2.54-2.53-1.15-2.53-2.54-2.53z"/><circle fill-rule="evenodd" clip-rule="evenodd" fill="none" cx="7.69" cy="8.77" r="2.03"/><g><path class="mc-c2" d="M11.14 3.19a3.171 3.171 0 000 6.34 3.171 3.171 0 000-6.34z"/><circle fill-rule="evenodd" clip-rule="evenodd" fill="none" cx="11.14" cy="6.36" r="2.67"/></g></svg>
