<svg xmlns="http://www.w3.org/2000/svg" viewBox="0 0 19.03 18.27"><path class="mc-c1" d="M14.53 4.63c-1.16 0-2.2.45-3 1.17.26.46.47.96.61 1.48.02.06.03.12.05.18.05.2.09.4.12.6l.03.21c.03.26.05.53.05.81s-.02.55-.06.82l-.03.2c-.03.22-.08.43-.13.64-.01.05-.02.1-.04.15-.15.54-.37 1.05-.65 1.53.8.74 1.86 1.2 3.04 1.2 2.48 0 4.5-2.02 4.5-4.5s-2.01-4.49-4.49-4.49z"/><path class="mc-c1a" d="M14.7 7.96c.29 0 .51.13.6.26.12.17.35.22.52.11.17-.11.22-.35.11-.52-.19-.29-.53-.49-.91-.56v-.12a.38.38 0 10-.76 0v.14c-.55.15-.95.57-.95 1.08 0 .33.17.91 1.32 1.14.21.04.53.24.53.4 0 .19-.26.39-.64.39-.3 0-.51-.13-.6-.26a.385.385 0 00-.52-.11c-.17.11-.22.35-.11.52.2.3.56.5.97.57v.13a.38.38 0 10.76 0v-.18c.53-.16.9-.57.9-1.07 0-.63-.67-1.04-1.14-1.13-.43-.08-.71-.24-.71-.4-.02-.18.25-.39.63-.39z"/><circle cx="5.7" cy="9.09" r="5.2" fill="none"/><path class="mc-c2" d="M5.7 14.79c-3.14 0-5.7-2.56-5.7-5.7s2.56-5.7 5.7-5.7 5.7 2.56 5.7 5.7-2.56 5.7-5.7 5.7zm0-10.4C3.11 4.39 1 6.5 1 9.09c0 2.59 2.11 4.7 4.7 4.7s4.7-2.11 4.7-4.7c-.01-2.59-2.11-4.7-4.7-4.7z"/><circle cx="5.7" cy="9.09" r="5.2" fill-rule="evenodd" clip-rule="evenodd" fill="none"/><path class="mc-c1" d="M13.87 15.09a.486.486 0 00-.48-.05l-1.55.65a.5.5 0 00-.27.65c.08.2.28.31.48.3-.61.44-1.34.67-2.1.62-.93-.06-1.79-.53-2.36-1.28a.496.496 0 00-.7-.09c-.22.17-.26.48-.1.7a4.241 4.241 0 003.37 1.68c1.05 0 2.05-.4 2.84-1.11.06.19.23.33.44.34h.03c.26 0 .48-.2.5-.47l.1-1.5a.479.479 0 00-.2-.44zM13.97 1.68A4.223 4.223 0 0010.88.01C9.75-.07 8.62.34 7.77 1.12a.508.508 0 00-.44-.35.506.506 0 00-.54.47l-.1 1.5a.492.492 0 00.5.52c.07 0 .13-.01.19-.04l1.55-.65c.25-.11.37-.4.27-.65a.479.479 0 00-.48-.3c.61-.44 1.35-.67 2.1-.62.93.06 1.79.53 2.36 1.28.1.13.25.2.4.2a.496.496 0 00.39-.8z"/><path class="mc-c2" d="M5.32 3.79h.75v10.39h-.75z"/><path class="mc-c2" d="M.5 8.61h10.39v.75H.5z"/><path class="mc-c2" d="M5.7 14.66c-1.97 0-3.51-2.45-3.51-5.57S3.73 3.52 5.7 3.52s3.51 2.45 3.51 5.57-1.54 5.57-3.51 5.57zm0-10.39c-1.5 0-2.76 2.21-2.76 4.82s1.27 4.82 2.76 4.82 2.76-2.21 2.76-4.82S7.19 4.27 5.7 4.27z"/></svg>
