<svg xmlns="http://www.w3.org/2000/svg" viewBox="0 0 49.44 49.87"><title>2fa-icon</title><g id="Layer_2" data-name="Layer 2"><g id="Outline_Icons" data-name="Outline Icons"><path fill="#204ee9" d="M29.28,31.27l-8.55-2.89v-.94h5.71a1,1,0,0,0,0-2H20.73V16.62a4.13,4.13,0,0,0-4.1-4.15h0a4.14,4.14,0,0,0-2.9,1.19,4.09,4.09,0,0,0-1.22,2.91h0V25H2V8.25H26a1,1,0,1,0,0-2H1a1,1,0,0,0-1,1V26a1,1,0,0,0,1,1H12.49v9.33C9.37,32.14,7.25,31.22,5,31.22a2.51,2.51,0,0,0-2.33,1.34,4.65,4.65,0,0,0,.39,4.38l8.36,12.49a1,1,0,0,0,.83.44H28.88a1,1,0,0,0,1-.82L32,37.65C32.55,35.18,31.94,32.13,29.28,31.27Zm.74,6-2,10.63H12.8l-8.06-12a2.64,2.64,0,0,1-.3-2.32c.09-.18.23-.29.57-.29,1.55,0,3.55.53,7.64,6.83a1,1,0,0,0,1.13.41,1,1,0,0,0,.71-1V26h0V16.58a2,2,0,0,1,.63-1.49,2.09,2.09,0,0,1,1.5-.62,2.12,2.12,0,0,1,2.11,2.14V29.1a1,1,0,0,0,.68.95l9.25,3.12C30.13,33.65,30.4,35.59,30,37.24Z"/><path fill="#204ee9" d="M48.44,8.44H46.75V7.24a7.25,7.25,0,0,0-14.49,0v1.2H29.44a1,1,0,0,0-1,1v14a1,1,0,0,0,1,1h19a1,1,0,0,0,1-1v-14A1,1,0,0,0,48.44,8.44ZM34.26,7.24a5.25,5.25,0,0,1,10.49,0v1.2H34.26Zm13.18,15.2h-17v-12h17Z"/><path fill="#204ee9" d="M38.51,16.3v3.43a1,1,0,0,0,2,0V16.3a2,2,0,1,0-2,0Z"/></g></g></svg>