<svg id="Capa_1" enable-background="new 0 0 512 512" height="512" viewBox="0 0 512 512" width="512" xmlns="http://www.w3.org/2000/svg" xmlns:xlink="http://www.w3.org/1999/xlink"><linearGradient id="SVGID_1_" gradientUnits="userSpaceOnUse" x1="8.753" x2="524.203" y1="401.161" y2="103.566"><stop offset="0" stop-color="#d2deff" stop-opacity="0"/><stop offset="1" stop-color="#b7c5ff"/></linearGradient><g><g><path d="m418.32 2.5c-55.666-9.521-178.298 12.183-200.004 105.017-14.431 61.722-14.007 112.075-50.427 113.02-21.67.562-32.97-44.31-62.889-48.001-39.047-4.817-66.145 27.695-83.057 57.138-37.205 64.772-25.571 174.918 23.354 228.632 118.488 130.086 259.197-5.952 319.358-112.309 38.585-68.213 125.637-123.352 143.767-200.248 15.178-64.376-18.503-131.003-90.102-143.249z" fill="url(#SVGID_1_)"/></g><g><g><g fill="#6583fe" opacity=".2"><path d="m84.592 82.122c2.761 0 5-2.239 5-5s-2.239-5-5-5h-13.463c-2.761 0-5 2.239-5 5s2.239 5 5 5h1.732v362.756h-1.732c-2.761 0-5 2.239-5 5s2.239 5 5 5h13.464c2.761 0 5-2.239 5-5s-2.239-5-5-5h-1.733v-362.756z"/><path d="m111.872 248.426h229c2.761 0 5-2.239 5-5v-109.638c0-2.761-2.239-5-5-5h-229c-2.761 0-5 2.239-5 5v109.638c0 2.761 2.238 5 5 5z"/><path d="m440.872 278.574h-329c-2.761 0-5 2.239-5 5v109.638c0 2.761 2.239 5 5 5h329c2.761 0 5-2.239 5-5v-109.638c0-2.761-2.239-5-5-5z"/></g><g><g><g><path d="m340.872 228.426h-229c-2.761 0-5-2.239-5-5v-109.638c0-2.761 2.239-5 5-5h229c2.761 0 5 2.239 5 5v109.638c0 2.761-2.239 5-5 5z" fill="#fff"/><path d="m345.872 173.786h-206.705c-2.761 0-5-2.239-5-5v-34c0-2.761 2.239-5 5-5h206.705z" fill="#6583fe"/><path d="m292 129.786h53.872v44h-53.872z" fill="#fff"/><g><path d="m345.871 178.786h-206.704c-5.514 0-10-4.486-10-10v-34c0-5.514 4.486-10 10-10h206.705v10h-206.705v34h206.705v10z" fill="#2626bc"/></g></g><g><path d="m139.167 196.7c-2.761 0-5-2.239-5-5v-.115c0-2.761 2.239-5 5-5s5 2.239 5 5v.115c0 2.761-2.239 5-5 5z" fill="#2626bc"/></g><g><path d="m159 196.7c-2.761 0-5-2.239-5-5v-.115c0-2.761 2.239-5 5-5s5 2.239 5 5v.115c0 2.761-2.239 5-5 5z" fill="#2626bc"/></g><g><path d="m178.833 196.7c-2.761 0-5-2.239-5-5v-.115c0-2.761 2.239-5 5-5s5 2.239 5 5v.115c0 2.761-2.238 5-5 5z" fill="#2626bc"/></g></g><g><g><path d="m440.872 378.212h-329c-2.761 0-5-2.239-5-5v-109.638c0-2.761 2.239-5 5-5h329c2.761 0 5 2.239 5 5v109.638c0 2.762-2.239 5-5 5z" fill="#fff"/><path d="m445.872 323.573h-306.705c-2.761 0-5-2.239-5-5v-34c0-2.761 2.239-5 5-5h306.705z" fill="#6583fe"/><path d="m292 279.572h153.872v44h-153.872z" fill="#fff"/><g><path d="m450.871 328.572h-311.704c-5.514 0-10-4.486-10-10v-34c0-5.514 4.486-10 10-10h311.705v54zm-311.704-44v34h301.705v-34z" fill="#2626bc"/></g></g><g fill="#2626bc"><path d="m84.593 62.122c2.761 0 5-2.239 5-5s-2.239-5-5-5h-13.465c-2.761 0-5 2.239-5 5s2.239 5 5 5h1.732v362.756h-1.732c-2.761 0-5 2.239-5 5s2.239 5 5 5h13.464c2.761 0 5-2.239 5-5s-2.239-5-5-5h-1.732v-362.756z"/><path d="m111.872 233.426h229c5.514 0 10-4.486 10-10v-31.426c0-2.761-2.238-5-5-5s-5 2.239-5 5v31.426h-229v-109.638h229v44.212c0 2.761 2.238 5 5 5s5-2.239 5-5v-44.212c0-5.514-4.486-10-10-10h-229c-5.514 0-10 4.486-10 10v109.638c0 5.514 4.485 10 10 10z"/><path d="m440.871 253.574h-184.871c-2.761 0-5 2.239-5 5s2.239 5 5 5h184.871v109.638h-329v-109.638h110.129c2.761 0 5-2.239 5-5s-2.239-5-5-5h-110.128c-5.514 0-10 4.486-10 10v109.638c0 5.514 4.486 10 10 10h329c5.514 0 10-4.486 10-10v-109.638c-.001-5.514-4.487-10-10.001-10z"/></g><g><path d="m139.167 346.487c-2.761 0-5-2.239-5-5v-.115c0-2.761 2.239-5 5-5s5 2.239 5 5v.115c0 2.761-2.239 5-5 5z" fill="#2626bc"/></g><g><path d="m159 346.487c-2.761 0-5-2.239-5-5v-.115c0-2.761 2.239-5 5-5s5 2.239 5 5v.115c0 2.761-2.239 5-5 5z" fill="#2626bc"/></g><g><path d="m178.833 346.487c-2.761 0-5-2.239-5-5v-.115c0-2.761 2.239-5 5-5s5 2.239 5 5v.115c0 2.761-2.238 5-5 5z" fill="#2626bc"/></g></g></g></g><g fill="#6583fe"><path d="m416.582 150.714c-1.279 0-2.56-.488-3.535-1.464-1.953-1.953-1.953-5.119 0-7.071l10-10c1.951-1.952 5.119-1.952 7.07 0 1.953 1.953 1.953 5.119 0 7.071l-10 10c-.975.976-2.256 1.464-3.535 1.464z"/><path d="m164.757 439.001c-1.28 0-2.559-.488-3.536-1.464-1.953-1.953-1.953-5.119 0-7.071l10-10c1.953-1.952 5.118-1.952 7.071 0 1.953 1.953 1.953 5.119 0 7.071l-10 10c-.976.976-2.255 1.464-3.535 1.464z"/><path d="m230.271 84.999c-2.761 0-5-2.239-5-5 0-3.309-2.691-6-6-6-2.761 0-5-2.239-5-5s2.239-5 5-5c3.309 0 6-2.691 6-6 0-2.761 2.239-5 5-5s5 2.239 5 5c0 3.309 2.691 6 6 6 2.761 0 5 2.239 5 5s-2.239 5-5 5c-3.309 0-6 2.691-6 6 0 2.761-2.239 5-5 5z"/><path d="m390.056 210.607c-2.762 0-5-2.239-5-5 0-3.309-2.691-6-6-6-2.762 0-5-2.239-5-5s2.238-5 5-5c3.309 0 6-2.691 6-6 0-2.761 2.238-5 5-5s5 2.239 5 5c0 3.309 2.691 6 6 6 2.762 0 5 2.239 5 5s-2.238 5-5 5c-3.309 0-6 2.691-6 6 0 2.761-2.239 5-5 5z"/><path d="m230.271 430.578c-2.761 0-5-2.239-5-5 0-3.309-2.691-6-6-6-2.761 0-5-2.239-5-5s2.239-5 5-5c3.309 0 6-2.691 6-6 0-2.761 2.239-5 5-5s5 2.239 5 5c0 3.309 2.691 6 6 6 2.761 0 5 2.239 5 5s-2.239 5-5 5c-3.309 0-6 2.691-6 6 0 2.761-2.239 5-5 5z"/></g></g></g></svg>