<svg id="Capa_1" enable-background="new 0 0 512 512" height="512" viewBox="0 0 512 512" width="512" xmlns="http://www.w3.org/2000/svg" xmlns:xlink="http://www.w3.org/1999/xlink"><linearGradient id="SVGID_1_" gradientUnits="userSpaceOnUse" x1="-11.953" x2="302.189" y1="367.812" y2="186.443"><stop offset="0" stop-color="#d2deff" stop-opacity="0"/><stop offset="1" stop-color="#b7c5ff"/></linearGradient><g><g><path d="m451.798 43.963c-160.556-97.869-410.51-8.611-439.594 61.949-38.908 94.393 26.578 110.528 38.743 187.874 9.761 62.06-51.182 121.495-16.394 176.282 37.882 59.663 163.465 44.681 211.198 16.447 87.376-51.682 43.309-112.012 84.684-187.299 39.408-71.707 116.244-42.625 160.961-99.99 42.5-54.521 14.31-122.402-39.598-155.263z" fill="url(#SVGID_1_)"/></g><g><g><path d="m332.595 413.892h-13.245v-322.293c0-26.228-21.262-47.491-47.491-47.491h-27.019c-26.228 0-47.491 21.262-47.491 47.491v322.292h-13.246c-5.523 0-10 4.477-10 10v39c0 16.568 13.431 30 30 30h108.491c16.569 0 30-13.432 30-30v-39c.001-5.522-4.476-9.999-9.999-9.999z" fill="#6583fe" opacity=".2"/><path d="m399.545 174.277c1.926-30.06-22.862-54.848-52.922-52.922-24.34 1.559-44.226 21.004-46.29 45.306-1.001 11.788 2.122 22.803 8.072 31.781l-6.986 15.866c-1.443 3.277 1.896 6.615 5.173 5.173l15.866-6.986c8.978 5.95 19.993 9.073 31.781 8.072 24.303-2.064 43.747-21.95 45.306-46.29z" fill="#6583fe" opacity=".2"/><g><path d="m319.35 71.6v358.25h-122v-358.25c0-26.23 21.26-47.49 47.49-47.49h27.02c26.23 0 47.49 21.26 47.49 47.49z" fill="#fff"/><path d="m289.35 246.667h-6.667v-136.667h6.667c2.761 0 5-2.239 5-5s-2.239-5-5-5h-6.667v-56.558c0-13.418-10.916-24.334-24.333-24.334-13.418 0-24.334 10.916-24.334 24.334v103.892h-10c-2.761 0-5 2.239-5 5s2.239 5 5 5h10v272.515c0 2.761 2.239 5 5 5h38.667c2.761 0 5-2.239 5-5v-173.182h6.667c2.761 0 5-2.239 5-5 0-2.762-2.239-5-5-5zm-16.667 178.181h-28.667v-80.848h6.667c2.761 0 5-2.239 5-5s-2.239-5-5-5h-6.667v-24.666h6.667c2.761 0 5-2.239 5-5s-2.239-5-5-5h-6.667v-205.72h6.667c2.761 0 5-2.239 5-5s-2.239-5-5-5h-6.667v-40.172c0-7.903 6.43-14.334 14.334-14.334 7.903 0 14.333 6.43 14.333 14.334v171.892h-9.333c-2.761 0-5 2.239-5 5s2.239 5 5 5h9.333z" fill="#2626bc"/><path d="m312.595 472.892h-108.491c-16.569 0-30-13.431-30-30v-39c0-5.523 4.477-10 10-10h148.491c5.523 0 10 4.477 10 10v39c0 16.568-13.431 30-30 30z" fill="#6583fe"/></g><g fill="#6583fe"><path d="m123.35 299.271c-2.761 0-5-2.239-5-5 0-3.309-2.691-6-6-6-2.761 0-5-2.239-5-5s2.239-5 5-5c3.309 0 6-2.691 6-6 0-2.761 2.239-5 5-5s5 2.239 5 5c0 3.309 2.691 6 6 6 2.761 0 5 2.239 5 5s-2.239 5-5 5c-3.309 0-6 2.691-6 6 0 2.761-2.239 5-5 5z"/><path d="m382.35 314.602c-2.761 0-5-2.239-5-5 0-3.309-2.691-6-6-6-2.761 0-5-2.239-5-5s2.239-5 5-5c3.309 0 6-2.691 6-6 0-2.761 2.239-5 5-5s5 2.239 5 5c0 3.309 2.691 6 6 6 2.761 0 5 2.239 5 5s-2.239 5-5 5c-3.309 0-6 2.691-6 6 0 2.761-2.239 5-5 5z"/><path d="m388.35 242.656c-2.761 0-5-2.239-5-5 0-3.309-2.691-6-6-6-2.761 0-5-2.239-5-5s2.239-5 5-5c3.309 0 6-2.691 6-6 0-2.761 2.239-5 5-5s5 2.239 5 5c0 3.309 2.691 6 6 6 2.761 0 5 2.239 5 5s-2.239 5-5 5c-3.309 0-6 2.691-6 6 0 2.762-2.239 5-5 5z"/><path d="m132.644 177.717c-1.28 0-2.559-.488-3.536-1.464-1.953-1.953-1.953-5.119 0-7.071l10-10c1.953-1.952 5.118-1.952 7.071 0 1.953 1.953 1.953 5.119 0 7.071l-10 10c-.976.976-2.256 1.464-3.535 1.464z"/></g></g><g><g><path d="m399.545 154.277c1.926-30.06-22.862-54.848-52.922-52.922-24.34 1.559-44.226 21.004-46.29 45.306-1.001 11.788 2.122 22.803 8.072 31.781l-6.986 15.866c-1.443 3.277 1.896 6.615 5.173 5.173l15.866-6.986c8.978 5.95 19.993 9.073 31.781 8.072 24.303-2.064 43.747-21.95 45.306-46.29z" fill="#6583fe"/><path d="m388.614 112.285c-11.128-11.127-26.544-16.932-42.311-15.92-7.865.504-15.303 2.72-21.954 6.261v-31.027c0-28.943-23.547-52.491-52.491-52.491h-27.018c-28.943 0-52.49 23.547-52.49 52.491v8.401h-6.666c-2.761 0-5 2.239-5 5s2.239 5 5 5h6.666v87.333h-6.666c-2.761 0-5 2.239-5 5s2.239 5 5 5h6.666v18.504h-6.666c-2.761 0-5 2.239-5 5s2.239 5 5 5h6.666v132.163h-6.666c-2.761 0-5 2.239-5 5s2.239 5 5 5h6.666v30.892h-8.246c-8.271 0-15 6.729-15 15v39c0 19.299 15.701 35 35 35h108.491c19.299 0 35-15.701 35-35v-39c0-8.271-6.729-15-15-15h-101.245c-2.761 0-5 2.239-5 5s2.239 5 5 5h101.245c2.757 0 5 2.243 5 5v39c0 13.785-11.215 25-25 25h-108.491c-13.785 0-25-11.215-25-25v-39c0-2.757 2.243-5 5-5h13.246c2.761 0 5-2.239 5-5v-322.293c0-23.43 19.061-42.491 42.49-42.491h27.019c23.43 0 42.491 19.061 42.491 42.491v37.857c-10.607 9.094-17.755 22.141-18.998 36.781-.982 11.568 1.575 22.784 7.41 32.614l-5.918 13.441c-1.495 3.395-.766 7.283 1.857 9.906s6.511 3.352 9.907 1.857l5.743-2.529v158.363c0 2.761 2.239 5 5 5s5-2.239 5-5v-15.889h6.666c2.761 0 5-2.239 5-5s-2.239-5-5-5h-6.666v-134.577c7.864 4.174 16.526 6.331 25.496 6.331 1.597 0 3.203-.068 4.816-.205 26.717-2.268 48.158-24.173 49.874-50.952 1.008-15.762-4.795-31.184-15.923-42.312zm5.942 41.672c-1.401 21.879-18.916 39.775-40.74 41.628-10.227.87-20.119-1.641-28.596-7.258-.832-.551-1.794-.832-2.763-.832-.684 0-1.37.14-2.015.424l-13.332 5.871 5.871-13.332c.686-1.558.532-3.358-.408-4.777-5.617-8.476-8.126-18.364-7.258-28.596 1.853-21.824 19.749-39.338 41.628-40.739 12.892-.828 25.504 3.916 34.6 13.012 9.096 9.094 13.838 21.705 13.013 34.599z" fill="#2626bc"/></g><g fill="#2626bc"><path d="m336.47 150.416c0 3.087-2.503 5.59-5.59 5.59s-5.59-2.503-5.59-5.59 2.503-5.59 5.59-5.59 5.59 2.503 5.59 5.59z"/><path d="m356.38 150.416c0 3.087-2.503 5.59-5.59 5.59s-5.59-2.503-5.59-5.59 2.503-5.59 5.59-5.59c3.088 0 5.59 2.503 5.59 5.59z"/><path d="m376.29 150.416c0 3.087-2.503 5.59-5.59 5.59s-5.59-2.503-5.59-5.59 2.503-5.59 5.59-5.59c3.088 0 5.59 2.503 5.59 5.59z"/></g></g><path d="m154.104 126.249c-1.28 0-2.559-.488-3.536-1.464-1.953-1.953-1.953-5.119 0-7.071l10-10c1.953-1.952 5.118-1.952 7.071 0 1.953 1.953 1.953 5.119 0 7.071l-10 10c-.976.976-2.255 1.464-3.535 1.464z" fill="#6583fe"/></g></g></svg>