<svg xmlns="http://www.w3.org/2000/svg" viewBox="0 0 47.84 47.84"><title>confirmation</title><g id="Layer_2" data-name="Layer 2"><g id="Outline_Icons" data-name="Outline Icons"><path fill="#34ae22" d="M47.47.22a1,1,0,0,0-1.41.15l-28.22,35L8.65,26.22a1,1,0,0,0-1.41,0,1,1,0,0,0,0,1.42l10,10a1,1,0,0,0,.71.29h0a1,1,0,0,0,.73-.37L47.62,1.63A1,1,0,0,0,47.47.22Z"/><path fill="#34ae22" d="M36.19,24a1,1,0,0,0-.75,1.2,16.91,16.91,0,1,1-9-11.42,1,1,0,0,0,1.34-.45,1,1,0,0,0-.45-1.34A18.93,18.93,0,1,0,37.39,24.7,1,1,0,0,0,36.19,24Z"/></g></g></svg>