<svg id="Layer_1" enable-background="new 0 0 480.165 480.165" height="512" viewBox="0 0 480.165 480.165" width="512" xmlns="http://www.w3.org/2000/svg"><path d="m438.082 225.151v215.01c0 17.68-14.33 32-32 32h-332c-17.67 0-32-14.32-32-32v-215.01z" fill="#b9dcff"/><path d="m472.082 151.921v41.23c0 17.68-14.33 32-32 32h-400c-17.67 0-32-14.32-32-32v-41.23c0-17.68 14.33-32 32-32h400c17.67 0 32 14.32 32 32z" fill="#b9dcff"/><path d="m440.341 159.921h-360.258c-17.67 0-32 14.32-32 32v1.35c0 25.762-38.768 27.127-39.965 1.393-.05-1.079-.035 1.807-.035-42.743 0-17.68 14.33-32 32-32h400c27.657 0 26.349 40 .258 40z" fill="#d1e7ff"/><path d="m42.082 225.151h396v34h-396z" fill="#a2d0ff"/><path d="m276.082 472.161h-72c0-7.029 0-240.427 0-247.01h72z" fill="#d1e7ff"/><path d="m204.082 225.151h72v34h-72z" fill="#b9dcff"/><path d="m312.082 225.151c-6.872 0-137.105 0-144 0 0-14.353 0-90.27 0-105.23h144z" fill="#d1e7ff"/><path d="m312.082 119.921v40h-144v-40z" fill="#e8f3ff"/><path d="m440.082 111.918h-101.593c13.232-11.733 21.593-28.843 21.593-47.876 0-53.468-61.949-83.174-103.637-50.251-3.468 2.738-4.059 7.769-1.32 11.236 2.74 3.469 7.771 4.058 11.236 1.32 31.202-24.64 77.721-2.463 77.721 37.695 0 25.369-19.785 46.19-44.734 47.876h-51.266v-47.877c0-35.29-28.71-64-64-64s-64 28.71-64 64c0 19.034 8.361 36.143 21.593 47.876h-101.593c-22.056 0-40 17.944-40 40v41.237c0 20.017 14.781 36.645 34 39.549v207.461c0 22.056 17.944 40 40 40h332c22.056 0 40-17.944 40-40v-172.123c0-4.418-3.582-8-8-8s-8 3.582-8 8v172.124c0 13.233-10.767 24-24 24h-194v-231.01h56v202.22c0 4.418 3.582 8 8 8s8-3.582 8-8v-202.22h89c4.418 0 8-3.582 8-8s-3.582-8-8-8h-53v-89.237h120c13.233 0 24 10.766 24 24v41.237c0 13.234-10.767 24-24 24h-15.5c-4.418 0-8 3.582-8 8s3.582 8 8 8h15.5c22.056 0 40-17.944 40-40v-41.237c0-22.056-17.944-40-40-40zm-304-47.877c0-26.467 21.532-48 48-48s48 21.533 48 48v47.876h-51.266c-24.948-1.685-44.734-22.507-44.734-47.876zm60 400.124h-122c-13.233 0-24-10.767-24-24v-207.01h146zm108-247.01h-264c-13.233 0-24-10.766-24-24v-41.237c0-13.234 10.767-24 24-24h120v64.124c0 4.418 3.582 8 8 8s8-3.582 8-8v-64.124h128z" fill="#2e58ff"/></svg>