<?xml version="1.0" encoding="utf-8"?>
<!-- Generator: Adobe Illustrator 24.3.0, SVG Export Plug-In . SVG Version: 6.00 Build 0)  -->
<svg version="1.1" id="Layer_1" xmlns="http://www.w3.org/2000/svg" xmlns:xlink="http://www.w3.org/1999/xlink" x="0px" y="0px"
	 viewBox="0 0 464.2 337.3" style="enable-background:new 0 0 464.2 337.3;" xml:space="preserve">
<path fill="#204EE9" d="M456.2,81.3h-72L365,6c-0.5-2-1.9-3.8-3.7-4.9c-1.8-1.1-4-1.4-6.1-0.9L6.2,89.3c-4.2,1-6.8,5.1-6,9.4
	l59.1,232.6c1.4,4.1,5.5,6.5,9.8,5.8l19.4-5c1.2,3.2,4.3,5.3,7.7,5.2h360c4.4,0,8-3.6,8-8v-240C464.2,84.9,460.6,81.3,456.2,81.3z
	 M448.2,201.3H275.8c7.2-6,11.6-14.7,12.4-24c-0.1-17.6-13.4-32.2-30.9-34.1c-16-1.3-31.6,5.8-41.1,18.7v0.5V97.3h232V201.3z
	 M110.9,78.8l0.6,2.5h-10.4L110.9,78.8z M104.2,97.3h96v65.1v-0.5c-9.5-12.7-24.9-19.8-40.7-18.6c-17.6,1.6-31.1,16.3-31.3,34
	c0.7,9.3,5.2,18,12.3,24h-36.3V97.3z M217.3,201.3c1.4-10.6,5.5-20.7,11.8-29.3c6.1-8.4,16-13.1,26.3-12.6
	c9.1,0.8,16.2,8.1,16.8,17.2c-0.7,5.4-3.6,10.4-8,13.6c-5.2,3.9-11.2,6.6-17.5,8c-9.6,2.5-19.5,3.4-29.4,2.9L217.3,201.3z
	 M144.2,176.6c0.5-9.1,7.6-16.5,16.7-17.4c10.5-1.2,20.7,3.7,26.3,12.6c6.4,8.6,10.5,18.8,11.8,29.4l0,0c-9.9,0.6-19.8-0.4-29.4-2.9
	c-6.3-1.4-12.3-4.1-17.5-8C147.6,187.1,144.7,182.1,144.2,176.6z M367.4,81.3H128.2l-1.7-6.4l224.9-57.1L367.4,81.3z M90.2,84.1
	c-1.3,1.4-2,3.3-2.1,5.2v102.6l-44.6,11.4L17.9,102.4L90.2,84.1z M47.4,218.7l40.7-10.3v107.3L73,319.5L47.4,218.7z M104.2,217.3
	h75.1c-10.4,6.7-19.9,14.8-28.2,24c-3,3.3-2.7,8.3,0.6,11.3c1.5,1.3,3.4,2.1,5.4,2.1c2.3,0,4.4-1,5.9-2.6
	c10.5-11.6,23.2-21.1,37.3-27.9v97.2h-96V217.3z M216.2,321.3v-97.2c14.1,6.8,26.8,16.2,37.3,27.8c1.5,1.7,3.7,2.6,5.9,2.6
	c2,0,3.9-0.7,5.4-2.1c3.2-2.9,3.4-7.9,0.6-11.1c-8.3-9.2-17.8-17.3-28.2-24h211.1v104H216.2z"/>
<path fill="#204EE9" d="M376.2,273.3h32c4.4,0,8-3.6,8-8s-3.6-8-8-8h-32c-4.4,0-8,3.6-8,8S371.7,273.3,376.2,273.3z"/>
<path fill="#204EE9" d="M424.2,289.3h-64c-4.4,0-8,3.6-8,8s3.6,8,8,8h64c4.4,0,8-3.6,8-8S428.6,289.3,424.2,289.3z"/>
</svg>
