<?xml version="1.0" encoding="utf-8"?>
<!-- Generator: Adobe Illustrator 24.3.0, SVG Export Plug-In . SVG Version: 6.00 Build 0)  -->
<svg version="1.1" id="Layer_1" xmlns="http://www.w3.org/2000/svg" xmlns:xlink="http://www.w3.org/1999/xlink" x="0px" y="0px"
	 viewBox="0 0 11.9 21.8" style="enable-background:new 0 0 11.9 21.8;" xml:space="preserve">
<path fill="#1457FF" d="M11.8,4.6c-0.2-0.2-0.4-0.2-0.6-0.1L7.5,6.4l2.2-5.7c0.1-0.2,0-0.3-0.1-0.5C9.6,0.1,9.4,0,9.2,0H4.6
	C4.3,0,4.1,0.1,4.1,0.3L0,12.1c-0.1,0.2,0,0.4,0.1,0.5c0.1,0.1,0.4,0.2,0.5,0.1L4.9,11L1.4,21.1c-0.1,0.2,0,0.5,0.3,0.6
	c0.1,0,0.1,0,0.2,0c0.2,0,0.3-0.1,0.4-0.2l9.6-16.3C12,5,11.9,4.8,11.8,4.6z"/>
</svg>
