<?xml version="1.0" encoding="utf-8"?>
<!-- Generator: Adobe Illustrator 24.1.2, SVG Export Plug-In . SVG Version: 6.00 Build 0)  -->
<svg version="1.1" id="Layer_1" xmlns="http://www.w3.org/2000/svg" xmlns:xlink="http://www.w3.org/1999/xlink" x="0px" y="0px"
	 viewBox="0 0 49.4 49.9" style="enable-background:new 0 0 49.4 49.9;" xml:space="preserve">
<g>
	<g>
		<path fill="none" stroke="#204EE9" stroke-width="2" stroke-linecap="round" stroke-linejoin="round" stroke-miterlimit="10" d="M26.7,26v16.3c0,2.6-2.1,4.7-4.7,4.7H5.7c-2.6,0-4.7-2.1-4.7-4.7V7.4c0-2.6,2.1-4.7,4.7-4.7h7"/>
		<line fill="none" stroke="#204EE9" stroke-width="2" stroke-linecap="round" stroke-linejoin="round" stroke-miterlimit="10" x1="12.8" y1="12.1" x2="1.1" y2="12.1"/>
		<line fill="none" stroke="#204EE9" stroke-width="2" stroke-linecap="round" stroke-linejoin="round" stroke-miterlimit="10" x1="26.7" y1="37.7" x2="1.1" y2="37.7"/>
		<line fill="none" stroke="#204EE9" stroke-width="2" stroke-linecap="round" stroke-linejoin="round" stroke-miterlimit="10" x1="10.4" y1="7.4" x2="12.8" y2="7.4"/>
		<path fill="none" stroke="#204EE9" stroke-width="2" stroke-linejoin="round" stroke-miterlimit="10" d="M15,42.4c0,0.6-0.5,1.2-1.2,1.2l0,0c-0.6,0-1.2-0.5-1.2-1.2l0,0c0-0.6,0.5-1.2,1.2-1.2l0,0
			C14.5,41.3,15,41.7,15,42.4L15,42.4z"/>
	</g>
</g>
<g>
	<path fill="#204EE9" d="M24.9,5.2c0-0.1,0-0.4-0.1-0.7c-0.3-0.7-1.1-0.8-1.8-0.8c-0.4,0-0.6,0-0.7,0.1c-0.1,0-0.9,0.3-0.9,1
		c0,0.1,0,0.3,0.2,0.5c0.3,0.3,0.9,0.4,1.8,0.6c0.5,0.1,1,0.2,1.6,0.4c0.1,0,0.8,0.2,1.2,0.5c1.1,0.7,1.2,1.9,1.2,2.4
		c0,0.2,0,0.7-0.2,1.2C27,11,26.4,12,25,12.5c-0.7,0.1-1.2,0.1-2,0.1c-0.4,0-2.2,0-3.3-1c-0.5-0.5-0.8-0.9-0.9-1.2
		c-0.2-0.6-0.2-1.1-0.2-1.5h2.3c0,0.4,0.1,0.6,0.2,0.8c0.4,0.9,1.9,0.9,2,0.9c0.5,0,0.9-0.1,1.1-0.2c0.6-0.3,0.7-0.6,0.7-0.9
		s-0.1-0.7-0.7-0.9c-0.3-0.1-0.6-0.2-1.2-0.3C22,8,20.4,7.7,19.5,6.9C19.4,6.6,19,6,19,5c0-0.3,0-1,0.5-1.7c0.5-0.8,1.6-1.6,3.6-1.6
		c0.4,0,1.9,0,2.9,0.8c0.2,0.1,0.5,0.5,0.8,1c0.3,0.6,0.3,1.2,0.3,1.6H24.9z"/>
	<path fill="#204EE9" d="M32.2,2l1,4.4c0.2,0.7,0.3,1.5,0.5,2.2C33.9,8.9,34,9.4,34,9.9c0.1-0.5,0.2-1.1,0.3-1.8
		c0.1-0.6,0.3-1.2,0.4-1.9l1.1-4.4h3.2v10.3h-2.2V7.5c0-0.9,0-1.9,0.1-2.9c-0.2,0.8-0.4,1.7-0.6,2.5L35,12h-2.3l-1.4-5.2
		c-0.2-0.7-0.4-1.6-0.5-2.3c0,0.7,0,1.6,0,2.3V12h-2.1V2H32.2z"/>
	<path fill="#204EE9" d="M46.9,5.2c0-0.1,0-0.4-0.1-0.7c-0.3-0.7-1.1-0.8-1.8-0.8c-0.4,0-0.6,0-0.7,0.1c-0.1,0-0.9,0.3-0.9,1
		c0,0.1,0,0.3,0.2,0.5c0.3,0.3,0.9,0.4,1.8,0.6c0.5,0.1,1,0.2,1.6,0.4c0.1,0,0.8,0.2,1.2,0.5c1.1,0.7,1.2,1.9,1.2,2.4
		c0,0.2,0,0.7-0.2,1.2C49,11,48.3,12,47,12.5c-0.6,0.1-1.2,0.1-2,0.1c-0.4,0-2.2,0-3.3-1c-0.5-0.5-0.8-0.9-0.9-1.2
		c-0.2-0.6-0.2-1.1-0.2-1.5h2.4c0,0.4,0.1,0.6,0.2,0.8c0.4,0.9,1.9,0.9,2,0.9c0.5,0,0.9-0.1,1.1-0.2c0.6-0.3,0.7-0.6,0.7-0.9
		s-0.1-0.7-0.7-0.9c-0.3-0.1-0.6-0.1-1.2-0.3c-0.9-0.2-2.6-0.5-3.4-1.2c-0.3-0.3-0.7-0.9-0.7-2c0-0.3,0-1,0.5-1.7
		c0.5-0.8,1.6-1.6,3.6-1.6c0.4,0,1.9,0,2.9,0.8c0.2,0.1,0.5,0.5,0.8,1c0.4,0.7,0.4,1.4,0.4,1.6H46.9z"/>
</g>
<g>
	<path fill="#204EE9" d="M7.7,18.7v1.5l1.4-0.5l0.3,1.1L8,21.3l0.9,1.2L8,23.1l-1-1.3l-0.9,1.3l-0.9-0.6l0.9-1.2l-1.4-0.5l0.3-1.1
		l1.4,0.5v-1.5H7.7z"/>
	<path fill="#204EE9" d="M14.6,18.7v1.5l1.4-0.5l0.3,1.1l-1.4,0.5l0.9,1.2l-0.9,0.6l-1-1.3l-0.9,1.3l-0.9-0.6l0.9-1.2l-1.4-0.5l0.3-1.1
		l1.4,0.5v-1.5C13.4,18.7,14.6,18.7,14.6,18.7z"/>
	<path fill="#204EE9" d="M21.5,18.7v1.5l1.4-0.5l0.3,1.1l-1.4,0.5l0.9,1.2l-0.9,0.6l-1-1.3L20,23.1l-0.9-0.6l0.9-1.2l-1.4-0.5l0.3-1.1
		l1.4,0.5v-1.5H21.5z"/>
</g>
</svg>
