<?xml version="1.0" encoding="utf-8"?>
<!-- Generator: Adobe Illustrator 24.3.0, SVG Export Plug-In . SVG Version: 6.00 Build 0)  -->
<svg version="1.1" id="Layer_1" xmlns="http://www.w3.org/2000/svg" xmlns:xlink="http://www.w3.org/1999/xlink" x="0px" y="0px"
	 viewBox="0 0 21.9 20.5" style="enable-background:new 0 0 21.9 20.5;" xml:space="preserve">
<path d="M21.5,4.3L21.5,4.3c-0.6-0.5-1.4-0.5-2,0l-0.9,1l-2-2l1-0.9c0.5-0.5,0.6-1.3,0.1-1.9c0,0,0,0-0.1-0.1v0
	c-0.5-0.5-1.4-0.5-1.9,0l-1,1c-1.4-0.9-3.2-0.7-4.3,0.5L9.7,2.4C7.4,4.7,7.1,8.3,8.9,11l-0.1,0.1c-1.3,1.3-1.3,3.5,0,4.9
	c0.3,0.3,0.3,0.7,0,1c-0.2,0.3-0.6,0.3-0.9,0c0,0,0,0,0,0L5.9,15C4.6,13.7,2.4,13.6,1,15c-1.4,1.3-1.4,3.5-0.1,4.9c0,0,0,0,0,0
	l0.2,0.2c0.5,0.5,1.4,0.5,1.9,0l0,0c0.5-0.5,0.5-1.4,0-1.9L3,17.9c-0.3-0.3-0.3-0.7,0-0.9c0.3-0.3,0.7-0.3,1-0.1c0,0,0,0,0,0
	l1.9,1.9c1.3,1.4,3.5,1.4,4.9,0s1.4-3.5,0-4.9l0,0c-0.3-0.2-0.3-0.6-0.1-0.9c0,0,0.1-0.1,0.1-0.1l0.1-0.1c2.7,1.8,6.3,1.4,8.6-0.9
	l0.6-0.5c1.1-1.2,1.3-3,0.4-4.3l1-1C22,5.7,22,4.8,21.5,4.3z M19,10.6c-0.8,0.8-2.1,0.8-2.9,0c0,0,0,0,0,0l-4.9-4.9
	c-0.8-0.8-0.8-2.1,0-2.9c0.6-0.6,1.6-0.8,2.4-0.4l-0.9,0.9c-0.5,0.5-0.6,1.3-0.1,1.9c0,0,0,0,0.1,0.1c0.5,0.5,1.4,0.5,1.9,0l1-1
	l1.9,1.9l-1,1c-0.5,0.5-0.5,1.4,0,1.9h0c0.5,0.5,1.3,0.6,1.8,0.1c0,0,0.1-0.1,0.1-0.1l0.9-0.9C19.8,9.1,19.6,10,19,10.6L19,10.6z"/>
</svg>
