<?xml version="1.0" encoding="utf-8"?>
<!-- Generator: Adobe Illustrator 24.3.0, SVG Export Plug-In . SVG Version: 6.00 Build 0)  -->
<svg version="1.1" id="Layer_1" xmlns="http://www.w3.org/2000/svg" xmlns:xlink="http://www.w3.org/1999/xlink" x="0px" y="0px"
	 viewBox="0 0 64 64" style="enable-background:new 0 0 64 64;" xml:space="preserve">
<g>
	<g>
		<g>
			<g>
				<path d="M18.3,21H2.2C1,21,0,20,0,18.8V2.2C0,1,1,0,2.2,0h16.1c1.2,0,2.2,1,2.2,2.2v16.6C20.5,20,19.5,21,18.3,21z M4.4,16.6
					h11.6V4.4H4.4V16.6z"/>
			</g>
			<g>
				<path d="M18.3,64H2.2C1,64,0,63,0,61.8V45.2C0,44,1,43,2.2,43h16.1c1.2,0,2.2,1,2.2,2.2v16.6C20.5,63,19.5,64,18.3,64z
					 M4.4,59.6h11.6V47.4H4.4V59.6z"/>
			</g>
			<g>
				<path d="M0.7,25.1h8.4v4.4H0.7L0.7,25.1z"/>
			</g>
			<g>
				<path d="M15.6,25.1h11.8v4.4H15.6L15.6,25.1z"/>
			</g>
			<g>
				<path d="M25.2,2.2h4.4v19.4h-4.4V2.2z"/>
			</g>
			<g>
				<path d="M25.2,53.5h4.4v8.3h-4.4V53.5z"/>
			</g>
			<g>
				<path d="M29.6,48.3h-4.4v-9.5H0.7v-4.4h26.7c1.2,0,2.2,1,2.2,2.2L29.6,48.3L29.6,48.3z"/>
			</g>
			<g>
				<path d="M61.8,21H45.7c-1.2,0-2.2-1-2.2-2.2V2.2c0-1.2,1-2.2,2.2-2.2h16.1C63,0,64,1,64,2.2v16.6C64,20,63,21,61.8,21L61.8,21z
					 M47.9,16.6h11.6V4.4H47.9V16.6z"/>
			</g>
			<g>
				<path d="M61.8,64H45.7c-1.2,0-2.2-1-2.2-2.2V45.2c0-1.2,1-2.2,2.2-2.2h16.1c1.2,0,2.2,1,2.2,2.2v16.6C64,63,63,64,61.8,64z
					 M47.9,59.6h11.6V47.4H47.9V59.6z"/>
			</g>
			<g>
				<path d="M55.1,25.1h8.2v4.4h-8.2V25.1z"/>
			</g>
			<g>
				<path d="M49.9,29.5H36.6c-1.2,0-2.2-1-2.2-2.2V10.7h4.4v14.4h11.1V29.5z"/>
			</g>
			<g>
				<path d="M34.4,2.2h4.4V7h-4.4L34.4,2.2z"/>
			</g>
			<g>
				<path d="M38.8,61.8h-4.4V36.6c0-1.2,1-2.2,2.2-2.2h6.7v4.4h-4.5L38.8,61.8L38.8,61.8z"/>
			</g>
			<g>
				<path d="M48.6,34.4h14.7v4.4H48.6V34.4z"/>
			</g>
			<g>
				<path d="M51.5,8.1H56v4.8h-4.4V8.1z"/>
			</g>
			<g>
				<path d="M51.5,51.1H56v4.8h-4.4V51.1z"/>
			</g>
			<g>
				<path d="M8,51.1h4.4v4.8H8L8,51.1z"/>
			</g>
			<g>
				<path d="M8,8.1h4.4v4.8H8L8,8.1z"/>
			</g>
		</g>
	</g>
</g>
</svg>
