<?xml version="1.0" encoding="utf-8"?>
<!-- Generator: Adobe Illustrator 24.3.0, SVG Export Plug-In . SVG Version: 6.00 Build 0)  -->
<svg version="1.1" id="Layer_1" xmlns="http://www.w3.org/2000/svg" xmlns:xlink="http://www.w3.org/1999/xlink" x="0px" y="0px"
	 viewBox="0 0 21.9 19.1" style="enable-background:new 0 0 21.9 19.1;" xml:space="preserve">
<path d="M21.4,6.8C21.2,6.8,21,7,21,7.3l0,0c0,0.6-0.4,1.1-0.9,1.3c-0.4-4.6-5.6-8.1-11.1-7C7.8,0,5.7-0.5,4.1,0.5
	C3.9,0.6,3.8,0.9,3.9,1.1C4,1.2,4,1.2,4.1,1.3c0.6,0.4,1.1,1,1.3,1.7C3.7,4.1,2.4,5.8,2,7.7H0.5C0.2,7.7,0,8,0,8.2l0,0v3.6
	c0,0.3,0.2,0.5,0.5,0.5h0h2.2c0.8,1.5,2.2,2.8,3.7,3.5v2.9c0,0.3,0.2,0.4,0.5,0.4c0.2,0,0.4-0.2,0.4-0.4v-2.5c2.4,0.9,4.9,0.9,7.3,0
	v2.5c0,0.3,0.2,0.4,0.5,0.4c0.2,0,0.4-0.2,0.4-0.4v-2.9c2.5-1.1,4.3-3.5,4.5-6.3c1.1-0.2,1.8-1.1,1.8-2.2C21.9,7,21.7,6.8,21.4,6.8z
	 M5.5,8.7C5,8.7,4.6,8.2,4.6,7.7S5,6.8,5.5,6.8c0.5,0,0.9,0.4,0.9,0.9C6.4,8.2,6,8.7,5.5,8.7L5.5,8.7z M15.4,5.7
	C15.2,5.9,15,6,14.8,5.8c-1.2-0.9-2.7-1.4-4.3-1.3c-0.3,0-0.5-0.2-0.5-0.4c0-0.3,0.2-0.5,0.4-0.5c0,0,0,0,0,0
	c1.7-0.1,3.5,0.4,4.9,1.4C15.5,5.3,15.6,5.5,15.4,5.7C15.4,5.7,15.4,5.7,15.4,5.7L15.4,5.7z"/>
</svg>
