<svg id="Capa_1" enable-background="new 0 0 512 512" height="512" viewBox="0 0 512 512" width="512" xmlns="http://www.w3.org/2000/svg" xmlns:xlink="http://www.w3.org/1999/xlink"><linearGradient id="SVGID_1_" gradientUnits="userSpaceOnUse" x1="0" x2="512" y1="256" y2="256"><stop offset="0" stop-color="#d2deff" stop-opacity="0"/><stop offset="1" stop-color="#b7c5ff"/></linearGradient><g><g><path d="m451.798 43.963c-160.556-97.869-410.51-8.611-439.594 61.949-38.908 94.393 26.578 110.528 38.743 187.874 9.761 62.061-51.182 121.495-16.394 176.282 37.882 59.663 163.465 44.681 211.198 16.447 87.376-51.682 43.309-112.012 84.684-187.299 39.408-71.707 116.244-42.625 160.961-99.99 42.5-54.521 14.311-122.402-39.598-155.263z" fill="url(#SVGID_1_)"/></g><g><path d="m462.011 218.398c0-69.531-56.366-125.898-125.898-125.898-30.435 0-58.346 10.799-80.113 28.775-21.767-17.975-49.679-28.775-80.113-28.775-69.531 0-125.898 56.366-125.898 125.898 0 54.386 34.486 100.716 82.783 118.319-1.746 8.355-2.669 17.012-2.669 25.885 0 69.531 56.366 125.898 125.898 125.898s125.898-56.366 125.898-125.898c0-8.873-.923-17.53-2.669-25.885 48.295-17.603 82.781-63.933 82.781-118.319z" fill="#6583fe" opacity=".2"/><g><g><ellipse cx="256" cy="337.602" fill="#6583fe" rx="125.898" ry="125.898" transform="matrix(.707 -.707 .707 .707 -163.74 279.901)"/><ellipse cx="256" cy="337.602" fill="#fff" rx="92.886" ry="92.886" transform="matrix(.707 -.707 .707 .707 -163.74 279.901)"/><circle cx="175.887" cy="193.398" fill="#fff" r="125.898"/><path d="m299.112 219.28c-11.932 57.116-62.574 100.014-123.225 100.014-15.147 0-29.663-2.67-43.112-7.573 11.931-57.116 62.574-100.014 123.225-100.014 15.147 0 29.663 2.67 43.112 7.573z" fill="#6583fe"/><circle cx="336.113" cy="193.398" fill="#fff" r="125.898"/><path d="m379.225 311.72c-13.448 4.903-27.965 7.573-43.112 7.573-60.651 0-111.294-42.898-123.225-100.014 13.448-4.903 27.965-7.573 43.112-7.573 60.651.001 111.294 42.899 123.225 100.014z" fill="#6583fe"/><ellipse cx="256" cy="193.398" fill="#6583fe" rx="45.782" ry="97.119"/><g><path d="m299.112 219.28c-5.939 28.456-21.502 53.388-43.112 71.237-21.609-17.849-37.173-42.781-43.112-71.237 13.448-4.903 27.965-7.573 43.112-7.573s29.663 2.67 43.112 7.573z" fill="#fff"/></g><path d="" style="fill:none;stroke:#2626bc;stroke-width:10;stroke-linecap:round;stroke-linejoin:round;stroke-miterlimit:10"/><path d="m467.012 193.398c0-72.177-58.721-130.897-130.898-130.897-29.011 0-57.315 9.713-80.16 27.418-22.149-17.177-49.933-27.419-80.067-27.419-72.177 0-130.898 58.721-130.898 130.897 0 54.936 34.02 102.068 82.096 121.456-1.3 7.391-1.983 14.992-1.983 22.75 0 72.177 58.721 130.897 130.898 130.897 29.318 0 57.036-9.479 80.157-27.414 2.182-1.693 2.579-4.834.887-7.016-1.693-2.182-4.833-2.58-7.016-.887-21.351 16.563-46.95 25.317-74.028 25.317-66.664 0-120.898-54.234-120.898-120.897 0-6.574.535-13.024 1.55-19.316 12.392 3.902 25.571 6.01 39.235 6.01 30.155 0 57.957-10.255 80.113-27.454 22.156 17.199 49.958 27.454 80.113 27.454 13.664 0 26.843-2.108 39.235-6.01 1.015 6.292 1.55 12.742 1.55 19.316 0 26.29-8.293 51.285-23.982 72.285-1.652 2.212-1.199 5.345 1.014 6.998 2.211 1.652 5.345 1.198 6.998-1.014 16.99-22.74 25.971-49.806 25.971-78.27 0-7.758-.683-15.359-1.983-22.75 48.076-19.386 82.096-66.519 82.096-121.454zm-412.023 0c0-66.663 54.234-120.897 120.898-120.897 66.663 0 120.898 54.234 120.898 120.897 0 6.574-.535 13.024-1.55 19.316-12.392-3.901-25.571-6.009-39.234-6.009s-26.843 2.108-39.234 6.009c-1.015-6.292-1.55-12.742-1.55-19.316 0-25.232 7.693-49.405 22.248-69.906 1.599-2.252 1.069-5.373-1.183-6.972-2.251-1.6-5.373-1.068-6.972 1.183-15.762 22.202-24.093 48.377-24.093 75.695 0 7.758.683 15.359 1.983 22.749-38.206 15.407-67.537 48.334-77.968 88.78-43.568-18.294-74.243-61.395-74.243-111.529zm201.011 90.459c-18.007-15.966-31.229-37.209-37.217-61.284 11.73-3.804 24.236-5.869 37.217-5.869s25.487 2.065 37.217 5.869c-5.988 24.075-19.21 45.318-37.217 61.284zm-80.113 30.439c-12.981 0-25.487-2.065-37.217-5.869 9.266-37.251 35.848-67.73 70.675-82.354 6.468 25.08 20.202 47.271 38.813 64.187-20.174 15.09-45.198 24.036-72.271 24.036zm160.226 0c-27.074 0-52.097-8.946-72.271-24.036 18.611-16.915 32.345-39.107 38.813-64.187 34.827 14.624 61.409 45.102 70.675 82.353-11.729 3.805-24.235 5.87-37.217 5.87zm46.657-9.369c-10.431-40.446-39.762-73.373-77.969-88.78 1.301-7.391 1.983-14.992 1.983-22.749 0-38.366-16.592-72.929-42.976-96.892 20.788-15.517 46.237-24.006 72.305-24.006 66.664 0 120.898 54.234 120.898 120.897.001 50.135-30.675 93.236-74.241 111.53z" fill="#2626bc"/></g><g fill="#2626bc"><g><circle cx="169.915" cy="154.215" r="5.971"/><circle cx="169.915" cy="172.279" r="5.971"/><circle cx="169.915" cy="190.342" r="5.971"/></g><g><circle cx="274.063" cy="343.573" r="5.971"/><circle cx="256" cy="343.573" r="5.971"/><path d="m231.966 343.573c0-3.298 2.673-5.971 5.971-5.971s5.971 2.673 5.971 5.971-2.673 5.971-5.971 5.971-5.971-2.673-5.971-5.971z"/></g><g><path d="m363.407 170.53c-2.332-2.332-2.332-6.112 0-8.444s6.112-2.332 8.444 0 2.332 6.113 0 8.444-6.112 2.331-8.444 0z"/><path d="m350.635 183.302c-2.332-2.332-2.332-6.112 0-8.444s6.112-2.332 8.444 0 2.332 6.112 0 8.444-6.112 2.332-8.444 0z"/><path d="m337.862 196.075c-2.332-2.332-2.332-6.112 0-8.444s6.112-2.332 8.444 0 2.332 6.112 0 8.444c-2.331 2.331-6.112 2.331-8.444 0z"/></g></g></g><g fill="#6583fe"><path d="m257.32 59.5c-1.28 0-2.559-.488-3.536-1.465-1.953-1.952-1.953-5.118 0-7.07l10-10c1.951-1.953 5.119-1.953 7.07 0 1.953 1.952 1.953 5.118 0 7.07l-10 10c-.974.977-2.254 1.465-3.534 1.465z"/><path d="m393.862 429.957c-1.279 0-2.56-.488-3.535-1.465-1.953-1.952-1.953-5.118 0-7.07l10-10c1.951-1.953 5.119-1.953 7.07 0 1.953 1.952 1.953 5.118 0 7.07l-10 10c-.975.977-2.255 1.465-3.535 1.465z"/><path d="m88 355.18c-2.761 0-5-2.238-5-5 0-3.309-2.691-6-6-6-2.761 0-5-2.238-5-5s2.239-5 5-5c3.309 0 6-2.691 6-6 0-2.762 2.239-5 5-5s5 2.238 5 5c0 3.309 2.691 6 6 6 2.761 0 5 2.238 5 5s-2.239 5-5 5c-3.309 0-6 2.691-6 6 0 2.761-2.239 5-5 5z"/><path d="m425 382.18c-2.762 0-5-2.238-5-5 0-3.309-2.691-6-6-6-2.762 0-5-2.238-5-5s2.238-5 5-5c3.309 0 6-2.691 6-6 0-2.762 2.238-5 5-5s5 2.238 5 5c0 3.309 2.691 6 6 6 2.762 0 5 2.238 5 5s-2.238 5-5 5c-3.309 0-6 2.691-6 6 0 2.761-2.238 5-5 5z"/><path d="m217.514 50.5c-2.761 0-5-2.238-5-5 0-3.309-2.691-6-6-6-2.761 0-5-2.238-5-5s2.239-5 5-5c3.309 0 6-2.691 6-6 0-2.762 2.239-5 5-5s5 2.238 5 5c0 3.309 2.691 6 6 6 2.761 0 5 2.238 5 5s-2.239 5-5 5c-3.309 0-6 2.691-6 6 0 2.762-2.239 5-5 5z"/></g></g></g></svg>