<svg xmlns="http://www.w3.org/2000/svg" viewBox="0 0 33.97 49.96"><title>transfer-icon</title><g id="Layer_2" data-name="Layer 2"><g id="Outline_Icons" data-name="Outline Icons"><path fill="#204ee9" d="M33.9.62a1,1,0,0,0-.54-.54A1.09,1.09,0,0,0,33,0H19.27a1,1,0,0,0,0,2H30.56L11.71,20.85a1,1,0,0,0,0,1.41,1,1,0,0,0,1.42,0L32,3.41V14.7a1,1,0,1,0,2,0V1A1,1,0,0,0,33.9.62Z"/><path fill="#204ee9" d="M22,26.56l-20,20V35.26a1,1,0,0,0-2,0V49a1,1,0,0,0,.08.38,1,1,0,0,0,.54.54A.84.84,0,0,0,1,50H14.7a1,1,0,0,0,0-2H3.41l20-20A1,1,0,0,0,22,26.56Z"/></g></g></svg>