<?xml version="1.0" encoding="utf-8"?>
<!-- Generator: Adobe Illustrator 24.3.0, SVG Export Plug-In . SVG Version: 6.00 Build 0)  -->
<svg version="1.1" id="Layer_1" xmlns="http://www.w3.org/2000/svg" xmlns:xlink="http://www.w3.org/1999/xlink" x="0px" y="0px"
	 viewBox="0 0 20.7 15.5" style="enable-background:new 0 0 20.7 15.5;" xml:space="preserve">
<path d="M20,12.9H2.6V0.6C2.6,0.3,2.3,0,1.9,0H0.6C0.3,0,0,0.3,0,0.6v13.6c0,0.7,0.6,1.3,1.3,1.3c0,0,0,0,0,0H20
	c0.4,0,0.6-0.3,0.6-0.6v-1.3C20.7,13.2,20.4,12.9,20,12.9z M18.7,1.3H14c-0.5,0-1,0.4-1,1c0,0.3,0.1,0.5,0.3,0.7l1.3,1.3l-3,3l-3-3
	c-0.5-0.5-1.3-0.5-1.8,0c0,0,0,0,0,0L4.1,7c-0.3,0.3-0.3,0.7,0,0.9L5,8.9c0.3,0.3,0.7,0.3,0.9,0L7.7,7l3,3c0.5,0.5,1.3,0.5,1.8,0
	c0,0,0,0,0,0l3.9-3.9l1.3,1.3c0.4,0.4,1,0.4,1.4,0c0.2-0.2,0.3-0.4,0.3-0.7V1.9C19.4,1.6,19.1,1.3,18.7,1.3
	C18.7,1.3,18.7,1.3,18.7,1.3z"/>
</svg>
