<?xml version="1.0" encoding="utf-8"?>
<!-- Generator: Adobe Illustrator 24.3.0, SVG Export Plug-In . SVG Version: 6.00 Build 0)  -->
<svg version="1.1" id="Layer_1" xmlns="http://www.w3.org/2000/svg" xmlns:xlink="http://www.w3.org/1999/xlink" x="0px" y="0px"
	 viewBox="0 0 21.1 18.5" style="enable-background:new 0 0 21.1 18.5;" xml:space="preserve">
<path d="M19,4H3.3C2.9,4,2.6,3.7,2.6,3.3s0.3-0.7,0.7-0.7h15.8c0.4,0,0.7-0.3,0.7-0.7v0c0-1.1-0.9-2-2-2c0,0,0,0,0,0H2.6
	C1.2,0,0,1.2,0,2.6c0,0,0,0,0,0v13.2c0,1.5,1.2,2.6,2.6,2.6c0,0,0,0,0,0H19c1.1,0,2.1-0.9,2.1-2V5.9C21.1,4.8,20.1,3.9,19,4z
	 M17.1,12.5c-0.7,0-1.3-0.6-1.3-1.3c0-0.7,0.6-1.3,1.3-1.3c0.7,0,1.3,0.6,1.3,1.3S17.9,12.5,17.1,12.5L17.1,12.5z"/>
</svg>
